fira-sans_book.sfdir
StartChar: exclam
Encoding: 33 33 2122
Width: 241
Flags: MW
HStem: -12 129<102 138.5> 668 20G<73 165 165 165>
VStem: 56 129<35 70.5> 77.5 83.5
LayerCount: 2
Back
Fore
SplineSet
165 688 m 1xd0
 157 227 l 1
 82 227 l 1
 73 688 l 1
 165 688 l 1xd0
120 117 m 0xe0
 157 117 185 88 185 53 c 0
 185 17 157 -12 120 -12 c 0
 84 -12 56 17 56 53 c 0
 56 88 84 117 120 117 c 0xe0
EndSplineSet
EndChar
StartChar: quotedbl
Encoding: 34 34 2129
Width: 390
Flags: MW
HStem: 429 259<76 76 76 139 251 314 251 251>
VStem: 69.5 76.5 244 77
LayerCount: 2
Back
Fore
SplineSet
76 429 m 1
 63 688 l 1
 153 688 l 1
 139 429 l 1
 76 429 l 1
251 429 m 1
 237 688 l 1
 328 688 l 1
 314 429 l 1
 251 429 l 1
EndSplineSet
EndChar

StartChar: percent
Encoding: 37 37 1111
Width: 818
Flags: MW
HStem: -12 21G -12 58<579.5 645.5 579.5 658.5> 265 58<579.5 645.5> 343 58<173 239 173 252.5> 621 57<173 239>
VStem: 47 74<483.5 539 483.5 562.5> 290 76<483 538> 452 76<128.5 184 128.5 207.5> 697 74<128 183>
LayerCount: 2
Fore
SplineSet
671 671 m 1x6f80
 208 -29 l 1
 149 9 l 1xbf80
 612 709 l 1
 671 671 l 1x6f80
206 678 m 0
 299 678 366 614 366 511 c 0
 366 408 299 343 206 343 c 0
 114 343 47 408 47 511 c 0
 47 614 114 678 206 678 c 0
206 621 m 0
 140 621 121 567 121 511 c 0
 121 456 140 401 206 401 c 0
 272 401 290 455 290 511 c 0
 290 565 272 621 206 621 c 0
612 323 m 0x6f80
 705 323 771 259 771 156 c 0
 771 53 705 -12 612 -12 c 0
 520 -12 452 53 452 156 c 0
 452 259 519 323 612 323 c 0x6f80
612 265 m 0
 547 265 528 212 528 156 c 0
 528 101 547 46 612 46 c 0
 679 46 697 100 697 156 c 0
 697 210 679 265 612 265 c 0
EndSplineSet
Substitution2: "'onum' Oldstyle Figures lookup 22 subtable" percent.osf
Substitution2: "'tnum' Tabular Numbers lookup 21 subtable" percent.tf
AlternateSubs2: "'aalt' Access All Alternates lookup 1 subtable" percent.tf percent.osf
EndChar
StartChar: ampersand
Encoding: 38 38 2373
Width: 758
GlyphClass: 2
Flags: MW
HStem: -12 67<271 347 271 352.5> 637 63<272.5 331.5>
VStem: 83 86<139 207.5 139 218> 125 83<520.5 572 520.5 588.5> 398 83<517 573.5>
LayerCount: 2
Back
Fore
SplineSet
302 700 m 0xe8
 408 700 481 636 481 549 c 0
 481 464 417 412 337 365 c 1
 520 193 l 1
 544 243 566 300 581 367 c 1
 660 345 l 1
 635 262 605 197 572 144 c 1
 687 37 l 1
 626 -12 l 1
 525 85 l 1
 470 23 401 -12 304 -12 c 0
 175 -12 83 61 83 174 c 0xe8
 83 262 138 319 224 373 c 1
 163 431 125 476 125 545 c 0xd8
 125 632 189 700 302 700 c 0xe8
303 637 m 0xd8
 242 637 208 598 208 546 c 0
 208 495 236 461 289 411 c 1
 357 451 398 490 398 544 c 0
 398 603 360 637 303 637 c 0xd8
272 327 m 1xe8
 203 283 169 238 169 177 c 0
 169 101 229 55 313 55 c 0
 381 55 431 83 476 132 c 1
 272 327 l 1xe8
EndSplineSet
Substitution2: "'ss03' Style Set 3 lookup 35 subtable" ampersand.ss03
Substitution2: "'aalt' Access All Alternates lookup 0 subtable" ampersand.ss03
EndChar

StartChar: quotesingle
Encoding: 39 39 992
Width: 216
Flags: MW
HStem: 429 259<76 139 76 76> 668 20G<63 153 153 153>
VStem: 69.5 76.5
LayerCount: 2
Fore
SplineSet
63 688 m 1x60
 153 688 l 1
 139 429 l 1
 76 429 l 1xa0
 63 688 l 1x60
EndSplineSet
EndChar
StartChar: parenleft
Encoding: 40 40 2154
Width: 324
Flags: MW
HStem: -143 986<228 228>
VStem: 43 88<242.5 458 242.5 468>
LayerCount: 2
Back
Fore
SplineSet
228 843 m 1
 281 807 l 1
 191 674 131 566 131 350 c 0
 131 135 191 26 281 -107 c 1
 228 -143 l 1
 130 -5 43 114 43 350 c 0
 43 586 130 705 228 843 c 1
EndSplineSet
Substitution2: "'case' Case-Sensitive Forms lookup 28 subtable" parenleft.case
Substitution2: "'dnom' Denominators lookup 16 subtable" parenleft.dnom
Substitution2: "'numr' Numerators lookup 15 subtable" parenleft.numr
Substitution2: "'sups' Superscript lookup 14 subtable" uni207D
Substitution2: "'subs' Subscript lookup 13 subtable" uni208D
AlternateSubs2: "'aalt' Access All Alternates lookup 1 subtable" uni208D uni207D parenleft.numr parenleft.dnom parenleft.case
EndChar
StartChar: parenright
Encoding: 41 41 2155
Width: 324
Flags: MW
HStem: -143 986<96 96>
VStem: 193 88<242.5 458>
LayerCount: 2
Back
Fore
SplineSet
96 843 m 1
 194 705 281 586 281 350 c 0
 281 114 194 -5 96 -143 c 1
 43 -107 l 1
 133 26 193 135 193 350 c 0
 193 566 133 674 43 807 c 1
 96 843 l 1
EndSplineSet
Substitution2: "'case' Case-Sensitive Forms lookup 28 subtable" parenright.case
Substitution2: "'dnom' Denominators lookup 16 subtable" parenright.dnom
Substitution2: "'numr' Numerators lookup 15 subtable" parenright.numr
Substitution2: "'sups' Superscript lookup 14 subtable" uni207E
Substitution2: "'subs' Subscript lookup 13 subtable" uni208E
AlternateSubs2: "'aalt' Access All Alternates lookup 1 subtable" uni208E uni207E parenright.numr parenright.dnom parenright.case
EndChar
StartChar: asterisk
Encoding: 42 42 2112
Width: 438
Flags: MW
HStem: 511 20G<175 175 262 262> 546 20G<23 23 415 415> 718 20G<178 260 260 260>
VStem: 184.5 69
LayerCount: 2
Back
Fore
SplineSet
415 566 m 1
 262 531 l 1
 365 414 l 1
 299 365 l 1
 219 499 l 1
 139 365 l 1
 73 413 l 1
 175 531 l 1
 23 566 l 1
 48 641 l 1
 191 580 l 1
 178 738 l 1
 260 738 l 1
 247 580 l 1
 389 642 l 1
 415 566 l 1
EndSplineSet
EndChar

StartChar: plus
Encoding: 43 43 1113
Width: 498
Flags: MW
HStem: 296 70<64 210 64 210 287 434>
VStem: 210 77<146 296 146 296 366 516>
LayerCount: 2
Fore
SplineSet
287 366 m 1
 434 366 l 1
 434 296 l 1
 287 296 l 1
 287 146 l 1
 210 146 l 1
 210 296 l 1
 64 296 l 1
 64 366 l 1
 210 366 l 1
 210 516 l 1
 287 516 l 1
 287 366 l 1
EndSplineSet
Substitution2: "'onum' Oldstyle Figures lookup 22 subtable" plus.osf
Substitution2: "'tnum' Tabular Numbers lookup 21 subtable" plus.tf
Substitution2: "'dnom' Denominators lookup 14 subtable" plus.dnom
Substitution2: "'numr' Numerators lookup 13 subtable" plus.numr
Substitution2: "'sups' Superscript lookup 12 subtable" plussuperior
Substitution2: "'subs' Subscript lookup 11 subtable" uni208A
AlternateSubs2: "'aalt' Access All Alternates lookup 1 subtable" uni208A plussuperior plus.numr plus.dnom plus.tf plus.osf
EndChar

StartChar: comma
Encoding: 44 44 983
Width: 232
Flags: MW
HStem: -1 21G<78 78>
VStem: 51 129<42.5 70.5 42.5 70.5>
LayerCount: 2
Fore
SplineSet
115 117 m 0
 153 117 180 88 180 53 c 0
 180 32 175 13 163 -14 c 2
 98 -163 l 1
 38 -163 l 1
 78 -1 l 1
 62 11 51 31 51 53 c 0
 51 88 79 117 115 117 c 0
EndSplineSet
EndChar
StartChar: hyphen
Encoding: 45 45 2166
Width: 402
Flags: MW
HStem: 277 72<62 341 62 341>
VStem: 62 279<277 349 277 349>
LayerCount: 2
Back
Fore
SplineSet
62 277 m 1
 62 349 l 1
 341 349 l 1
 341 277 l 1
 62 277 l 1
EndSplineSet
Substitution2: "'case' Case-Sensitive Forms lookup 28 subtable" hyphen.case
Substitution2: "'aalt' Access All Alternates lookup 0 subtable" hyphen.case
EndChar
StartChar: period
Encoding: 46 46 2126
Width: 232
Flags: MW
HStem: -12 129<97 134>
VStem: 51 129<35 70.5>
LayerCount: 2
Back
Fore
SplineSet
115 117 m 0
 153 117 180 88 180 53 c 0
 180 17 153 -12 115 -12 c 0
 79 -12 51 17 51 53 c 0
 51 88 79 117 115 117 c 0
EndSplineSet
EndChar
StartChar: slash
Encoding: 47 47 2132
Width: 520
Flags: MW
HStem: -103 909<181 340>
VStem: 108 304
LayerCount: 2
Back
Fore
SplineSet
340 806 m 1
 412 789 l 1
 181 -103 l 1
 108 -86 l 1
 340 806 l 1
EndSplineSet
Substitution2: "'frac' Diagonal Fractions lookup 17 subtable" fraction
Substitution2: "'aalt' Access All Alternates lookup 0 subtable" fraction
EndChar

StartChar: zero
Encoding: 48 48 877
Width: 556
Flags: MW
HStem: -12 67<234.5 321 234.5 351.5> 611 67<234.5 321>
VStem: 58 87<234.5 433 234.5 445.5> 411 87<234 432.5>
LayerCount: 2
Fore
SplineSet
278 678 m 0
 425 678 498 556 498 333 c 0
 498 111 425 -12 278 -12 c 0
 131 -12 58 111 58 334 c 0
 58 557 131 678 278 678 c 0
278 611 m 0
 191 611 145 532 145 334 c 0
 145 135 191 55 278 55 c 0
 364 55 411 135 411 333 c 0
 411 532 364 611 278 611 c 0
EndSplineSet
Substitution2: "'zero' Slashed Zero lookup 28 subtable" zero.zero
Substitution2: "'onum' Oldstyle Figures lookup 22 subtable" zero.osf
Substitution2: "'tnum' Tabular Numbers lookup 21 subtable" zero.tf
Substitution2: "'frac' Diagonal Fractions lookup 16 subtable" zero.numr
Substitution2: "'dnom' Denominators lookup 14 subtable" zero.dnom
Substitution2: "'numr' Numerators lookup 13 subtable" zero.numr
Substitution2: "'sups' Superscript lookup 12 subtable" zerosuperior
Substitution2: "'subs' Subscript lookup 11 subtable" zeroinferior
AlternateSubs2: "'aalt' Access All Alternates lookup 1 subtable" zeroinferior zerosuperior zero.numr zero.dnom zero.tf zero.osf zero.zero
EndChar
StartChar: one
Encoding: 49 49 2012
Width: 428
Flags: MW
HStem: 0 21G<232 316 232 232>
VStem: 232 84<0 578 578 578>
LayerCount: 2
Back
Fore
SplineSet
316 668 m 1
 316 0 l 1
 232 0 l 1
 232 578 l 1
 74 481 l 1
 37 541 l 1
 242 668 l 1
 316 668 l 1
EndSplineSet
Substitution2: "'onum' Oldstyle Figures lookup 25 subtable" one.osf
Substitution2: "'tnum' Tabular Numbers lookup 24 subtable" one.tf
Substitution2: "'frac' Diagonal Fractions lookup 18 subtable" one.numr
Substitution2: "'dnom' Denominators lookup 16 subtable" one.dnom
Substitution2: "'numr' Numerators lookup 15 subtable" one.numr
Substitution2: "'sups' Superscript lookup 14 subtable" uni00B9
Substitution2: "'subs' Subscript lookup 13 subtable" uni2081
AlternateSubs2: "'aalt' Access All Alternates lookup 1 subtable" uni2081 uni00B9 one.numr one.dnom one.tf one.osf
EndChar

StartChar: two
Encoding: 50 50 879
Width: 491
Flags: MW
HStem: 0 71<136 430> 609 69<194 256.5>
VStem: 336 88<437.5 529.5>
LayerCount: 2
Fore
SplineSet
227 678 m 0
 348 678 424 600 424 497 c 0
 424 370 345 283 136 71 c 1
 440 71 l 1
 430 0 l 1
 40 0 l 1
 40 67 l 1
 278 317 336 382 336 493 c 0
 336 566 290 609 223 609 c 0
 165 609 126 585 84 535 c 1
 27 579 l 1
 81 645 144 678 227 678 c 0
EndSplineSet
Substitution2: "'onum' Oldstyle Figures lookup 22 subtable" two.osf
Substitution2: "'tnum' Tabular Numbers lookup 21 subtable" two.tf
Substitution2: "'frac' Diagonal Fractions lookup 16 subtable" two.numr
Substitution2: "'dnom' Denominators lookup 14 subtable" two.dnom
Substitution2: "'numr' Numerators lookup 13 subtable" two.numr
Substitution2: "'sups' Superscript lookup 12 subtable" twosuperior
Substitution2: "'subs' Subscript lookup 11 subtable" twoinferior
AlternateSubs2: "'aalt' Access All Alternates lookup 1 subtable" twoinferior twosuperior two.numr two.dnom two.tf two.osf
EndChar

StartChar: three
Encoding: 51 51 880
Width: 496
Flags: MW
HStem: -12 69<184.5 255.5 184.5 283.5> 317 65<176 210 210 215 166 210> 610 68<192.5 254>
VStem: 334 85<466 537> 351 88<151.5 239.5>
LayerCount: 2
Fore
SplineSet
224 678 m 0xf0
 349 678 419 600 419 509 c 0xf0
 419 423 363 372 288 355 c 1
 372 348 439 294 439 192 c 0
 439 75 352 -12 215 -12 c 0
 135 -12 67 17 16 77 c 1
 68 125 l 1
 111 77 157 57 212 57 c 0
 299 57 351 111 351 192 c 0xe8
 351 287 298 317 215 317 c 2
 166 317 l 1
 176 382 l 1
 210 382 l 2
 277 382 334 423 334 504 c 0
 334 570 289 610 219 610 c 0
 166 610 125 592 79 550 c 1
 35 600 l 1
 91 652 152 678 224 678 c 0xf0
EndSplineSet
Substitution2: "'onum' Oldstyle Figures lookup 22 subtable" three.osf
Substitution2: "'tnum' Tabular Numbers lookup 21 subtable" three.tf
Substitution2: "'frac' Diagonal Fractions lookup 16 subtable" three.numr
Substitution2: "'dnom' Denominators lookup 14 subtable" three.dnom
Substitution2: "'numr' Numerators lookup 13 subtable" three.numr
Substitution2: "'sups' Superscript lookup 12 subtable" threesuperior
Substitution2: "'subs' Subscript lookup 11 subtable" threeinferior
AlternateSubs2: "'aalt' Access All Alternates lookup 1 subtable" threeinferior threesuperior three.numr three.dnom three.tf three.osf
EndChar

StartChar: four
Encoding: 52 52 881
Width: 529
Flags: MW
HStem: 0 21G<328 410 328 328> 167 68<130 328 410 497>
VStem: 328 82<0 167 0 167>
LayerCount: 2
Fore
SplineSet
497 167 m 1
 410 167 l 1
 410 0 l 1
 328 0 l 1
 328 167 l 1
 41 167 l 1
 41 228 l 1
 243 678 l 1
 313 649 l 1
 130 235 l 1
 329 235 l 1
 337 418 l 1
 410 418 l 1
 410 235 l 1
 497 235 l 1
 497 167 l 1
EndSplineSet
Substitution2: "'onum' Oldstyle Figures lookup 22 subtable" four.osf
Substitution2: "'tnum' Tabular Numbers lookup 21 subtable" four.tf
Substitution2: "'frac' Diagonal Fractions lookup 16 subtable" four.numr
Substitution2: "'dnom' Denominators lookup 14 subtable" four.dnom
Substitution2: "'numr' Numerators lookup 13 subtable" four.numr
Substitution2: "'sups' Superscript lookup 12 subtable" foursuperior
Substitution2: "'subs' Subscript lookup 11 subtable" fourinferior
AlternateSubs2: "'aalt' Access All Alternates lookup 1 subtable" fourinferior foursuperior four.numr four.dnom four.tf four.osf
EndChar

StartChar: five
Encoding: 53 53 882
Width: 498
Flags: MW
HStem: -12 69<193 266 193 292> 359 66<243 273> 602 66<153 417 153 153>
VStem: 73 80<398 602 398 668 398 668> 364 87<165.5 268.5>
LayerCount: 2
Fore
SplineSet
417 602 m 1
 153 602 l 1
 153 398 l 1
 188 416 224 425 262 425 c 0
 375 425 451 346 451 214 c 0
 451 81 361 -12 223 -12 c 0
 139 -12 79 20 28 72 c 1
 79 122 l 1
 120 78 163 57 223 57 c 0
 309 57 364 115 364 216 c 0
 364 321 309 359 237 359 c 0
 199 359 172 351 139 334 c 1
 73 334 l 1
 73 668 l 1
 429 668 l 1
 417 602 l 1
EndSplineSet
Substitution2: "'onum' Oldstyle Figures lookup 22 subtable" five.osf
Substitution2: "'tnum' Tabular Numbers lookup 21 subtable" five.tf
Substitution2: "'frac' Diagonal Fractions lookup 16 subtable" five.numr
Substitution2: "'dnom' Denominators lookup 14 subtable" five.dnom
Substitution2: "'numr' Numerators lookup 13 subtable" five.numr
Substitution2: "'sups' Superscript lookup 12 subtable" fivesuperior
Substitution2: "'subs' Subscript lookup 11 subtable" fiveinferior
AlternateSubs2: "'aalt' Access All Alternates lookup 1 subtable" fiveinferior fivesuperior five.numr five.dnom five.tf five.osf
EndChar

StartChar: six
Encoding: 54 54 883
Width: 531
Flags: MW
HStem: -12 67<232.5 320 232.5 337.5> 371 67<272.5 323.5> 611 67<256 325>
VStem: 58 84 403 85<173.5 278>
LayerCount: 2
Fore
SplineSet
305 438 m 0
 403 438 488 369 488 226 c 0
 488 80 396 -12 279 -12 c 0
 118 -12 58 123 58 311 c 0
 58 533 152 678 307 678 c 0
 361 678 404 663 442 638 c 1
 409 582 l 1
 378 601 344 611 306 611 c 0
 206 611 146 506 142 348 c 1
 186 410 240 438 305 438 c 0
279 55 m 0
 361 55 403 123 403 224 c 0
 403 332 356 371 291 371 c 0
 229 371 178 333 143 276 c 1
 147 129 186 55 279 55 c 0
EndSplineSet
Substitution2: "'onum' Oldstyle Figures lookup 22 subtable" six.osf
Substitution2: "'tnum' Tabular Numbers lookup 21 subtable" six.tf
Substitution2: "'frac' Diagonal Fractions lookup 16 subtable" six.numr
Substitution2: "'dnom' Denominators lookup 14 subtable" six.dnom
Substitution2: "'numr' Numerators lookup 13 subtable" six.numr
Substitution2: "'sups' Superscript lookup 12 subtable" sixsuperior
Substitution2: "'subs' Subscript lookup 11 subtable" sixinferior
AlternateSubs2: "'aalt' Access All Alternates lookup 1 subtable" sixinferior sixsuperior six.numr six.dnom six.tf six.osf
EndChar

StartChar: seven
Encoding: 55 55 884
Width: 442
Flags: MW
HStem: -9 21G<158 158> 599 69<26 326 26 411>
VStem: 26 385<605 605 605 668 605 668>
LayerCount: 2
Fore
SplineSet
411 605 m 1
 158 -9 l 1
 81 16 l 1
 326 599 l 1
 26 599 l 1
 26 668 l 1
 411 668 l 1
 411 605 l 1
EndSplineSet
Substitution2: "'onum' Oldstyle Figures lookup 22 subtable" seven.osf
Substitution2: "'tnum' Tabular Numbers lookup 21 subtable" seven.tf
Substitution2: "'frac' Diagonal Fractions lookup 16 subtable" seven.numr
Substitution2: "'dnom' Denominators lookup 14 subtable" seven.dnom
Substitution2: "'numr' Numerators lookup 13 subtable" seven.numr
Substitution2: "'sups' Superscript lookup 12 subtable" sevensuperior
Substitution2: "'subs' Subscript lookup 11 subtable" seveninferior
AlternateSubs2: "'aalt' Access All Alternates lookup 1 subtable" seveninferior sevensuperior seven.numr seven.dnom seven.tf seven.osf
EndChar

StartChar: nine
Encoding: 57 57 886
Width: 523
Flags: MW
HStem: 244 67<214 265> 611 67<219.5 303.5>
VStem: 47 85<407 505.5 407 527.5> 385 86
LayerCount: 2
Fore
SplineSet
258 678 m 0
 401 678 471 575 471 416 c 0
 471 143 360 49 120 -21 c 1
 100 42 l 1
 271 91 377 171 384 327 c 1
 353 280 299 244 231 244 c 0
 127 244 47 326 47 458 c 0
 47 597 142 678 258 678 c 0
248 311 m 0
 307 311 351 344 385 398 c 1
 388 550 347 611 260 611 c 0
 179 611 132 555 132 456 c 0
 132 358 180 311 248 311 c 0
EndSplineSet
Substitution2: "'onum' Oldstyle Figures lookup 22 subtable" nine.osf
Substitution2: "'tnum' Tabular Numbers lookup 21 subtable" nine.tf
Substitution2: "'frac' Diagonal Fractions lookup 16 subtable" nine.numr
Substitution2: "'dnom' Denominators lookup 14 subtable" nine.dnom
Substitution2: "'numr' Numerators lookup 13 subtable" nine.numr
Substitution2: "'sups' Superscript lookup 12 subtable" ninesuperior
Substitution2: "'subs' Subscript lookup 11 subtable" nineinferior
AlternateSubs2: "'aalt' Access All Alternates lookup 1 subtable" nineinferior ninesuperior nine.numr nine.dnom nine.tf nine.osf
EndChar
StartChar: colon
Encoding: 58 58 2118
Width: 232
Flags: MW
HStem: -12 129<97 134> 362 128<97 134>
VStem: 51 129<35 70.5 408 444>
LayerCount: 2
Back
Fore
SplineSet
115 490 m 0
 153 490 180 462 180 426 c 0
 180 390 153 362 115 362 c 0
 79 362 51 390 51 426 c 0
 51 462 79 490 115 490 c 0
115 117 m 0
 153 117 180 88 180 53 c 0
 180 17 153 -12 115 -12 c 0
 79 -12 51 17 51 53 c 0
 51 88 79 117 115 117 c 0
EndSplineSet
EndChar

StartChar: less
Encoding: 60 60 1101
Width: 499
Flags: MW
HStem: 120 426<416 416>
VStem: 53 68<333 333 333 375 333 375>
LayerCount: 2
Fore
SplineSet
446 476 m 1
 121 333 l 1
 446 188 l 1
 416 120 l 1
 53 291 l 1
 53 375 l 1
 416 546 l 1
 446 476 l 1
EndSplineSet
Substitution2: "'onum' Oldstyle Figures lookup 22 subtable" less.osf
Substitution2: "'tnum' Tabular Numbers lookup 21 subtable" less.tf
AlternateSubs2: "'aalt' Access All Alternates lookup 1 subtable" less.tf less.osf
EndChar

StartChar: equal
Encoding: 61 61 1093
Width: 498
Flags: MW
HStem: 201 71<64 435 64 435> 390 71<64 435 64 435>
VStem: 64 371<201 272 201 272 390 461 201 461>
LayerCount: 2
Fore
SplineSet
64 461 m 1
 435 461 l 1
 435 390 l 1
 64 390 l 1
 64 461 l 1
64 272 m 1
 435 272 l 1
 435 201 l 1
 64 201 l 1
 64 272 l 1
EndSplineSet
Substitution2: "'onum' Oldstyle Figures lookup 22 subtable" equal.osf
Substitution2: "'tnum' Tabular Numbers lookup 21 subtable" equal.tf
Substitution2: "'dnom' Denominators lookup 14 subtable" equal.dnom
Substitution2: "'numr' Numerators lookup 13 subtable" equal.numr
Substitution2: "'sups' Superscript lookup 12 subtable" equalsuperior
AlternateSubs2: "'aalt' Access All Alternates lookup 1 subtable" equalsuperior equal.numr equal.dnom equal.tf equal.osf
EndChar
StartChar: greater
Encoding: 62 62 2254
Width: 499
GlyphClass: 2
Flags: MW
HStem: 120 426<84 84>
VStem: 378 68<333 333>
LayerCount: 2
Back
Fore
SplineSet
84 546 m 1
 446 375 l 1
 446 291 l 1
 84 120 l 1
 53 188 l 1
 378 333 l 1
 53 476 l 1
 84 546 l 1
EndSplineSet
Substitution2: "'onum' Oldstyle Figures lookup 25 subtable" greater.osf
Substitution2: "'tnum' Tabular Numbers lookup 24 subtable" greater.tf
AlternateSubs2: "'aalt' Access All Alternates lookup 1 subtable" greater.tf greater.osf
EndChar

StartChar: question
Encoding: 63 63 989
Width: 456
Flags: MW
HStem: -12 129<185 222> 630 70<205.5 264>
VStem: 139 129<35 70.5> 159 83<227 274 227 279 227 363> 336 88<485.5 569>
LayerCount: 2
Fore
SplineSet
237 700 m 0xd8
 359 700 424 626 424 546 c 0
 424 388 242 409 242 274 c 2
 242 227 l 1
 159 227 l 1
 159 279 l 2
 159 447 336 430 336 541 c 0
 336 597 296 630 232 630 c 0
 179 630 132 608 90 558 c 1
 33 602 l 1
 89 668 155 700 237 700 c 0xd8
203 117 m 0xe8
 241 117 268 88 268 53 c 0
 268 17 241 -12 203 -12 c 0
 167 -12 139 17 139 53 c 0
 139 88 167 117 203 117 c 0xe8
EndSplineSet
EndChar

StartChar: at
Encoding: 64 64 1218
Width: 1020
Flags: MW
HStem: -211 70<409.5 563.5 409.5 570> 12 62<460 521> 429 61<483.5 544> 630 70<412.5 635.5>
VStem: 73 85<128 351.5 128 370> 310 82<179.5 296 179.5 317.5> 604 76<164 192 192 413 413 413> 862 85<223.5 401.5>
LayerCount: 2
Fore
SplineSet
526 700 m 0
 802 700 947 515 947 307 c 0
 947 136 881 10 753 10 c 0
 673 10 637 66 627 114 c 1
 603 62 560 12 482 12 c 0
 377 12 310 98 310 231 c 0
 310 404 402 490 526 490 c 0
 579 490 626 479 680 451 c 1
 680 192 l 2
 680 105 707 75 752 75 c 0
 819 75 862 142 862 305 c 0
 862 498 745 630 526 630 c 0
 299 630 158 462 158 241 c 0
 158 15 293 -141 526 -141 c 0
 601 -141 663 -127 717 -108 c 1
 740 -173 l 1
 675 -195 615 -211 525 -211 c 0
 259 -211 73 -37 73 241 c 0
 73 499 256 700 526 700 c 0
492 74 m 0
 561 74 591 131 604 164 c 1
 604 413 l 1
 582 423 560 429 528 429 c 0
 439 429 392 361 392 231 c 0
 392 128 428 74 492 74 c 0
EndSplineSet
EndChar

StartChar: A
Encoding: 65 65 1
Width: 571
GlyphClass: 2
Flags: MW
HStem: 0 21G<8 96 8 8 471 471 471 563> 176 71<171 396 171 418 150 396> 616 72<284 284> 668 20G<231 341 341 341>
VStem: 8 555<0 0>
AnchorPoint: "Anchor-11" 0 0 basechar 0
AnchorPoint: "Anchor-10" 144 688 basechar 0
AnchorPoint: "Anchor-9" 286 688 basechar 0
AnchorPoint: "Anchor-8" 538 0 basechar 0
LayerCount: 2
Fore
SplineSet
418 176 m 1xd8
 150 176 l 1
 96 0 l 1
 8 0 l 1
 231 688 l 1
 341 688 l 1
 563 0 l 1
 471 0 l 1
 418 176 l 1xd8
396 247 m 1
 284 616 l 1xe8
 171 247 l 1
 396 247 l 1
EndSplineSet
Substitution2: "Single Substitution lookup 30 subtable" ordfeminine
Substitution2: "'c2sc' Capitals to Small Capitals lookup 23 subtable" a.sc
AlternateSubs2: "'aalt' Access All Alternates lookup 1 subtable" ordfeminine a.sc
Position2: "'cpsp' Capital Spacing lookup 0 subtable" dx=5 dy=0 dh=10 dv=0
EndChar
StartChar: C
Encoding: 67 67 43
Width: 558
GlyphClass: 2
Flags: MW
HStem: -12 74<291 379 291 388.5> 628 72<293 372>
VStem: 58 92<243.5 449.5 243.5 461>
AnchorPoint: "Anchor-14" 339 346 basechar 0
AnchorPoint: "Anchor-13" 0 0 basechar 0
AnchorPoint: "Anchor-12" 346 688 basechar 0
AnchorPoint: "Anchor-11" 0 0 basechar 0
AnchorPoint: "Anchor-10" 345 0 basechar 0
LayerCount: 2
Back
Fore
SplineSet
342 700 m 0
 427 700 475 676 529 633 c 1
 482 577 l 1
 438 612 397 628 347 628 c 0
 239 628 150 555 150 344 c 0
 150 143 236 62 346 62 c 0
 412 62 454 90 493 120 c 1
 537 64 l 1
 499 25 434 -12 343 -12 c 0
 178 -12 58 113 58 344 c 0
 58 578 186 700 342 700 c 0
EndSplineSet
Substitution2: "'c2sc' Capitals to Small Capitals lookup 26 subtable" c.sc
Substitution2: "'aalt' Access All Alternates lookup 0 subtable" c.sc
Position2: "'cpsp' Capital Spacing lookup 0 subtable" dx=5 dy=0 dh=10 dv=0
EndChar

StartChar: E
Encoding: 69 69 24
Width: 530
GlyphClass: 2
Flags: MW
HStem: 0 70<189 477 189 477> 316 70<189 424 189 424> 618 70<189 460 189 189>
VStem: 103 86<70 316 386 618>
AnchorPoint: "Anchor-11" 290 0 basechar 0
AnchorPoint: "Anchor-10" 90 688 basechar 0
AnchorPoint: "Anchor-9" 290 688 basechar 0
AnchorPoint: "Anchor-8" 449 0 basechar 0
LayerCount: 2
Fore
SplineSet
460 618 m 1
 189 618 l 1
 189 386 l 1
 424 386 l 1
 424 316 l 1
 189 316 l 1
 189 70 l 1
 477 70 l 1
 477 0 l 1
 103 0 l 1
 103 688 l 1
 470 688 l 1
 460 618 l 1
EndSplineSet
Substitution2: "'c2sc' Capitals to Small Capitals lookup 23 subtable" e.sc
Substitution2: "'aalt' Access All Alternates lookup 0 subtable" e.sc
Position2: "'cpsp' Capital Spacing lookup 0 subtable" dx=5 dy=0 dh=10 dv=0
EndChar
StartChar: F
Encoding: 70 70 95
Width: 489
GlyphClass: 2
Flags: MW
HStem: 0 21G<103 189 103 103> 307 69<189 417 189 417> 618 70<189 453 189 189>
VStem: 103 86<0 307 376 618>
AnchorPoint: "Anchor-14" 0 0 basechar 0
AnchorPoint: "Anchor-13" 0 0 basechar 0
AnchorPoint: "Anchor-12" 293 688 basechar 0
AnchorPoint: "Anchor-11" 0 0 basechar 0
AnchorPoint: "Anchor-10" 0 0 basechar 0
LayerCount: 2
Back
Fore
SplineSet
463 688 m 1
 453 618 l 1
 189 618 l 1
 189 376 l 1
 417 376 l 1
 417 307 l 1
 189 307 l 1
 189 0 l 1
 103 0 l 1
 103 688 l 1
 463 688 l 1
EndSplineSet
Substitution2: "'c2sc' Capitals to Small Capitals lookup 26 subtable" f.sc
Substitution2: "'aalt' Access All Alternates lookup 0 subtable" f.sc
Position2: "'cpsp' Capital Spacing lookup 0 subtable" dx=5 dy=0 dh=10 dv=0
EndChar
StartChar: J
Encoding: 74 74 137
Width: 302
GlyphClass: 2
Flags: MW
HStem: 668 20G<117 204 204 204>
VStem: 117 87<99 688>
AnchorPoint: "Anchor-14" 0 0 basechar 0
AnchorPoint: "Anchor-13" 0 0 basechar 0
AnchorPoint: "Anchor-12" 161 688 basechar 0
AnchorPoint: "Anchor-11" 0 0 basechar 0
AnchorPoint: "Anchor-10" 0 0 basechar 0
LayerCount: 2
Back
Fore
SplineSet
204 688 m 1
 204 95 l 2
 204 -44 141 -96 30 -133 c 1
 7 -70 l 1
 98 -33 117 7 117 99 c 2
 117 688 l 1
 204 688 l 1
EndSplineSet
Substitution2: "'c2sc' Capitals to Small Capitals lookup 26 subtable" j.sc
Substitution2: "'aalt' Access All Alternates lookup 0 subtable" j.sc
Position2: "'cpsp' Capital Spacing lookup 0 subtable" dx=5 dy=0 dh=10 dv=0
EndChar

StartChar: K
Encoding: 75 75 56
Width: 579
GlyphClass: 2
Flags: MW
HStem: 0 21G<103 189 103 103 472 472 472 579> 668 20G<103 189 189 189 462 561 561 561>
VStem: 103 86<0 688>
AnchorPoint: "Anchor-11" 313 0 basechar 0
AnchorPoint: "Anchor-10" 0 0 basechar 0
AnchorPoint: "Anchor-9" 323 688 basechar 0
AnchorPoint: "Anchor-8" 0 0 basechar 0
LayerCount: 2
Fore
SplineSet
189 0 m 1
 103 0 l 1
 103 688 l 1
 189 688 l 1
 189 0 l 1
294 373 m 1
 579 0 l 1
 472 0 l 1
 194 368 l 1
 462 688 l 1
 561 688 l 1
 294 373 l 1
EndSplineSet
Substitution2: "'c2sc' Capitals to Small Capitals lookup 23 subtable" k.sc
Substitution2: "'aalt' Access All Alternates lookup 0 subtable" k.sc
Position2: "'cpsp' Capital Spacing lookup 0 subtable" dx=5 dy=0 dh=10 dv=0
EndChar
StartChar: L
Encoding: 76 76 144
Width: 493
GlyphClass: 2
Flags: MW
HStem: 0 76<189 463> 668 20G<103 189 189 189>
VStem: 103 86<76 688 76 688 76 688>
AnchorPoint: "Anchor-14" 385 385 basechar 0
AnchorPoint: "Anchor-13" 211 688 basechar 0
AnchorPoint: "Anchor-12" 146 688 basechar 0
AnchorPoint: "Anchor-11" 0 0 basechar 0
AnchorPoint: "Anchor-10" 284 0 basechar 0
LayerCount: 2
Back
Fore
SplineSet
189 688 m 1
 189 76 l 1
 473 76 l 1
 463 0 l 1
 103 0 l 1
 103 688 l 1
 189 688 l 1
EndSplineSet
Substitution2: "'c2sc' Capitals to Small Capitals lookup 26 subtable" l.sc
Substitution2: "'aalt' Access All Alternates lookup 0 subtable" l.sc
Position2: "'cpsp' Capital Spacing lookup 0 subtable" dx=5 dy=0 dh=10 dv=0
EndChar
StartChar: N
Encoding: 78 78 159
Width: 681
GlyphClass: 2
Flags: MW
HStem: 0 21G<103 184 103 103 462 578 462 462> 0 94<508 508 508 578 462 508> 593 95<172 172> 668 20G<103 216 216 216 497 578 578 578>
VStem: 103 81<0 332 0 688> 497 81<303 688 0 688>
AnchorPoint: "Anchor-14" 0 0 basechar 0
AnchorPoint: "Anchor-13" 0 0 basechar 0
AnchorPoint: "Anchor-12" 351 688 basechar 0
AnchorPoint: "Anchor-11" 0 0 basechar 0
AnchorPoint: "Anchor-10" 342 0 basechar 0
LayerCount: 2
Back
Fore
SplineSet
578 688 m 1x9c
 578 0 l 1
 462 0 l 1
 172 593 l 1xac
 177 538 184 459 184 332 c 2
 184 0 l 1
 103 0 l 1
 103 688 l 1
 216 688 l 1
 508 94 l 1x5c
 506 113 497 218 497 303 c 2
 497 688 l 1
 578 688 l 1x9c
EndSplineSet
Substitution2: "'c2sc' Capitals to Small Capitals lookup 26 subtable" n.sc
Substitution2: "'aalt' Access All Alternates lookup 0 subtable" n.sc
Position2: "'cpsp' Capital Spacing lookup 0 subtable" dx=5 dy=0 dh=10 dv=0
EndChar
StartChar: Q
Encoding: 81 81 223
Width: 687
GlyphClass: 2
Flags: MW
HStem: -10 45 -10 70<288 406 288 406> 628 72<287 406.5>
VStem: 58 92<242 443 242 455.5> 542 92<256.5 443.5>
LayerCount: 2
Back
Fore
SplineSet
473 35 m 1xb8
 551 35 612 9 662 -28 c 1xb8
 605 -101 l 1
 528 -32 468 -10 344 -10 c 0x78
 175 -10 58 112 58 342 c 0
 58 569 176 700 346 700 c 0
 517 700 634 575 634 343 c 0
 634 170 571 83 473 35 c 1xb8
150 342 m 0x78
 150 142 230 60 346 60 c 0
 466 60 542 142 542 343 c 0
 542 544 467 628 346 628 c 0
 228 628 150 544 150 342 c 0x78
EndSplineSet
Substitution2: "'c2sc' Capitals to Small Capitals lookup 26 subtable" q.sc
Substitution2: "'aalt' Access All Alternates lookup 0 subtable" q.sc
Position2: "'cpsp' Capital Spacing lookup 0 subtable" dx=5 dy=0 dh=10 dv=0
EndChar

StartChar: T
Encoding: 84 84 96
Width: 512
GlyphClass: 2
Flags: MW
HStem: 0 21G<213 299 213 213> 614 74<15 213 15 502 299 492 299 299>
VStem: 213 86<0 614 0 614>
AnchorPoint: "Anchor-11" 256 0 basechar 0
AnchorPoint: "Anchor-10" 0 0 basechar 0
AnchorPoint: "Anchor-9" 255 688 basechar 0
AnchorPoint: "Anchor-8" 0 0 basechar 0
LayerCount: 2
Fore
SplineSet
492 614 m 1
 299 614 l 1
 299 0 l 1
 213 0 l 1
 213 614 l 1
 15 614 l 1
 15 688 l 1
 502 688 l 1
 492 614 l 1
EndSplineSet
Substitution2: "'c2sc' Capitals to Small Capitals lookup 23 subtable" t.sc
Substitution2: "'aalt' Access All Alternates lookup 0 subtable" t.sc
Position2: "'cpsp' Capital Spacing lookup 0 subtable" dx=5 dy=0 dh=10 dv=0
EndChar

StartChar: V
Encoding: 86 86 112
Width: 554
GlyphClass: 2
Flags: MW
HStem: 0 21G<231 325 231 231> 0 93<279 279 279 325 231 279> 668 20G<8 102 102 102 457 545 545 545>
VStem: 8 537<688 688>
LayerCount: 2
Fore
SplineSet
325 0 m 1xb0
 231 0 l 1
 8 688 l 1
 102 688 l 1
 279 93 l 1x70
 457 688 l 1
 545 688 l 1
 325 0 l 1xb0
EndSplineSet
Substitution2: "'c2sc' Capitals to Small Capitals lookup 23 subtable" v.sc
Substitution2: "'aalt' Access All Alternates lookup 0 subtable" v.sc
Position2: "'cpsp' Capital Spacing lookup 0 subtable" dx=5 dy=0 dh=10 dv=0
EndChar
StartChar: bracketleft
Encoding: 91 91 2142
Width: 321
Flags: MW
HStem: -115 69<149 267 149 267> 744 70<149 267 149 149>
VStem: 70 79<-46 744 -46 814 -46 814>
LayerCount: 2
Back
Fore
SplineSet
267 814 m 1
 267 744 l 1
 149 744 l 1
 149 -46 l 1
 267 -46 l 1
 267 -115 l 1
 70 -115 l 1
 70 814 l 1
 267 814 l 1
EndSplineSet
Substitution2: "'case' Case-Sensitive Forms lookup 28 subtable" bracketleft.case
Substitution2: "'aalt' Access All Alternates lookup 0 subtable" bracketleft.case
EndChar
StartChar: backslash
Encoding: 92 92 2113
Width: 520
Flags: MW
HStem: -103 909<180 339>
VStem: 108 304
LayerCount: 2
Back
Fore
SplineSet
180 806 m 1
 412 -86 l 1
 339 -103 l 1
 108 789 l 1
 180 806 l 1
EndSplineSet
EndChar

StartChar: bracketright
Encoding: 93 93 1006
Width: 321
Flags: MW
HStem: -115 69<54 172 54 251 54 172> 744 70<54 172 54 251>
VStem: 172 79<-46 744 744 744>
LayerCount: 2
Fore
SplineSet
251 -115 m 1
 54 -115 l 1
 54 -46 l 1
 172 -46 l 1
 172 744 l 1
 54 744 l 1
 54 814 l 1
 251 814 l 1
 251 -115 l 1
EndSplineSet
Substitution2: "'case' Case-Sensitive Forms lookup 25 subtable" bracketright.case
Substitution2: "'aalt' Access All Alternates lookup 0 subtable" bracketright.case
EndChar

StartChar: asciicircum
Encoding: 94 94 1228
Width: 538
Flags: MW
HStem: 527 311<44 306 44 306 232 494 232 404>
VStem: 44 450<527 527>
LayerCount: 2
Fore
SplineSet
494 527 m 1
 404 527 l 1
 268 764 l 1
 133 527 l 1
 44 527 l 1
 232 838 l 1
 306 838 l 1
 494 527 l 1
EndSplineSet
EndChar

StartChar: underscore
Encoding: 95 95 995
Width: 520
Flags: MW
HStem: -137 72<20 500 20 500>
VStem: 20 480<-137 -65 -137 -65>
LayerCount: 2
Fore
SplineSet
20 -65 m 1
 500 -65 l 1
 500 -137 l 1
 20 -137 l 1
 20 -65 l 1
EndSplineSet
EndChar
StartChar: grave
Encoding: 96 96 2531
Width: 294
Flags: MW
HStem: 640 157
VStem: 30 234<685 725>
LayerCount: 2
Back
Fore
SplineSet
68 797 m 1
 264 685 l 1
 238 640 l 1
 30 725 l 1
 68 797 l 1
EndSplineSet
Substitution2: "Single Substitution lookup 41 subtable" grave.case
Substitution2: "'case' Case-Sensitive Forms lookup 28 subtable" grave.case
Substitution2: "'smcp' Lowercase to Small Capitals lookup 27 subtable" grave.sc
Substitution2: "'c2sc' Capitals to Small Capitals lookup 26 subtable" grave.sc
AlternateSubs2: "'aalt' Access All Alternates lookup 1 subtable" grave.sc grave.case
EndChar

StartChar: b
Encoding: 98 98 146
Width: 591
GlyphClass: 2
Flags: MW
HStem: -12 67<292 343 278 386> 0 21G<98 171 98 98> 471 67<300.5 348.5> 718 20G<98 98> 728 20G<182 182>
VStem: 98 84<128 387 459 738 738 738> 437 90<191 339.5>
LayerCount: 2
Fore
SplineSet
333 538 m 0xae
 452 538 527 439 527 264 c 0
 527 98 450 -12 322 -12 c 0
 262 -12 216 16 180 59 c 1xae
 171 0 l 1
 98 0 l 1
 98 738 l 1x76
 182 748 l 1
 182 459 l 1
 218 508 268 538 333 538 c 0xae
303 55 m 0
 383 55 437 118 437 264 c 0
 437 415 387 471 310 471 c 0
 250 471 210 431 182 387 c 1
 182 128 l 1
 210 85 253 55 303 55 c 0
EndSplineSet
Substitution2: "'smcp' Lowercase to Small Capitals lookup 24 subtable" b.sc
Substitution2: "'aalt' Access All Alternates lookup 0 subtable" b.sc
EndChar

StartChar: d
Encoding: 100 100 153
Width: 595
GlyphClass: 2
Flags: MW
HStem: -12 67<239.5 295.5> 0 21G<424 497 424 424> 471 67<247 302 205.5 315.5> 718 20G<497 497> 728 20G<413 413>
VStem: 64 90<192 332 192 341.5> 413 84<138 400 400 400 472 738 0 748 0 748>
LayerCount: 2
Fore
SplineSet
497 738 m 1xb6
 497 0 l 1
 424 0 l 1x6e
 415 74 l 1
 382 22 329 -12 262 -12 c 0
 135 -12 64 96 64 261 c 0
 64 422 141 538 270 538 c 0
 334 538 379 508 413 472 c 1
 413 748 l 1xae
 497 738 l 1xb6
279 55 m 0xae
 340 55 378 85 413 138 c 1
 413 400 l 1
 381 443 343 471 288 471 c 0
 206 471 154 402 154 262 c 0
 154 122 200 55 279 55 c 0xae
EndSplineSet
Substitution2: "'smcp' Lowercase to Small Capitals lookup 24 subtable" d.sc
Substitution2: "'aalt' Access All Alternates lookup 0 subtable" d.sc
EndChar
StartChar: f
Encoding: 102 102 448
Width: 332
GlyphClass: 2
Flags: MW
HStem: 0 21G<106 190 106 106> 461 65<13 106 13 106 190 311> 680 68<241.5 285>
VStem: 106 84<0 461 0 461 526 601 601 602>
AnchorPoint: "Anchor-14" 0 0 basechar 0
AnchorPoint: "Anchor-13" 0 0 basechar 0
AnchorPoint: "Anchor-12" 259 738 basechar 0
AnchorPoint: "Anchor-11" 0 0 basechar 0
AnchorPoint: "Anchor-10" 148 0 basechar 0
LayerCount: 2
Back
Fore
SplineSet
271 680 m 0
 212 680 190 655 190 602 c 2
 190 526 l 1
 320 526 l 1
 311 461 l 1
 190 461 l 1
 190 0 l 1
 106 0 l 1
 106 461 l 1
 13 461 l 1
 13 526 l 1
 106 526 l 1
 106 601 l 2
 106 688 163 748 266 748 c 0
 315 748 350 739 391 721 c 1
 364 660 l 1
 330 675 299 680 271 680 c 0
EndSplineSet
Substitution2: "'smcp' Lowercase to Small Capitals lookup 27 subtable" f.sc
Substitution2: "'aalt' Access All Alternates lookup 0 subtable" f.sc
EndChar

StartChar: h
Encoding: 104 104 173
Width: 585
GlyphClass: 2
Flags: MW
HStem: 0 21G<98 182 98 98 409 493 409 409> 472 66<308 348> 717 20G<98 98> 727 20G<182 182>
VStem: 98 84<0 376 0 451 451 737 737 737> 409 84<0 365 365 377 0 405.5>
AnchorPoint: "Anchor-11" 0 0 basechar 0
AnchorPoint: "Anchor-10" 0 0 basechar 0
AnchorPoint: "Anchor-9" 293 738 basechar 0
AnchorPoint: "Anchor-8" 0 0 basechar 0
LayerCount: 2
Fore
SplineSet
342 538 m 0xdc
 437 538 493 476 493 377 c 2
 493 0 l 1
 409 0 l 1
 409 365 l 2
 409 446 375 472 321 472 c 0
 261 472 218 433 182 376 c 1
 182 0 l 1
 98 0 l 1
 98 737 l 1xec
 182 747 l 1
 182 451 l 1
 221 504 274 538 342 538 c 0xdc
EndSplineSet
Substitution2: "'smcp' Lowercase to Small Capitals lookup 24 subtable" h.sc
Substitution2: "'aalt' Access All Alternates lookup 0 subtable" h.sc
EndChar
StartChar: j
Encoding: 106 106 498
Width: 278
GlyphClass: 2
Flags: MW
HStem: -210 21G<19 19> 506 20G<96 180 180 180> 658 116<120.5 156>
VStem: 79 119<699.5 732.5> 96 84<24 29 29 526>
AnchorPoint: "Anchor-14" 0 0 basechar 0
AnchorPoint: "Anchor-13" 0 0 basechar 0
AnchorPoint: "Anchor-12" 141 763 basechar 0
AnchorPoint: "Anchor-11" 0 0 basechar 0
AnchorPoint: "Anchor-10" 138 -201 basechar 0
LayerCount: 2
Back
Fore
SplineSet
138 774 m 0xf0
 174 774 198 749 198 716 c 0
 198 683 174 658 138 658 c 0
 103 658 79 683 79 716 c 0
 79 749 103 774 138 774 c 0xf0
180 526 m 1xe8
 180 29 l 2
 180 -118 127 -161 19 -210 c 1
 -5 -149 l 1
 64 -116 96 -90 96 24 c 2
 96 526 l 1
 180 526 l 1xe8
EndSplineSet
Substitution2: "'smcp' Lowercase to Small Capitals lookup 27 subtable" j.sc
Substitution2: "'aalt' Access All Alternates lookup 0 subtable" j.sc
EndChar
StartChar: k
Encoding: 107 107 506
Width: 506
GlyphClass: 2
Flags: MW
HStem: 0 21G<98 182 98 98 404 404 404 505> 506 20G<388 482 482 482> 718 20G<98 98> 728 20G<182 182>
VStem: 98 84<0 738 738 738>
AnchorPoint: "Anchor-14" 0 0 basechar 0
AnchorPoint: "Anchor-13" 0 0 basechar 0
AnchorPoint: "Anchor-12" 277 738 basechar 0
AnchorPoint: "Anchor-11" 0 0 basechar 0
AnchorPoint: "Anchor-10" 257 0 basechar 0
LayerCount: 2
Back
Fore
SplineSet
182 748 m 1xd8
 182 0 l 1
 98 0 l 1
 98 738 l 1xe8
 182 748 l 1xd8
482 526 m 1
 282 293 l 1
 505 0 l 1
 404 0 l 1
 188 287 l 1
 388 526 l 1
 482 526 l 1
EndSplineSet
Substitution2: "'smcp' Lowercase to Small Capitals lookup 27 subtable" k.sc
Substitution2: "'aalt' Access All Alternates lookup 0 subtable" k.sc
EndChar
StartChar: l
Encoding: 108 108 512
Width: 291
GlyphClass: 2
Flags: MW
HStem: -12 70<199.5 211> 718 20G<93 93> 728 20G<177 177>
VStem: 93 84<100 102 102 738 738 738>
AnchorPoint: "Anchor-14" 292 379 basechar 0
AnchorPoint: "Anchor-13" 190 738 basechar 0
AnchorPoint: "Anchor-12" 135 738 basechar 0
AnchorPoint: "Anchor-11" 0 0 basechar 0
AnchorPoint: "Anchor-10" 178 0 basechar 0
LayerCount: 2
Back
Fore
SplineSet
198 -12 m 0xb0
 134 -12 93 27 93 100 c 2
 93 738 l 1xd0
 177 748 l 1
 177 102 l 2
 177 73 187 58 212 58 c 0
 225 58 236 60 246 64 c 1
 268 5 l 1
 249 -5 224 -12 198 -12 c 0xb0
EndSplineSet
Substitution2: "'smcp' Lowercase to Small Capitals lookup 27 subtable" l.sc
Substitution2: "'sups' Superscript lookup 14 subtable" uni02E1
AlternateSubs2: "'aalt' Access All Alternates lookup 1 subtable" uni02E1 l.sc
EndChar

StartChar: m
Encoding: 109 109 200
Width: 856
GlyphClass: 2
Flags: MW
HStem: 0 21G<98 182 98 98 388 472 388 388 679 763 679 679> 472 66<297 332.5 586.5 623.5> 506 20G<98 170 170 170>
VStem: 98 84<0 375 0 526> 388 84<0 365 365 375 0 405.5> 679 84<0 365 365 377 0 405.5>
LayerCount: 2
Fore
SplineSet
622 538 m 0xdc
 708 538 763 476 763 377 c 2
 763 0 l 1
 679 0 l 1
 679 365 l 2
 679 446 645 472 602 472 c 0
 543 472 509 433 472 375 c 1
 472 0 l 1
 388 0 l 1
 388 365 l 2
 388 446 354 472 311 472 c 0
 253 472 218 433 182 375 c 1xdc
 182 0 l 1
 98 0 l 1
 98 526 l 1
 170 526 l 1xbc
 177 447 l 1
 214 501 263 538 331 538 c 0
 397 538 444 501 463 440 c 1
 501 498 551 538 622 538 c 0xdc
EndSplineSet
Substitution2: "'smcp' Lowercase to Small Capitals lookup 24 subtable" m.sc
Substitution2: "'aalt' Access All Alternates lookup 0 subtable" m.sc
EndChar

StartChar: p
Encoding: 112 112 220
Width: 591
GlyphClass: 2
Flags: MW
HStem: -211 21G<98 98> -201 21G<182 182> -12 69<292.5 346.5 277.5 389.5> 471 67<302 354> 506 20G<98 170 170 170>
VStem: 98 84<-201 50 -201 124 124 387> 437 90<193.5 334>
LayerCount: 2
Fore
SplineSet
333 538 m 0x76
 471 538 527 431 527 264 c 0
 527 103 457 -12 322 -12 c 0
 263 -12 215 9 182 50 c 1
 182 -201 l 1x76
 98 -211 l 1
 98 526 l 1
 170 526 l 1xae
 177 453 l 1
 215 507 271 538 333 538 c 0x76
303 57 m 0
 390 57 437 123 437 264 c 0
 437 404 395 471 313 471 c 0
 255 471 211 431 182 387 c 1
 182 124 l 1
 210 82 252 57 303 57 c 0
EndSplineSet
Substitution2: "'smcp' Lowercase to Small Capitals lookup 24 subtable" p.sc
Substitution2: "'aalt' Access All Alternates lookup 0 subtable" p.sc
EndChar
StartChar: q
Encoding: 113 113 603
Width: 590
GlyphClass: 2
Flags: MW
HStem: -211 21G<492 492> -201 21G<408 408> -12 67<235 290> 471 67<242 299 200.5 310.5> 506 20G<420 492 492 492>
VStem: 59 90<192 332 192 341.5> 408 84<-201 71 71 71 138 400 400 400>
AnchorPoint: "Anchor-14" 0 0 basechar 0
AnchorPoint: "Anchor-13" 0 0 basechar 0
AnchorPoint: "Anchor-12" 295 526 basechar 0
AnchorPoint: "Anchor-11" 0 0 basechar 0
AnchorPoint: "Anchor-10" 295 -201 basechar 0
LayerCount: 2
Back
Fore
SplineSet
420 526 m 1x6e
 492 526 l 1
 492 -211 l 1xae
 408 -201 l 1
 408 71 l 1
 375 20 323 -12 257 -12 c 0
 130 -12 59 96 59 261 c 0
 59 422 136 538 265 538 c 0
 333 538 379 505 414 466 c 1x76
 420 526 l 1x6e
275 55 m 0
 336 55 373 85 408 138 c 1
 408 400 l 1
 376 442 338 471 283 471 c 0x76
 201 471 149 402 149 262 c 0
 149 122 195 55 275 55 c 0
EndSplineSet
Substitution2: "'smcp' Lowercase to Small Capitals lookup 27 subtable" q.sc
Substitution2: "'aalt' Access All Alternates lookup 0 subtable" q.sc
EndChar

StartChar: r
Encoding: 114 114 223
Width: 383
GlyphClass: 2
Flags: MW
HStem: 0 21G<98 182 98 98> 456 82<287.5 320.5> 506 20G<98 170 170 170> 512 20G<372 372>
VStem: 98 84<0 308 0 526>
AnchorPoint: "Anchor-11" 139 0 basechar 0
AnchorPoint: "Anchor-10" 0 0 basechar 0
AnchorPoint: "Anchor-9" 237 526 basechar 0
AnchorPoint: "Anchor-8" 0 0 basechar 0
LayerCount: 2
Fore
SplineSet
320 538 m 0xc8
 338 538 357 536 372 532 c 1x98
 357 450 l 1
 341 454 330 456 311 456 c 0xc8
 244 456 206 409 182 308 c 1
 182 0 l 1
 98 0 l 1
 98 526 l 1
 170 526 l 1xa8
 178 416 l 1
 206 497 255 538 320 538 c 0xc8
EndSplineSet
Substitution2: "'smcp' Lowercase to Small Capitals lookup 24 subtable" r.sc
Substitution2: "'aalt' Access All Alternates lookup 0 subtable" r.sc
EndChar
StartChar: t
Encoding: 116 116 638
Width: 356
GlyphClass: 2
Flags: MW
HStem: -12 70<228.5 263> 461 65<11 102 11 102 186 304>
VStem: 102 84<135 139 139 461 526 647 647 647>
AnchorPoint: "Anchor-14" 177 263 basechar 0
AnchorPoint: "Anchor-13" 185 746 basechar 0
AnchorPoint: "Anchor-12" 144 647 basechar 0
AnchorPoint: "Anchor-11" 0 0 basechar 0
AnchorPoint: "Anchor-10" 232 0 basechar 0
LayerCount: 2
Back
Fore
SplineSet
325 81 m 1
 357 23 l 1
 323 0 285 -12 241 -12 c 0
 154 -12 102 39 102 135 c 2
 102 461 l 1
 11 461 l 1
 11 526 l 1
 102 526 l 1
 102 647 l 1
 186 656 l 1
 186 526 l 1
 313 526 l 1
 304 461 l 1
 186 461 l 1
 186 139 l 2
 186 84 205 58 252 58 c 0
 277 58 299 65 325 81 c 1
EndSplineSet
Substitution2: "'smcp' Lowercase to Small Capitals lookup 27 subtable" t.sc
Substitution2: "'aalt' Access All Alternates lookup 0 subtable" t.sc
EndChar
StartChar: u
Encoding: 117 117 661
Width: 581
GlyphClass: 2
Flags: MW
HStem: -12 67<233 278> 0 21G<412 484 412 412> 506 20G<93 177 177 177 400 484 484 484>
VStem: 93 84<149 158 158 526> 400 84<149 526 0 526>
AnchorPoint: "Anchor-14" 0 0 basechar 0
AnchorPoint: "Anchor-13" 494 526 basechar 0
AnchorPoint: "Anchor-12" 289 526 basechar 0
AnchorPoint: "Anchor-11" 494 0 basechar 0
AnchorPoint: "Anchor-10" 289 0 basechar 0
LayerCount: 2
Back
Fore
SplineSet
484 526 m 1xb8
 484 0 l 1
 412 0 l 1x78
 405 85 l 1
 366 21 316 -12 240 -12 c 0
 147 -12 93 46 93 149 c 2
 93 526 l 1
 177 526 l 1
 177 158 l 2
 177 83 203 55 263 55 c 0
 323 55 367 94 400 149 c 1
 400 526 l 1
 484 526 l 1xb8
EndSplineSet
Substitution2: "'smcp' Lowercase to Small Capitals lookup 27 subtable" u.sc
Substitution2: "'aalt' Access All Alternates lookup 0 subtable" u.sc
EndChar
StartChar: v
Encoding: 118 118 690
Width: 487
GlyphClass: 2
Flags: MW
HStem: 0 21G<194 296 194 194> 0 75<246 246 246 296 194 246> 506 20G<11 103 103 103 387 476 476 476>
VStem: 11 465<526 526>
AnchorPoint: "Anchor-14" 0 0 basechar 0
AnchorPoint: "Anchor-13" 0 0 basechar 0
AnchorPoint: "Anchor-12" 245 526 basechar 0
AnchorPoint: "Anchor-11" 0 0 basechar 0
AnchorPoint: "Anchor-10" 246 0 basechar 0
LayerCount: 2
Back
Fore
SplineSet
476 526 m 1xb0
 296 0 l 1
 194 0 l 1
 11 526 l 1
 103 526 l 1
 246 75 l 1x70
 387 526 l 1
 476 526 l 1xb0
EndSplineSet
Substitution2: "'smcp' Lowercase to Small Capitals lookup 27 subtable" v.sc
Substitution2: "'aalt' Access All Alternates lookup 0 subtable" v.sc
EndChar
StartChar: w
Encoding: 119 119 694
Width: 713
GlyphClass: 2
Flags: MW
HStem: 0 59<205 205 205 258> 450 76<358 358> 506 20G<21 106 106 106 313 407 407 407 611 691 691 691>
VStem: 21 670<526 526>
AnchorPoint: "Anchor-14" 0 0 basechar 0
AnchorPoint: "Anchor-13" 0 0 basechar 0
AnchorPoint: "Anchor-12" 357 526 basechar 0
AnchorPoint: "Anchor-11" 0 0 basechar 0
AnchorPoint: "Anchor-10" 357 0 basechar 0
LayerCount: 2
Back
Fore
SplineSet
691 526 m 1xb0
 570 0 l 1
 455 0 l 1
 358 450 l 1xd0
 258 0 l 1
 146 0 l 1
 21 526 l 1
 106 526 l 1
 205 59 l 1
 313 526 l 1
 407 526 l 1
 511 59 l 1
 611 526 l 1
 691 526 l 1xb0
EndSplineSet
Substitution2: "'smcp' Lowercase to Small Capitals lookup 27 subtable" w.sc
Substitution2: "'aalt' Access All Alternates lookup 0 subtable" w.sc
EndChar
StartChar: x
Encoding: 120 120 702
Width: 479
GlyphClass: 2
Flags: MW
HStem: 0 21G<6 101 6 6 371 473 371 371> 506 20G<28 126 126 126 356 451 451 451>
VStem: 6 467<0 0>
AnchorPoint: "Anchor-14" 0 0 basechar 0
AnchorPoint: "Anchor-13" 0 0 basechar 0
AnchorPoint: "Anchor-12" 242 526 basechar 0
AnchorPoint: "Anchor-11" 0 0 basechar 0
AnchorPoint: "Anchor-10" 236 0 basechar 0
LayerCount: 2
Back
Fore
SplineSet
289 282 m 1
 473 0 l 1
 371 0 l 1
 237 228 l 1
 101 0 l 1
 6 0 l 1
 190 278 l 1
 28 526 l 1
 126 526 l 1
 241 329 l 1
 356 526 l 1
 451 526 l 1
 289 282 l 1
EndSplineSet
Substitution2: "'smcp' Lowercase to Small Capitals lookup 27 subtable" x.sc
Substitution2: "'sups' Superscript lookup 14 subtable" uni02E3
AlternateSubs2: "'aalt' Access All Alternates lookup 1 subtable" uni02E3 x.sc
EndChar

StartChar: y
Encoding: 121 121 257
Width: 486
GlyphClass: 2
Flags: MW
HStem: -211 21G<61 61> 0 21G<189 218 189 189> 506 20G<11 101 101 101 388 475 475 475>
VStem: 11 464<526 526>
AnchorPoint: "Anchor-11" 0 0 basechar 0
AnchorPoint: "Anchor-10" 0 0 basechar 0
AnchorPoint: "Anchor-9" 242 526 basechar 0
AnchorPoint: "Anchor-8" 0 0 basechar 0
LayerCount: 2
Fore
SplineSet
298 -3 m 2
 261 -115 202 -193 61 -211 c 1
 51 -145 l 1
 158 -125 187 -84 218 0 c 1
 189 0 l 1
 11 526 l 1
 101 526 l 1
 246 61 l 1
 388 526 l 1
 475 526 l 1
 298 -3 l 2
EndSplineSet
Substitution2: "'smcp' Lowercase to Small Capitals lookup 24 subtable" y.sc
Substitution2: "'aalt' Access All Alternates lookup 0 subtable" y.sc
EndChar

StartChar: braceleft
Encoding: 123 123 1003
Width: 323
Flags: MW
HStem: -134 64<240 273 240 273> 314 70<30 56> 769 65<240 273>
VStem: 101 79<9 239 239 243 461 691 691 699>
LayerCount: 2
Fore
SplineSet
273 769 m 1
 207 769 180 750 180 699 c 2
 180 456 l 2
 180 384 153 364 105 349 c 1
 153 334 180 315 180 243 c 2
 180 1 l 2
 180 -50 207 -70 273 -70 c 1
 273 -134 l 1
 147 -134 101 -92 101 9 c 2
 101 239 l 2
 101 293 82 314 30 314 c 1
 30 384 l 1
 82 384 101 406 101 461 c 2
 101 691 l 2
 101 792 147 834 273 834 c 1
 273 769 l 1
EndSplineSet
Substitution2: "'case' Case-Sensitive Forms lookup 25 subtable" braceleft.case
Substitution2: "'aalt' Access All Alternates lookup 0 subtable" braceleft.case
EndChar

StartChar: bar
Encoding: 124 124 1216
Width: 404
Flags: MW
HStem: -102 908<164 240 164 240>
VStem: 164 76<-102 806>
LayerCount: 2
Fore
SplineSet
240 -102 m 1
 164 -102 l 1
 164 806 l 1
 240 806 l 1
 240 -102 l 1
EndSplineSet
EndChar
StartChar: braceright
Encoding: 125 125 2141
Width: 323
Flags: MW
HStem: -134 64<50 83 50 113> 314 70<267 293> 769 65<50 83>
VStem: 143 79<1 9 9 239 456 461 461 691>
LayerCount: 2
Back
Fore
SplineSet
50 834 m 1
 176 834 222 792 222 691 c 2
 222 461 l 2
 222 406 241 384 293 384 c 1
 293 314 l 1
 241 314 222 293 222 239 c 2
 222 9 l 2
 222 -92 176 -134 50 -134 c 1
 50 -70 l 1
 116 -70 143 -50 143 1 c 2
 143 243 l 2
 143 315 170 334 218 349 c 1
 170 364 143 384 143 456 c 2
 143 699 l 2
 143 750 116 769 50 769 c 1
 50 834 l 1
EndSplineSet
Substitution2: "'case' Case-Sensitive Forms lookup 28 subtable" braceright.case
Substitution2: "'aalt' Access All Alternates lookup 0 subtable" braceright.case
EndChar

StartChar: asciitilde
Encoding: 126 126 1087
Width: 484
Flags: MW
HStem: 253 68<301.5 339.5 301.5 351.5> 314 67<146.5 184>
VStem: 39 406<289 340>
LayerCount: 2
Fore
SplineSet
170 381 m 0x60
 244 381 280 321 323 321 c 0
 356 321 373 342 390 370 c 1
 445 340 l 1
 424 300 386 253 317 253 c 0xa0
 241 253 204 314 164 314 c 0
 129 314 111 288 95 260 c 1
 39 289 l 1
 60 329 99 381 170 381 c 0x60
EndSplineSet
Substitution2: "'onum' Oldstyle Figures lookup 22 subtable" asciitilde.osf
Substitution2: "'tnum' Tabular Numbers lookup 21 subtable" asciitilde.tf
AlternateSubs2: "'aalt' Access All Alternates lookup 1 subtable" asciitilde.tf asciitilde.osf
EndChar

StartChar: exclamdown
Encoding: 161 161 986
Width: 241
Flags: MW
HStem: -201 21G<76 168 76 76> 362 128<102.5 139>
VStem: 56 129<408 444> 80 83.5
LayerCount: 2
Fore
SplineSet
121 490 m 0xe0
 157 490 185 462 185 426 c 0
 185 390 157 362 121 362 c 0
 84 362 56 390 56 426 c 0
 56 462 84 490 121 490 c 0xe0
168 -201 m 1xd0
 76 -201 l 1
 84 248 l 1
 159 248 l 1
 168 -201 l 1xd0
EndSplineSet
Substitution2: "'case' Case-Sensitive Forms lookup 25 subtable" exclamdown.case
Substitution2: "'aalt' Access All Alternates lookup 0 subtable" exclamdown.case
EndChar
StartChar: sterling
Encoding: 163 163 2217
Width: 522
GlyphClass: 2
Flags: MW
HStem: 0 71<146 458> 324 56<59 125 59 125 208 417> 609 69<279.5 338.5>
VStem: 125 83<197 324 380 495>
LayerCount: 2
Back
Fore
SplineSet
208 196 m 2
 208 131 195 97 146 71 c 1
 468 71 l 1
 458 0 l 1
 43 0 l 1
 43 67 l 1
 109 93 125 118 125 197 c 2
 125 324 l 1
 59 324 l 1
 59 380 l 1
 125 380 l 1
 125 495 l 2
 125 600 190 678 310 678 c 0
 382 678 438 653 485 597 c 1
 429 555 l 1
 398 592 364 609 313 609 c 0
 246 609 208 568 208 495 c 2
 208 380 l 1
 417 380 l 1
 417 324 l 1
 208 324 l 1
 208 196 l 2
EndSplineSet
Substitution2: "'onum' Oldstyle Figures lookup 25 subtable" sterling.osf
Substitution2: "'tnum' Tabular Numbers lookup 24 subtable" sterling.tf
AlternateSubs2: "'aalt' Access All Alternates lookup 1 subtable" sterling.tf sterling.osf
EndChar
StartChar: yen
Encoding: 165 165 2238
Width: 530
GlyphClass: 2
Flags: MW
HStem: 0 194<84 308 84 222> 137 57<84 222 84 222 308 446> 287 57<84 199 84 222 84 199 332 446>
VStem: 222 86<0 137 0 137 194 287>
LayerCount: 2
Back
Fore
SplineSet
523 668 m 1x70
 332 344 l 1
 446 344 l 1
 446 287 l 1
 308 287 l 1
 308 194 l 1
 446 194 l 1
 446 137 l 1
 308 137 l 1x70
 308 0 l 1
 222 0 l 1xb0
 222 137 l 1
 84 137 l 1
 84 194 l 1
 222 194 l 1
 222 287 l 1
 84 287 l 1
 84 344 l 1
 199 344 l 1
 7 668 l 1
 100 668 l 1
 268 369 l 1
 434 668 l 1
 523 668 l 1x70
EndSplineSet
Substitution2: "'onum' Oldstyle Figures lookup 25 subtable" yen.osf
Substitution2: "'tnum' Tabular Numbers lookup 24 subtable" yen.tf
AlternateSubs2: "'aalt' Access All Alternates lookup 1 subtable" yen.tf yen.osf
EndChar

StartChar: brokenbar
Encoding: 166 166 1217
Width: 404
Flags: MW
HStem: 717 20G<164 240 240 240>
VStem: 164 76<-32 332 373 737>
LayerCount: 2
Fore
SplineSet
240 373 m 1
 164 373 l 1
 164 737 l 1
 240 737 l 1
 240 373 l 1
240 -32 m 1
 164 -32 l 1
 164 332 l 1
 240 332 l 1
 240 -32 l 1
EndSplineSet
EndChar
StartChar: dieresis
Encoding: 168 168 2529
Width: 372
Flags: MW
HStem: 656 106<68.5 99 273 303.5>
VStem: 30 107<694 724> 235 107<694 724>
LayerCount: 2
Back
Fore
SplineSet
84 762 m 0
 114 762 137 739 137 709 c 0
 137 679 114 656 84 656 c 0
 53 656 30 679 30 709 c 0
 30 739 53 762 84 762 c 0
288 762 m 0
 319 762 342 739 342 709 c 0
 342 679 319 656 288 656 c 0
 258 656 235 679 235 709 c 0
 235 739 258 762 288 762 c 0
EndSplineSet
Substitution2: "Single Substitution lookup 41 subtable" dieresis.case
Substitution2: "'case' Case-Sensitive Forms lookup 28 subtable" dieresis.case
Substitution2: "'smcp' Lowercase to Small Capitals lookup 27 subtable" dieresis.sc
Substitution2: "'c2sc' Capitals to Small Capitals lookup 26 subtable" dieresis.sc
AlternateSubs2: "'aalt' Access All Alternates lookup 1 subtable" dieresis.sc dieresis.case
EndChar

StartChar: copyright
Encoding: 169 169 1221
Width: 810
Flags: MW
HStem: 124 50<333.5 478 333.5 491.5> 247 59<384 429 384 435.5> 567 56<386 425.5> 696 49<333.5 478>
VStem: 96 57<361 507 361 521> 248 70<391 483 391 497> 658 56<361.5 507.5>
LayerCount: 2
Fore
SplineSet
406 745 m 0
 577 745 714 608 714 434 c 0
 714 262 577 124 406 124 c 0
 233 124 96 261 96 434 c 0
 96 608 233 745 406 745 c 0
406 696 m 0
 261 696 153 580 153 434 c 0
 153 288 261 174 406 174 c 0
 550 174 658 289 658 434 c 0
 658 581 550 696 406 696 c 0
408 623 m 0
 457 623 489 608 521 584 c 1
 487 539 l 1
 464 558 440 567 411 567 c 0
 361 567 318 531 318 435 c 0
 318 347 357 306 411 306 c 0
 447 306 471 318 495 336 c 1
 525 292 l 1
 498 268 462 247 409 247 c 0
 315 247 248 314 248 435 c 0
 248 559 323 623 408 623 c 0
EndSplineSet
EndChar
StartChar: ordfeminine
Encoding: 170 170 1050
Width: 500
GlyphClass: 2
Flags: MW
HStem: 0 71<73 444 73 444> 272 61<201 229> 473 51<255 264 264 317> 624 64<221.5 261.5>
VStem: 68 86<376.5 423 376.5 435.5> 317 82<388 473 473 473 524 550 550 555>
LayerCount: 2
Back
Fore
SplineSet
255 524 m 2
 317 524 l 1
 317 550 l 2
 317 605 291 624 232 624 c 0
 201 624 161 617 119 603 c 1
 99 660 l 1
 150 679 198 688 245 688 c 0
 352 688 399 640 399 555 c 2
 399 382 l 2
 399 347 411 336 432 328 c 1
 414 273 l 1
 371 278 343 293 330 332 c 1
 301 290 255 272 203 272 c 0
 119 272 68 321 68 393 c 0
 68 478 137 524 255 524 c 2
223 333 m 0
 265 333 295 353 317 388 c 1
 317 473 l 1
 264 473 l 2
 192 473 154 449 154 397 c 0
 154 356 179 333 223 333 c 0
73 71 m 1
 444 71 l 1
 444 0 l 1
 73 0 l 1
 73 71 l 1
EndSplineSet
EndChar

StartChar: guillemotleft
Encoding: 171 171 1034
Width: 570
Flags: MW
HStem: 511 20G<231 231 461 461>
VStem: 59 452<78 315 78 315>
LayerCount: 2
Fore
SplineSet
282 497 m 1
 146 287 l 1
 282 78 l 1
 231 43 l 1
 59 258 l 1
 59 315 l 1
 231 531 l 1
 282 497 l 1
511 497 m 1
 376 287 l 1
 511 78 l 1
 461 43 l 1
 289 258 l 1
 289 315 l 1
 461 531 l 1
 511 497 l 1
EndSplineSet
Substitution2: "'case' Case-Sensitive Forms lookup 25 subtable" guillemotleft.case
Substitution2: "'aalt' Access All Alternates lookup 0 subtable" guillemotleft.case
EndChar
StartChar: logicalnot
Encoding: 172 172 2261
Width: 500
GlyphClass: 2
Flags: MW
HStem: 287 71<64 360 64 436>
VStem: 360 76<147 287 287 287>
LayerCount: 2
Back
Fore
SplineSet
436 358 m 1
 436 147 l 1
 360 147 l 1
 360 287 l 1
 64 287 l 1
 64 358 l 1
 436 358 l 1
EndSplineSet
Substitution2: "'onum' Oldstyle Figures lookup 25 subtable" logicalnot.osf
Substitution2: "'tnum' Tabular Numbers lookup 24 subtable" logicalnot.tf
AlternateSubs2: "'aalt' Access All Alternates lookup 1 subtable" logicalnot.tf logicalnot.osf
EndChar

StartChar: softhyphen
Encoding: 173 173 1026
Width: 402
Flags: MW
HStem: 277 72<62 341 62 341>
VStem: 62 279<277 349 277 349>
LayerCount: 2
Fore
SplineSet
62 349 m 1
 341 349 l 1
 341 277 l 1
 62 277 l 1
 62 349 l 1
EndSplineSet
Substitution2: "'case' Case-Sensitive Forms lookup 25 subtable" softhyphen.case
Substitution2: "'aalt' Access All Alternates lookup 0 subtable" softhyphen.case
EndChar
StartChar: uni00AD
Encoding: 173 173 2168
Width: 402
Flags: MW
HStem: 277 72<62 341 62 341>
VStem: 62 279<277 349 277 349>
LayerCount: 2
Back
Fore
SplineSet
62 277 m 1
 62 349 l 1
 341 349 l 1
 341 277 l 1
 62 277 l 1
EndSplineSet
Substitution2: "'case' Case-Sensitive Forms lookup 28 subtable" uni00AD.case
Substitution2: "'aalt' Access All Alternates lookup 0 subtable" uni00AD.case
EndChar
StartChar: registered
Encoding: 174 174 2376
Width: 641
GlyphClass: 2
Flags: MW
HStem: 242 46<262.5 377.5 262.5 390.5> 467 42<283 311 283 316> 593 42<283 283 283 306 306 313> 701 46<262.5 377.5>
VStem: 70 51<436.5 551 436.5 563.5> 230 53<360 467 360 509 509 593> 371 55<536.5 567> 519 52<436.5 551.5>
LayerCount: 2
Back
Fore
SplineSet
319 747 m 0
 462 747 571 634 571 494 c 0
 571 354 462 242 319 242 c 0
 180 242 70 353 70 494 c 0
 70 633 180 747 319 747 c 0
319 288 m 0
 436 288 519 379 519 494 c 0
 519 609 436 701 319 701 c 0
 206 701 121 608 121 494 c 0
 121 379 206 288 319 288 c 0
426 552 m 0
 426 512 398 487 361 476 c 1
 435 360 l 1
 372 360 l 1
 311 467 l 1
 283 467 l 1
 283 360 l 1
 230 360 l 1
 230 635 l 1
 306 635 l 2
 387 635 426 608 426 552 c 0
283 593 m 1
 283 509 l 1
 316 509 l 2
 349 509 371 521 371 552 c 0
 371 582 352 593 313 593 c 2
 283 593 l 1
EndSplineSet
EndChar
StartChar: macron
Encoding: 175 175 2535
Width: 325
Flags: MW
HStem: 669 64<30 295 30 295>
VStem: 30 265<669 733 669 733>
LayerCount: 2
Back
Fore
SplineSet
295 669 m 1
 30 669 l 1
 30 733 l 1
 295 733 l 1
 295 669 l 1
EndSplineSet
Substitution2: "Single Substitution lookup 41 subtable" macron.case
Substitution2: "'case' Case-Sensitive Forms lookup 28 subtable" macron.case
Substitution2: "'smcp' Lowercase to Small Capitals lookup 27 subtable" macron.sc
Substitution2: "'c2sc' Capitals to Small Capitals lookup 26 subtable" macron.sc
AlternateSubs2: "'aalt' Access All Alternates lookup 1 subtable" macron.sc macron.case
EndChar
StartChar: degree
Encoding: 176 176 2379
Width: 522
GlyphClass: 2
Flags: MW
HStem: 384 58<195.5 243.5 195.5 260.5> 641 59<195.5 243.5>
VStem: 58 71<508.5 575.5 508.5 592.5> 309 71<508 574>
LayerCount: 2
Back
Fore
SplineSet
219 384 m 0
 138 384 58 441 58 542 c 0
 58 643 138 700 219 700 c 0
 302 700 380 642 380 541 c 0
 380 440 302 384 219 384 c 0
219 442 m 0
 268 442 309 475 309 541 c 0
 309 607 268 641 219 641 c 0
 172 641 129 609 129 542 c 0
 129 475 172 442 219 442 c 0
EndSplineSet
Substitution2: "'onum' Oldstyle Figures lookup 25 subtable" degree.osf
Substitution2: "'tnum' Tabular Numbers lookup 24 subtable" degree.tf
AlternateSubs2: "'aalt' Access All Alternates lookup 1 subtable" degree.tf degree.osf
EndChar

StartChar: plusminus
Encoding: 177 177 1115
Width: 498
Flags: MW
HStem: 0 71<64 435 64 435> 316 70<65 211 65 211 288 435> 516 20G<211 288 288 288>
VStem: 211 77<166 316 166 316 386 536>
LayerCount: 2
Fore
SplineSet
288 386 m 1
 435 386 l 1
 435 316 l 1
 288 316 l 1
 288 166 l 1
 211 166 l 1
 211 316 l 1
 65 316 l 1
 65 386 l 1
 211 386 l 1
 211 536 l 1
 288 536 l 1
 288 386 l 1
64 71 m 1
 435 71 l 1
 435 0 l 1
 64 0 l 1
 64 71 l 1
EndSplineSet
Substitution2: "'onum' Oldstyle Figures lookup 22 subtable" plusminus.osf
Substitution2: "'tnum' Tabular Numbers lookup 21 subtable" plusminus.tf
AlternateSubs2: "'aalt' Access All Alternates lookup 1 subtable" plusminus.tf plusminus.osf
EndChar

StartChar: twosuperior
Encoding: 178 178 970
Width: 400
Flags: MW
HStem: 322 58<150 334> 687 58<172 210>
VStem: 257 74<592 642.5>
LayerCount: 2
Fore
SplineSet
195 745 m 0
 281 745 331 694 331 627 c 0
 331 557 287 506 150 380 c 1
 342 380 l 1
 334 322 l 1
 69 322 l 1
 69 376 l 1
 221 524 257 563 257 621 c 0
 257 664 230 687 190 687 c 0
 154 687 130 674 103 643 c 1
 58 678 l 1
 93 721 138 745 195 745 c 0
EndSplineSet
EndChar
StartChar: uni00B3
Encoding: 179 179 2105
Width: 400
Flags: MW
HStem: 313 57<170.5 213.5 170.5 239> 514 29 514 52<164 186 186 188 155 186> 690 55<175 213>
VStem: 261 71<614.5 650.5> 271 74<421 470>
LayerCount: 2
Back
Fore
SplineSet
198 745 m 0xb8
 284 745 332 698 332 641 c 0xd8
 332 588 297 555 246 543 c 1xd4
 301 538 345 506 345 440 c 0
 345 369 287 313 191 313 c 0
 134 313 88 334 55 372 c 1
 96 411 l 1
 124 382 153 370 188 370 c 0
 239 370 271 398 271 444 c 0
 271 496 239 514 188 514 c 2xb4
 155 514 l 1
 164 566 l 1
 186 566 l 2
 227 566 261 588 261 632 c 0
 261 669 234 690 192 690 c 0
 158 690 132 679 103 653 c 1
 66 694 l 1
 104 728 146 745 198 745 c 0xb8
EndSplineSet
EndChar
StartChar: acute
Encoding: 180 180 2511
Width: 294
Flags: MW
HStem: 640 157
VStem: 30 234<685 725>
LayerCount: 2
Back
Fore
SplineSet
226 797 m 1
 264 725 l 1
 56 640 l 1
 30 685 l 1
 226 797 l 1
EndSplineSet
Substitution2: "Single Substitution lookup 41 subtable" acute.case
Substitution2: "'case' Case-Sensitive Forms lookup 28 subtable" acute.case
Substitution2: "'smcp' Lowercase to Small Capitals lookup 27 subtable" acute.sc
Substitution2: "'c2sc' Capitals to Small Capitals lookup 26 subtable" acute.sc
Substitution2: "'locl' Localized Forms in Latin lookup 7 subtable" acute.loclPLK
AlternateSubs2: "'aalt' Access All Alternates lookup 1 subtable" acute.loclPLK acute.sc acute.case
EndChar

StartChar: uni00B5
Encoding: 181 181 1104
Width: 587
Flags: MW
HStem: -211 21G<98 98> -201 21G<181 181> -12 73<244.5 290 242 297> -1 21G<510 510> 506 20G<98 182 182 182 399 483 483 483>
VStem: 98 84<119.5 155 155 526> 399 84<160 179 179 526>
LayerCount: 2
Fore
SplineSet
431 -11 m 1x6e
 414 28 411 53 407 90 c 1
 378 40 330 -12 264 -12 c 0
 225 -12 184 2 165 42 c 1
 176 3 181 -31 181 -92 c 2
 181 -201 l 1x6e
 98 -211 l 1
 98 526 l 1
 182 526 l 1
 182 155 l 2
 182 84 219 61 265 61 c 0
 315 61 362 89 399 160 c 1xae
 399 526 l 1
 483 526 l 1
 483 179 l 2
 483 100 495 44 510 -1 c 1x5e
 431 -11 l 1x6e
EndSplineSet
EndChar
StartChar: paragraph
Encoding: 182 182 2374
Width: 728
GlyphClass: 2
Flags: MW
HStem: -213 21G<316 316 509 509> -201 21G<392 392 585 585> 620 68
VStem: 316 76<-201 285 285 285> 509 76<-201 620 620 620>
LayerCount: 2
Back
Fore
SplineSet
335 687 m 2x78
 585 688 l 1
 585 -201 l 1x78
 509 -213 l 1xb8
 509 620 l 1
 392 620 l 1
 392 -201 l 1x78
 316 -213 l 1xb8
 316 285 l 1
 158 292 93 376 93 486 c 0
 93 615 186 687 335 687 c 2x78
EndSplineSet
EndChar
StartChar: cedilla
Encoding: 184 184 2527
Width: 268
Flags: MW
HStem: -238 56<103 130 103 151> -214 21G<30 30> -98 114<91 110>
VStem: 84.5 60.5 167 71<-155.5 -127>
LayerCount: 2
Back
Fore
SplineSet
145 16 m 1x70
 145 -58 l 1x70
 213 -64 238 -100 238 -141 c 0
 238 -205 184 -238 118 -238 c 0xb8
 81 -238 50 -229 30 -214 c 1x70
 53 -166 l 1
 72 -176 90 -182 116 -182 c 0
 144 -182 167 -170 167 -141 c 0xb8
 167 -113 142 -98 78 -98 c 1
 91 16 l 1
 145 16 l 1x70
EndSplineSet
Substitution2: "Single Substitution lookup 41 subtable" cedilla.case
Substitution2: "'case' Case-Sensitive Forms lookup 28 subtable" cedilla.case
Substitution2: "'smcp' Lowercase to Small Capitals lookup 27 subtable" cedilla.sc
Substitution2: "'c2sc' Capitals to Small Capitals lookup 26 subtable" cedilla.sc
AlternateSubs2: "'aalt' Access All Alternates lookup 1 subtable" cedilla.sc cedilla.case
EndChar
StartChar: uni00B9
Encoding: 185 185 2103
Width: 400
Flags: MW
HStem: 718 20G<207 270 270 270>
VStem: 199 71<322 665 665 665>
LayerCount: 2
Back
Fore
SplineSet
270 738 m 1
 270 322 l 1
 199 322 l 1
 199 665 l 1
 100 607 l 1
 69 656 l 1
 207 738 l 1
 270 738 l 1
EndSplineSet
EndChar
StartChar: ordmasculine
Encoding: 186 186 1051
Width: 500
GlyphClass: 2
Flags: MW
HStem: 0 71<64 435 64 435> 272 63<216.5 283.5 216.5 310> 624 64<217 284.5>
VStem: 59 87<431 529.5 431 542.5> 354 87<430.5 529.5>
LayerCount: 2
Back
Fore
SplineSet
251 688 m 0
 371 688 441 610 441 480 c 0
 441 355 370 272 250 272 c 0
 129 272 59 351 59 480 c 0
 59 605 130 688 251 688 c 0
251 624 m 0
 183 624 146 579 146 480 c 0
 146 382 183 335 250 335 c 0
 317 335 354 381 354 480 c 0
 354 579 318 624 251 624 c 0
64 0 m 1
 64 71 l 1
 435 71 l 1
 435 0 l 1
 64 0 l 1
EndSplineSet
EndChar
StartChar: guillemotright
Encoding: 187 187 2176
Width: 561
Flags: MW
HStem: 511 20G<109 109 330 330>
VStem: 59 443<78 315 258 497>
LayerCount: 2
Back
Fore
SplineSet
109 531 m 1
 282 315 l 1
 282 258 l 1
 109 43 l 1
 59 78 l 1
 194 287 l 1
 59 497 l 1
 109 531 l 1
330 531 m 1
 502 315 l 1
 502 258 l 1
 330 43 l 1
 280 78 l 1
 415 287 l 1
 280 497 l 1
 330 531 l 1
EndSplineSet
Substitution2: "'case' Case-Sensitive Forms lookup 28 subtable" guillemotright.case
Substitution2: "'aalt' Access All Alternates lookup 0 subtable" guillemotright.case
EndChar
StartChar: onequarter
Encoding: 188 188 2060
Width: 928
Flags: MW
HStem: 0 153<759 760 647 829 759 759> 98 55<647 759 829 883> 668 20G<207 270 270 270> 729 20G<640 640>
VStem: 199 71<272 615 615 615> 759 70<0 98 0 98>
LayerCount: 2
Back
Fore
SplineSet
640 749 m 1xbc
 695 723 l 1
 288 -76 l 1
 233 -50 l 1
 640 749 l 1xbc
270 272 m 1
 199 272 l 1
 199 615 l 1
 100 557 l 1
 69 606 l 1
 207 688 l 1
 270 688 l 1
 270 272 l 1
883 153 m 1
 883 98 l 1
 829 98 l 1x7c
 829 0 l 1
 759 0 l 1xbc
 759 98 l 1
 572 98 l 1
 572 148 l 1x7c
 701 423 l 1
 762 400 l 1
 647 153 l 1
 760 153 l 1
 766 261 l 1
 829 261 l 1
 829 153 l 1
 883 153 l 1
EndSplineSet
EndChar
StartChar: onehalf
Encoding: 189 189 2057
Width: 928
Flags: MW
HStem: 0 58<678 862> 365 58<700 738> 668 20G<207 270 270 270> 729 20G<640 640>
VStem: 199 71<272 615 615 615> 785 74<270 320.5>
LayerCount: 2
Back
Fore
SplineSet
640 749 m 1
 695 723 l 1
 288 -76 l 1
 233 -50 l 1
 640 749 l 1
270 688 m 1
 270 272 l 1
 199 272 l 1
 199 615 l 1
 100 557 l 1
 69 606 l 1
 207 688 l 1
 270 688 l 1
723 423 m 0
 809 423 859 372 859 305 c 0
 859 235 815 184 678 58 c 1
 870 58 l 1
 862 0 l 1
 597 0 l 1
 597 54 l 1
 749 202 785 241 785 299 c 0
 785 342 758 365 718 365 c 0
 682 365 658 352 631 321 c 1
 586 356 l 1
 621 399 666 423 723 423 c 0
EndSplineSet
EndChar

StartChar: threequarters
Encoding: 190 190 927
Width: 928
Flags: MW
HStem: 0 153<759 760 647 829 759 759> 98 55<647 759 829 883> 263 57<170.5 213.5 170.5 239> 464 52<164 186 186 188 155 186> 640 55<175 213> 729 20G<640 640>
VStem: 261 71<564.5 600.5> 271 74<371 420> 759 70<0 98 0 98>
LayerCount: 2
Fore
SplineSet
695 723 m 1xbd80
 288 -76 l 1
 233 -50 l 1
 640 749 l 1
 695 723 l 1xbd80
345 390 m 0
 345 319 287 263 191 263 c 0
 134 263 88 284 55 322 c 1
 96 361 l 1
 124 332 153 320 188 320 c 0
 239 320 271 348 271 394 c 0
 271 446 239 464 188 464 c 2xbd80
 155 464 l 1
 164 516 l 1
 186 516 l 2
 227 516 261 538 261 582 c 0
 261 619 234 640 192 640 c 0
 158 640 132 629 103 603 c 1
 66 644 l 1
 104 678 146 695 198 695 c 0
 284 695 332 648 332 591 c 0xbe80
 332 538 297 505 246 493 c 1
 301 488 345 456 345 390 c 0
883 98 m 1x7d80
 829 98 l 1x7d80
 829 0 l 1
 759 0 l 1xbd80
 759 98 l 1
 572 98 l 1
 572 148 l 1x7d80
 701 423 l 1
 762 400 l 1
 647 153 l 1
 760 153 l 1
 766 261 l 1
 829 261 l 1
 829 153 l 1
 883 153 l 1xbd80
 883 98 l 1x7d80
EndSplineSet
EndChar

StartChar: questiondown
Encoding: 191 191 990
Width: 456
Flags: MW
HStem: -213 70<192.5 250.5 192.5 260> 362 128<234.5 271>
VStem: 33 87<-82.5 0.5 -82.5 19> 188 129<408 444> 214 83<205 248 120 248>
LayerCount: 2
Fore
SplineSet
253 362 m 0xf0
 216 362 188 390 188 426 c 0
 188 462 216 490 253 490 c 0
 289 490 317 462 317 426 c 0
 317 390 289 362 253 362 c 0xf0
219 -213 m 0
 97 -213 33 -139 33 -60 c 0
 33 98 214 78 214 205 c 2
 214 248 l 1
 297 248 l 1
 297 201 l 2xa8
 297 39 120 56 120 -55 c 0
 120 -110 161 -143 224 -143 c 0
 277 -143 324 -121 366 -71 c 1
 424 -115 l 1
 367 -181 301 -213 219 -213 c 0
EndSplineSet
Substitution2: "'case' Case-Sensitive Forms lookup 25 subtable" questiondown.case
Substitution2: "'aalt' Access All Alternates lookup 0 subtable" questiondown.case
EndChar

StartChar: Agrave
Encoding: 192 192 6
Width: 571
GlyphClass: 2
Flags: MW
HStem: 0 21G<8 96 8 8 471 471 471 563> 176 71<171 396 171 418 150 396> 616 72<284 284> 668 20G<231 341 341 341>
VStem: 8 555<0 0>
AnchorPoint: "Anchor-11" 0 0 basechar 0
AnchorPoint: "Anchor-10" 144 688 basechar 0
AnchorPoint: "Anchor-9" 286 688 basechar 0
AnchorPoint: "Anchor-8" 538 0 basechar 0
LayerCount: 2
Fore
SplineSet
372 756 m 1xd8
 160 834 l 1
 196 906 l 1
 394 801 l 1
 372 756 l 1xd8
418 176 m 1
 150 176 l 1
 96 0 l 1
 8 0 l 1
 231 688 l 1
 341 688 l 1
 563 0 l 1
 471 0 l 1
 418 176 l 1
396 247 m 1
 284 616 l 1xe8
 171 247 l 1
 396 247 l 1
EndSplineSet
Substitution2: "'c2sc' Capitals to Small Capitals lookup 23 subtable" agrave.sc
Substitution2: "'aalt' Access All Alternates lookup 0 subtable" agrave.sc
Position2: "'cpsp' Capital Spacing lookup 0 subtable" dx=5 dy=0 dh=10 dv=0
EndChar

StartChar: Acircumflex
Encoding: 194 194 4
Width: 571
GlyphClass: 2
Flags: MW
HStem: 0 21G<8 96 8 8 471 471 471 563> 176 71<171 396 171 418 150 396> 616 72<284 284> 668 20G<231 341 341 341> 841 68<286 286>
VStem: 8 555<0 0>
AnchorPoint: "Anchor-11" 0 0 basechar 0
AnchorPoint: "Anchor-10" 144 688 basechar 0
AnchorPoint: "Anchor-9" 286 688 basechar 0
AnchorPoint: "Anchor-8" 538 0 basechar 0
LayerCount: 2
Fore
SplineSet
161 760 m 1xdc
 124 801 l 1
 259 909 l 1
 314 909 l 1
 447 801 l 1
 411 760 l 1
 286 841 l 1
 161 760 l 1xdc
418 176 m 1
 150 176 l 1
 96 0 l 1
 8 0 l 1
 231 688 l 1
 341 688 l 1
 563 0 l 1
 471 0 l 1
 418 176 l 1
396 247 m 1
 284 616 l 1xec
 171 247 l 1
 396 247 l 1
EndSplineSet
Substitution2: "'c2sc' Capitals to Small Capitals lookup 23 subtable" acircumflex.sc
Substitution2: "'aalt' Access All Alternates lookup 0 subtable" acircumflex.sc
Position2: "'cpsp' Capital Spacing lookup 0 subtable" dx=5 dy=0 dh=10 dv=0
EndChar

StartChar: Atilde
Encoding: 195 195 10
Width: 571
GlyphClass: 2
Flags: MW
HStem: 0 21G<8 96 8 8 471 471 471 563> 176 71<171 396 171 418 150 396> 616 72<284 284> 668 20G<231 341 341 341> 784 65<325.5 354 325.5 367> 832 64<216 246>
VStem: 8 555<0 0>
AnchorPoint: "Anchor-11" 0 0 basechar 0
AnchorPoint: "Anchor-10" 144 688 basechar 0
AnchorPoint: "Anchor-9" 286 688 basechar 0
AnchorPoint: "Anchor-8" 538 0 basechar 0
LayerCount: 2
Fore
SplineSet
228 832 m 0xd6
 204 832 191 817 174 787 c 1
 123 813 l 1
 146 860 180 896 229 896 c 0xd6
 281 896 307 849 344 849 c 0
 364 849 379 863 398 893 c 1
 449 867 l 1
 424 812 387 784 347 784 c 0xda
 289 784 264 832 228 832 c 0xd6
418 176 m 1
 150 176 l 1
 96 0 l 1
 8 0 l 1
 231 688 l 1
 341 688 l 1
 563 0 l 1
 471 0 l 1
 418 176 l 1
396 247 m 1
 284 616 l 1xe6
 171 247 l 1
 396 247 l 1
EndSplineSet
Substitution2: "'c2sc' Capitals to Small Capitals lookup 23 subtable" atilde.sc
Substitution2: "'aalt' Access All Alternates lookup 0 subtable" atilde.sc
Position2: "'cpsp' Capital Spacing lookup 0 subtable" dx=5 dy=0 dh=10 dv=0
EndChar

StartChar: Aring
Encoding: 197 197 9
Width: 571
GlyphClass: 2
Flags: MW
HStem: 0 21G<8 96 8 8 471 471 471 563> 176 71<171 396 171 418 150 396> 616 72<284 284> 668 20G<231 341 341 341> 752 47<269.5 302.5 269.5 318.5> 912 46<269.5 303>
VStem: 176 57<837.5 873 837.5 884> 340 57<837.5 873>
AnchorPoint: "Anchor-11" 0 0 basechar 0
AnchorPoint: "Anchor-10" 144 688 basechar 0
AnchorPoint: "Anchor-9" 286 688 basechar 0
AnchorPoint: "Anchor-8" 538 0 basechar 0
LayerCount: 2
Fore
SplineSet
286 752 m 0xdf
 221 752 176 797 176 855 c 0
 176 913 221 958 286 958 c 0
 351 958 397 913 397 855 c 0
 397 797 351 752 286 752 c 0xdf
286 912 m 0
 253 912 233 891 233 855 c 0
 233 820 253 799 286 799 c 0
 319 799 340 820 340 855 c 0
 340 891 320 912 286 912 c 0
418 176 m 1
 150 176 l 1
 96 0 l 1
 8 0 l 1
 231 688 l 1
 341 688 l 1
 563 0 l 1
 471 0 l 1
 418 176 l 1
396 247 m 1
 284 616 l 1xef
 171 247 l 1
 396 247 l 1
EndSplineSet
Substitution2: "'c2sc' Capitals to Small Capitals lookup 23 subtable" aring.sc
Substitution2: "'aalt' Access All Alternates lookup 0 subtable" aring.sc
Position2: "'cpsp' Capital Spacing lookup 0 subtable" dx=5 dy=0 dh=10 dv=0
EndChar

StartChar: AE
Encoding: 198 198 11
Width: 808
GlyphClass: 2
Flags: MW
HStem: 0 70<529 756 529 756> 176 70<172 401 172 417 146 401> 315 70<467 705 467 467> 618 70<391 704 391 391>
VStem: -10 766<0 70>
AnchorPoint: "Anchor-11" 0 0 basechar 0
AnchorPoint: "Anchor-10" 0 0 basechar 0
AnchorPoint: "Anchor-9" 470 688 basechar 0
AnchorPoint: "Anchor-8" 0 0 basechar 0
LayerCount: 2
Fore
SplineSet
756 70 m 1
 756 0 l 1
 459 0 l 1
 417 176 l 1
 146 176 l 1
 79 0 l 1
 -10 0 l 1
 263 688 l 1
 714 688 l 1
 704 618 l 1
 391 618 l 1
 450 385 l 1
 705 385 l 1
 705 315 l 1
 467 315 l 1
 529 70 l 1
 756 70 l 1
401 246 m 1
 313 619 l 1
 172 246 l 1
 401 246 l 1
EndSplineSet
Substitution2: "'c2sc' Capitals to Small Capitals lookup 23 subtable" ae.sc
Substitution2: "'aalt' Access All Alternates lookup 0 subtable" ae.sc
Position2: "'cpsp' Capital Spacing lookup 0 subtable" dx=5 dy=0 dh=10 dv=0
EndChar
StartChar: Ccedilla
Encoding: 199 199 47
Width: 558
GlyphClass: 2
Flags: MW
HStem: -238 56<330 357 330 378> -214 21G<257 257> -98 160<305 337> -11 73<315 315> -10 72<372 372> 628 72<293 372>
VStem: 58 92<243.5 449.5 243.5 461> 310 62 394 71<-155.5 -127>
AnchorPoint: "Anchor-14" 339 346 basechar 0
AnchorPoint: "Anchor-13" 0 0 basechar 0
AnchorPoint: "Anchor-12" 346 688 basechar 0
AnchorPoint: "Anchor-11" 0 0 basechar 0
AnchorPoint: "Anchor-10" 364 -238 basechar 0
LayerCount: 2
Back
Fore
SplineSet
537 64 m 1x4f
 503 29 448 -4 372 -10 c 1x4f
 372 -58 l 1x67
 440 -64 465 -100 465 -141 c 0
 465 -205 411 -238 345 -238 c 0x8f80
 308 -238 277 -229 257 -214 c 1x4f
 280 -166 l 1
 299 -176 317 -182 343 -182 c 0
 371 -182 394 -170 394 -141 c 0xa780
 394 -113 369 -98 305 -98 c 1x67
 315 -11 l 1x57
 164 3 58 126 58 344 c 0
 58 578 186 700 342 700 c 0
 427 700 475 676 529 633 c 1
 482 577 l 1
 438 612 397 628 347 628 c 0
 239 628 150 555 150 344 c 0
 150 143 236 62 346 62 c 0
 412 62 454 90 493 120 c 1
 537 64 l 1x4f
EndSplineSet
Substitution2: "'c2sc' Capitals to Small Capitals lookup 26 subtable" ccedilla.sc
Substitution2: "'aalt' Access All Alternates lookup 0 subtable" ccedilla.sc
Position2: "'cpsp' Capital Spacing lookup 0 subtable" dx=5 dy=0 dh=10 dv=0
EndChar

StartChar: Edieresis
Encoding: 203 203 29
Width: 530
GlyphClass: 2
Flags: MW
HStem: 0 70<189 477 189 477> 316 70<189 424 189 424> 618 70<189 460 189 189> 782 106<171.5 202 376 406.5>
VStem: 103 86<70 316 386 618> 133 107<820 850> 338 107<820 850>
AnchorPoint: "Anchor-11" 290 0 basechar 0
AnchorPoint: "Anchor-10" 90 688 basechar 0
AnchorPoint: "Anchor-9" 289 797 basechar 0
AnchorPoint: "Anchor-8" 449 0 basechar 0
LayerCount: 2
Fore
SplineSet
187 888 m 0xf6
 217 888 240 865 240 835 c 0
 240 805 217 782 187 782 c 0
 156 782 133 805 133 835 c 0
 133 865 156 888 187 888 c 0xf6
391 888 m 0
 422 888 445 865 445 835 c 0
 445 805 422 782 391 782 c 0
 361 782 338 805 338 835 c 0
 338 865 361 888 391 888 c 0
460 618 m 1
 189 618 l 1
 189 386 l 1
 424 386 l 1
 424 316 l 1
 189 316 l 1
 189 70 l 1
 477 70 l 1
 477 0 l 1
 103 0 l 1
 103 688 l 1xe8
 470 688 l 1
 460 618 l 1
EndSplineSet
Substitution2: "'c2sc' Capitals to Small Capitals lookup 23 subtable" edieresis.sc
Substitution2: "'aalt' Access All Alternates lookup 0 subtable" edieresis.sc
Position2: "'cpsp' Capital Spacing lookup 0 subtable" dx=5 dy=0 dh=10 dv=0
EndChar
StartChar: Igrave
Encoding: 204 204 129
Width: 292
GlyphClass: 2
Flags: MW
HStem: 0 21G<103 189 103 103> 668 20G<103 189 189 189>
VStem: 103 86<0 688 0 688>
AnchorPoint: "Anchor-14" 0 0 basechar 0
AnchorPoint: "Anchor-13" 0 0 basechar 0
AnchorPoint: "Anchor-12" 146 906 basechar 0
AnchorPoint: "Anchor-11" 199 0 basechar 0
AnchorPoint: "Anchor-10" 146 0 basechar 0
LayerCount: 2
Back
Fore
SplineSet
56 906 m 1
 254 801 l 1
 232 756 l 1
 20 834 l 1
 56 906 l 1
189 688 m 1
 189 0 l 1
 103 0 l 1
 103 688 l 1
 189 688 l 1
EndSplineSet
Substitution2: "'c2sc' Capitals to Small Capitals lookup 26 subtable" igrave.sc
Substitution2: "'aalt' Access All Alternates lookup 0 subtable" igrave.sc
Position2: "'cpsp' Capital Spacing lookup 0 subtable" dx=5 dy=0 dh=10 dv=0
EndChar

StartChar: Iacute
Encoding: 205 205 45
Width: 293
GlyphClass: 2
Flags: MW
HStem: 0 21G<103 190 103 103> 668 20G<103 190 190 190>
VStem: 103 87<0 688>
AnchorPoint: "Anchor-11" 0 0 basechar 0
AnchorPoint: "Anchor-10" 90 688 basechar 0
AnchorPoint: "Anchor-9" 146 688 basechar 0
AnchorPoint: "Anchor-8" 200 0 basechar 0
LayerCount: 2
Fore
SplineSet
266 834 m 1
 54 756 l 1
 32 801 l 1
 229 906 l 1
 266 834 l 1
190 0 m 1
 103 0 l 1
 103 688 l 1
 190 688 l 1
 190 0 l 1
EndSplineSet
Substitution2: "'c2sc' Capitals to Small Capitals lookup 23 subtable" iacute.sc
Substitution2: "'aalt' Access All Alternates lookup 0 subtable" iacute.sc
Position2: "'cpsp' Capital Spacing lookup 0 subtable" dx=5 dy=0 dh=10 dv=0
EndChar

StartChar: Icircumflex
Encoding: 206 206 47
Width: 293
GlyphClass: 2
Flags: MW
HStem: 0 21G<103 190 103 103> 668 20G<103 190 190 190> 841 68<147 147>
VStem: 103 87<0 688>
AnchorPoint: "Anchor-11" 0 0 basechar 0
AnchorPoint: "Anchor-10" 90 688 basechar 0
AnchorPoint: "Anchor-9" 146 688 basechar 0
AnchorPoint: "Anchor-8" 200 0 basechar 0
LayerCount: 2
Fore
SplineSet
147 841 m 1
 22 760 l 1
 -15 801 l 1
 120 909 l 1
 175 909 l 1
 308 801 l 1
 272 760 l 1
 147 841 l 1
190 0 m 1
 103 0 l 1
 103 688 l 1
 190 688 l 1
 190 0 l 1
EndSplineSet
Substitution2: "'c2sc' Capitals to Small Capitals lookup 23 subtable" icircumflex.sc
Substitution2: "'aalt' Access All Alternates lookup 0 subtable" icircumflex.sc
Position2: "'cpsp' Capital Spacing lookup 0 subtable" dx=5 dy=0 dh=10 dv=0
EndChar

StartChar: Idieresis
Encoding: 207 207 48
Width: 293
GlyphClass: 2
Flags: MW
HStem: 0 21G<103 190 103 103> 668 20G<103 190 190 190> 782 106<28.5 59 233 263.5>
VStem: -10 107<820 850> 103 87<0 688> 195 107<820 850>
AnchorPoint: "Anchor-11" 0 0 basechar 0
AnchorPoint: "Anchor-10" 90 688 basechar 0
AnchorPoint: "Anchor-9" 146 797 basechar 0
AnchorPoint: "Anchor-8" 200 0 basechar 0
LayerCount: 2
Fore
SplineSet
44 888 m 0
 74 888 97 865 97 835 c 0
 97 805 74 782 44 782 c 0
 13 782 -10 805 -10 835 c 0
 -10 865 13 888 44 888 c 0
248 888 m 0
 279 888 302 865 302 835 c 0
 302 805 279 782 248 782 c 0
 218 782 195 805 195 835 c 0
 195 865 218 888 248 888 c 0
190 0 m 1xe8
 103 0 l 1
 103 688 l 1
 190 688 l 1
 190 0 l 1xe8
EndSplineSet
Substitution2: "'c2sc' Capitals to Small Capitals lookup 23 subtable" idieresis.sc
Substitution2: "'aalt' Access All Alternates lookup 0 subtable" idieresis.sc
Position2: "'cpsp' Capital Spacing lookup 0 subtable" dx=5 dy=0 dh=10 dv=0
EndChar

StartChar: Ntilde
Encoding: 209 209 70
Width: 681
GlyphClass: 2
Flags: MW
HStem: 0 21G<103 184 103 103 462 578 462 462> 0 94<508 508 508 578 462 508> 593 95<172 172> 668 20G<103 216 216 216 497 578 578 578> 784 65<390.5 419 390.5 432> 832 64<281 311>
VStem: 103 81<0 332 0 688> 497 81<303 688>
AnchorPoint: "Anchor-11" 342 0 basechar 0
AnchorPoint: "Anchor-10" 0 0 basechar 0
AnchorPoint: "Anchor-9" 351 688 basechar 0
AnchorPoint: "Anchor-8" 0 0 basechar 0
LayerCount: 2
Fore
SplineSet
412 784 m 0x9b
 354 784 329 832 293 832 c 0
 269 832 256 817 239 787 c 1
 188 813 l 1
 211 860 245 896 294 896 c 0x97
 346 896 372 849 409 849 c 0
 429 849 444 863 463 893 c 1
 514 867 l 1
 489 812 452 784 412 784 c 0x9b
578 0 m 1x97
 462 0 l 1
 172 593 l 1xa7
 177 538 184 459 184 332 c 2
 184 0 l 1
 103 0 l 1
 103 688 l 1
 216 688 l 1
 508 94 l 1x57
 506 113 497 218 497 303 c 2
 497 688 l 1
 578 688 l 1
 578 0 l 1x97
EndSplineSet
Substitution2: "'c2sc' Capitals to Small Capitals lookup 23 subtable" ntilde.sc
Substitution2: "'aalt' Access All Alternates lookup 0 subtable" ntilde.sc
Position2: "'cpsp' Capital Spacing lookup 0 subtable" dx=5 dy=0 dh=10 dv=0
EndChar
StartChar: Ocircumflex
Encoding: 212 212 183
Width: 692
GlyphClass: 2
Flags: MW
HStem: -12 72<288 406 288 432> 628 72<287 406.5>
VStem: 58 92<242 443 242 455.5> 542 92<242.5 443.5>
AnchorPoint: "Anchor-14" 0 0 basechar 0
AnchorPoint: "Anchor-13" 454 779 basechar 0
AnchorPoint: "Anchor-12" 345 909 basechar 0
AnchorPoint: "Anchor-11" 443 0 basechar 0
AnchorPoint: "Anchor-10" 346 0 basechar 0
LayerCount: 2
Back
Fore
SplineSet
470 760 m 1
 345 841 l 1
 220 760 l 1
 183 801 l 1
 318 909 l 1
 373 909 l 1
 506 801 l 1
 470 760 l 1
346 700 m 0
 517 700 634 575 634 343 c 0
 634 116 518 -12 346 -12 c 0
 175 -12 58 112 58 342 c 0
 58 569 176 700 346 700 c 0
346 628 m 0
 228 628 150 544 150 342 c 0
 150 142 230 60 346 60 c 0
 466 60 542 142 542 343 c 0
 542 544 467 628 346 628 c 0
EndSplineSet
Substitution2: "'c2sc' Capitals to Small Capitals lookup 26 subtable" ocircumflex.sc
Substitution2: "'aalt' Access All Alternates lookup 0 subtable" ocircumflex.sc
Position2: "'cpsp' Capital Spacing lookup 0 subtable" dx=5 dy=0 dh=10 dv=0
EndChar
StartChar: Otilde
Encoding: 213 213 214
Width: 692
GlyphClass: 2
Flags: MW
HStem: -12 72<288 406 288 432> 628 72<287 406.5> 784 65<385.5 414 385.5 425.5> 832 64<276.5 306>
VStem: 58 92<242 443 242 455.5> 542 92<242.5 443.5>
AnchorPoint: "Anchor-14" 0 0 basechar 0
AnchorPoint: "Anchor-13" 547 688 basechar 0
AnchorPoint: "Anchor-12" 348 896 basechar 0
AnchorPoint: "Anchor-11" 443 0 basechar 0
AnchorPoint: "Anchor-10" 346 0 basechar 0
LayerCount: 2
Back
Fore
SplineSet
404 784 m 0xec
 352 784 324 832 288 832 c 0
 265 832 251 817 234 787 c 1
 183 813 l 1
 206 860 240 896 288 896 c 0xdc
 342 896 367 849 404 849 c 0
 424 849 439 863 458 893 c 1
 509 867 l 1
 484 812 447 784 404 784 c 0xec
346 700 m 0xdc
 517 700 634 575 634 343 c 0
 634 116 518 -12 346 -12 c 0
 175 -12 58 112 58 342 c 0
 58 569 176 700 346 700 c 0xdc
346 628 m 0
 228 628 150 544 150 342 c 0
 150 142 230 60 346 60 c 0
 466 60 542 142 542 343 c 0
 542 544 467 628 346 628 c 0
EndSplineSet
Substitution2: "'c2sc' Capitals to Small Capitals lookup 26 subtable" otilde.sc
Substitution2: "'aalt' Access All Alternates lookup 0 subtable" otilde.sc
Position2: "'cpsp' Capital Spacing lookup 0 subtable" dx=5 dy=0 dh=10 dv=0
EndChar

StartChar: Odieresis
Encoding: 214 214 75
Width: 692
GlyphClass: 2
Flags: MW
HStem: -12 72<288 406 288 432> 628 72<287 406.5> 782 106<229.5 260 434 464.5>
VStem: 58 92<242 443 242 455.5> 191 107<820 850> 396 107<820 850> 542 92<242.5 443.5>
AnchorPoint: "Anchor-11" 0 0 basechar 0
AnchorPoint: "Anchor-10" 112 688 basechar 0
AnchorPoint: "Anchor-9" 347 797 basechar 0
AnchorPoint: "Anchor-8" 0 0 basechar 0
LayerCount: 2
Fore
SplineSet
245 888 m 0
 275 888 298 865 298 835 c 0
 298 805 275 782 245 782 c 0
 214 782 191 805 191 835 c 0
 191 865 214 888 245 888 c 0
449 888 m 0
 480 888 503 865 503 835 c 0
 503 805 480 782 449 782 c 0
 419 782 396 805 396 835 c 0
 396 865 419 888 449 888 c 0
346 700 m 0
 517 700 634 575 634 343 c 0
 634 116 518 -12 346 -12 c 0
 175 -12 58 112 58 342 c 0
 58 569 176 700 346 700 c 0
346 628 m 0
 228 628 150 544 150 342 c 0
 150 142 230 60 346 60 c 0
 466 60 542 142 542 343 c 0
 542 544 467 628 346 628 c 0
EndSplineSet
Substitution2: "'c2sc' Capitals to Small Capitals lookup 23 subtable" odieresis.sc
Substitution2: "'aalt' Access All Alternates lookup 0 subtable" odieresis.sc
Position2: "'cpsp' Capital Spacing lookup 0 subtable" dx=5 dy=0 dh=10 dv=0
EndChar

StartChar: Ugrave
Encoding: 217 217 106
Width: 660
GlyphClass: 2
Flags: MW
HStem: -12 74<278 380.5 278 406> 668 20G<93 179 179 179 479 567 567 567>
VStem: 93 86<219 226 226 688> 479 88<226 688>
AnchorPoint: "Anchor-11" 0 0 basechar 0
AnchorPoint: "Anchor-10" 0 0 basechar 0
AnchorPoint: "Anchor-9" 330 688 basechar 0
AnchorPoint: "Anchor-8" 425 0 basechar 0
LayerCount: 2
Fore
SplineSet
438 801 m 1
 416 756 l 1
 204 834 l 1
 240 906 l 1
 438 801 l 1
567 219 m 2
 567 84 483 -12 329 -12 c 0
 173 -12 93 84 93 219 c 2
 93 688 l 1
 179 688 l 1
 179 226 l 2
 179 118 227 62 329 62 c 0
 432 62 479 118 479 226 c 2
 479 688 l 1
 567 688 l 1
 567 219 l 2
EndSplineSet
Substitution2: "'c2sc' Capitals to Small Capitals lookup 23 subtable" ugrave.sc
Substitution2: "'aalt' Access All Alternates lookup 0 subtable" ugrave.sc
Position2: "'cpsp' Capital Spacing lookup 0 subtable" dx=5 dy=0 dh=10 dv=0
EndChar

StartChar: Udieresis
Encoding: 220 220 105
Width: 660
GlyphClass: 2
Flags: MW
HStem: -12 74<278 380.5 278 406> 668 20G<93 179 179 179 479 567 567 567> 782 106<212.5 243 417 447.5>
VStem: 93 86<219 226 226 688> 174 107<820 850> 379 107<820 850> 479 88<226 688>
AnchorPoint: "Anchor-11" 0 0 basechar 0
AnchorPoint: "Anchor-10" 0 0 basechar 0
AnchorPoint: "Anchor-9" 330 797 basechar 0
AnchorPoint: "Anchor-8" 425 0 basechar 0
LayerCount: 2
Fore
SplineSet
228 888 m 0xec
 258 888 281 865 281 835 c 0
 281 805 258 782 228 782 c 0
 197 782 174 805 174 835 c 0
 174 865 197 888 228 888 c 0xec
432 888 m 0
 463 888 486 865 486 835 c 0
 486 805 463 782 432 782 c 0
 402 782 379 805 379 835 c 0
 379 865 402 888 432 888 c 0
567 219 m 2xf2
 567 84 483 -12 329 -12 c 0
 173 -12 93 84 93 219 c 2
 93 688 l 1
 179 688 l 1
 179 226 l 2
 179 118 227 62 329 62 c 0
 432 62 479 118 479 226 c 2
 479 688 l 1
 567 688 l 1
 567 219 l 2xf2
EndSplineSet
Substitution2: "'c2sc' Capitals to Small Capitals lookup 23 subtable" udieresis.sc
Substitution2: "'aalt' Access All Alternates lookup 0 subtable" udieresis.sc
Position2: "'cpsp' Capital Spacing lookup 0 subtable" dx=5 dy=0 dh=10 dv=0
EndChar

StartChar: Yacute
Encoding: 221 221 120
Width: 544
GlyphClass: 2
Flags: MW
HStem: 0 21G<228 316 228 228> 668 20G<7 103 103 103 446 537 537 537>
VStem: 228 88<0 265 265 265>
AnchorPoint: "Anchor-11" 0 0 basechar 0
AnchorPoint: "Anchor-10" 6 688 basechar 0
AnchorPoint: "Anchor-9" 274 688 basechar 0
AnchorPoint: "Anchor-8" 0 0 basechar 0
LayerCount: 2
Fore
SplineSet
393 834 m 1
 181 756 l 1
 159 801 l 1
 356 906 l 1
 393 834 l 1
316 266 m 1
 316 0 l 1
 228 0 l 1
 228 265 l 1
 7 688 l 1
 103 688 l 1
 275 341 l 1
 446 688 l 1
 537 688 l 1
 316 266 l 1
EndSplineSet
Substitution2: "'c2sc' Capitals to Small Capitals lookup 23 subtable" yacute.sc
Substitution2: "'aalt' Access All Alternates lookup 0 subtable" yacute.sc
Position2: "'cpsp' Capital Spacing lookup 0 subtable" dx=5 dy=0 dh=10 dv=0
EndChar

StartChar: germandbls
Encoding: 223 223 233
Width: 590
GlyphClass: 2
Flags: MW
HStem: -12 68<351 394 349.5 420.5> 0 21G<98 182 98 98> 682 66<259.5 321.5>
VStem: 98 84<0 539 0 605.5> 280 79<384 458.5 384 467> 391 81<558 629> 463 85<126 229.5>
LayerCount: 2
Fore
SplineSet
295 748 m 0x7c
 404 748 472 687 472 607 c 0xbc
 472 499 359 491 359 426 c 0
 359 342 548 335 548 160 c 0
 548 54 467 -12 374 -12 c 0
 328 -12 299 -3 273 11 c 1
 298 70 l 1
 313 63 333 56 366 56 c 0
 422 56 463 91 463 161 c 0xba
 463 298 280 299 280 420 c 0
 280 514 391 513 391 603 c 0
 391 655 348 682 295 682 c 0
 224 682 182 637 182 539 c 2
 182 0 l 1
 98 0 l 1
 98 539 l 2
 98 672 171 748 295 748 c 0x7c
EndSplineSet
Substitution2: "'smcp' Lowercase to Small Capitals lookup 24 subtable" germandbls.sc
Substitution2: "'aalt' Access All Alternates lookup 0 subtable" germandbls.sc
EndChar

StartChar: atilde
Encoding: 227 227 143
Width: 542
GlyphClass: 2
Flags: MW
HStem: -12 64<201.5 246.5> 263 57<276 287 287 362> 469 69<235 287> 658 65<299.5 328 299.5 341> 667 20G<97 97> 706 64<190 220> 721 20G<423 423>
VStem: 48 89<119 188.5 119 203> 362 84<138 263 263 263 320 361 361 365>
AnchorPoint: "Anchor-11" 0 0 basechar 0
AnchorPoint: "Anchor-10" 0 0 basechar 0
AnchorPoint: "Anchor-9" 260 526 basechar 0
AnchorPoint: "Anchor-8" 480 -12 basechar 0
LayerCount: 2
Fore
SplineSet
202 706 m 0xed80
 178 706 165 691 148 661 c 1
 97 687 l 1
 120 734 154 770 203 770 c 0xed80
 255 770 281 723 318 723 c 0
 338 723 353 737 372 767 c 1xf180
 423 741 l 1
 398 686 361 658 321 658 c 0xeb80
 263 658 238 706 202 706 c 0xed80
446 121 m 2xeb80
 446 72 462 57 490 47 c 1
 470 -12 l 1
 419 -5 386 16 372 69 c 1
 335 13 279 -12 214 -12 c 0
 110 -12 48 53 48 147 c 0
 48 259 132 320 276 320 c 2
 362 320 l 1
 362 361 l 2
 362 439 325 469 249 469 c 0
 209 469 161 459 107 440 c 1
 86 502 l 1
 149 526 206 538 264 538 c 0
 389 538 446 474 446 365 c 2
 446 121 l 2xeb80
233 52 m 0
 290 52 332 81 362 138 c 1
 362 263 l 1
 287 263 l 2
 189 263 137 226 137 151 c 0
 137 87 170 52 233 52 c 0
EndSplineSet
Substitution2: "'smcp' Lowercase to Small Capitals lookup 24 subtable" atilde.sc
Substitution2: "'aalt' Access All Alternates lookup 0 subtable" atilde.sc
EndChar
StartChar: aring
Encoding: 229 229 363
Width: 542
GlyphClass: 2
Flags: MW
HStem: -12 64<201.5 247> 263 56<276 287 287 362> 469 69<235 287> 626 47<243.5 276.5 243.5 292.5> 786 46<243.5 277>
VStem: 48 89<119 188.5 119 203> 150 57<711.5 747 711.5 758> 314 57<711.5 747> 362 84<137 263 263 263 319 361 361 365>
AnchorPoint: "Anchor-14" 0 0 basechar 0
AnchorPoint: "Anchor-13" 0 0 basechar 0
AnchorPoint: "Anchor-12" 262 832 basechar 0
AnchorPoint: "Anchor-11" 480 -12 basechar 0
AnchorPoint: "Anchor-10" 260 0 basechar 0
LayerCount: 2
Back
Fore
SplineSet
260 626 m 0xff
 195 626 150 671 150 729 c 0
 150 787 195 832 260 832 c 0
 325 832 371 787 371 729 c 0
 371 671 325 626 260 626 c 0xff
260 786 m 0
 227 786 207 765 207 729 c 0
 207 694 227 673 260 673 c 0
 293 673 314 694 314 729 c 0
 314 765 294 786 260 786 c 0
446 121 m 2xfc80
 446 72 462 57 490 47 c 1
 470 -12 l 1
 419 -5 386 17 372 69 c 1
 336 13 280 -12 214 -12 c 0
 110 -12 48 53 48 147 c 0
 48 259 132 319 276 319 c 2
 362 319 l 1
 362 361 l 2
 362 439 325 469 249 469 c 0
 209 469 161 459 107 440 c 1
 86 502 l 1
 149 526 206 538 264 538 c 0
 389 538 446 474 446 365 c 2
 446 121 l 2xfc80
233 52 m 0
 290 52 331 81 362 137 c 1
 362 263 l 1
 287 263 l 2
 189 263 137 226 137 151 c 0
 137 87 170 52 233 52 c 0
EndSplineSet
Substitution2: "'smcp' Lowercase to Small Capitals lookup 27 subtable" aring.sc
Substitution2: "'aalt' Access All Alternates lookup 0 subtable" aring.sc
EndChar
StartChar: ae
Encoding: 230 230 368
Width: 853
GlyphClass: 2
Flags: MW
HStem: -12 64<204 257> -12 69<561 627.5 561 631> 234 62<454 712 454 793 454 712> 263 57<279 290 290 364> 471 67<548 626.5>
VStem: 48 92<119 188.5 119 203> 364 90<234 263 234 263 234 361> 712 83<296 304 304 357>
AnchorPoint: "Anchor-14" 0 0 basechar 0
AnchorPoint: "Anchor-13" 0 0 basechar 0
AnchorPoint: "Anchor-12" 426 526 basechar 0
AnchorPoint: "Anchor-11" 0 0 basechar 0
AnchorPoint: "Anchor-10" 417 0 basechar 0
LayerCount: 2
Back
Fore
SplineSet
795 280 m 0xaf
 795 262 794 245 793 234 c 1
 454 234 l 1
 462 107 521 57 601 57 c 0
 654 57 693 72 739 104 c 1x6f
 776 54 l 1
 724 13 667 -12 595 -12 c 0
 509 -12 444 24 406 87 c 1
 355 15 297 -12 217 -12 c 0
 112 -12 48 53 48 147 c 0
 48 259 135 320 279 320 c 2
 364 320 l 1x9f
 364 361 l 2
 364 439 328 469 252 469 c 0
 212 469 163 459 110 440 c 1
 88 502 l 1
 152 526 208 538 266 538 c 0
 352 538 399 504 425 451 c 1
 460 506 511 538 585 538 c 0
 721 538 795 439 795 280 c 0xaf
712 296 m 1
 712 304 l 2
 712 410 670 471 583 471 c 0
 510 471 461 419 454 296 c 1
 712 296 l 1
235 52 m 0
 294 52 338 82 379 147 c 1
 370 180 364 216 364 257 c 2
 364 263 l 1
 290 263 l 2x9f
 191 263 140 226 140 151 c 0
 140 87 173 52 235 52 c 0
EndSplineSet
Substitution2: "'smcp' Lowercase to Small Capitals lookup 27 subtable" ae.sc
Substitution2: "'aalt' Access All Alternates lookup 0 subtable" ae.sc
EndChar
StartChar: ccedilla
Encoding: 231 231 384
Width: 476
GlyphClass: 2
Flags: MW
HStem: -238 56<264 291 264 312> -214 21G<191 191> -98 40<239 306> -11 71<306 306> 468 70<247 312.5>
VStem: 59 90<190 330.5 190 343> 244 62 328 71<-155.5 -127>
AnchorPoint: "Anchor-14" 0 0 basechar 0
AnchorPoint: "Anchor-13" 0 0 basechar 0
AnchorPoint: "Anchor-12" 288 526 basechar 0
AnchorPoint: "Anchor-11" 0 0 basechar 0
AnchorPoint: "Anchor-10" 298 -238 basechar 0
LayerCount: 2
Back
Fore
SplineSet
306 -58 m 1x7e
 374 -64 399 -100 399 -141 c 0
 399 -205 345 -238 279 -238 c 0xbf
 242 -238 211 -229 191 -214 c 1x7e
 214 -166 l 1
 233 -176 251 -182 277 -182 c 0
 305 -182 328 -170 328 -141 c 0xbf
 328 -113 303 -98 239 -98 c 1
 249 -9 l 1
 131 8 59 105 59 259 c 0
 59 427 146 538 287 538 c 0
 348 538 397 522 445 482 c 1
 404 429 l 1
 369 455 335 468 290 468 c 0
 204 468 149 401 149 260 c 0
 149 120 204 60 290 60 c 0
 335 60 367 74 406 101 c 1
 445 46 l 1
 404 12 358 -7 306 -11 c 1
 306 -58 l 1x7e
EndSplineSet
Substitution2: "'smcp' Lowercase to Small Capitals lookup 27 subtable" ccedilla.sc
Substitution2: "'aalt' Access All Alternates lookup 0 subtable" ccedilla.sc
EndChar

StartChar: ecircumflex
Encoding: 234 234 161
Width: 547
GlyphClass: 2
Flags: MW
HStem: -12 69<255 321.5 255 325> 234 62<148 406 148 487 148 406> 471 67<240.5 320.5>
VStem: 59 89<234 234 234 296 234 340.5> 406 83<296 304 304 357>
AnchorPoint: "Anchor-11" 292 0 basechar 0
AnchorPoint: "Anchor-10" 0 0 basechar 0
AnchorPoint: "Anchor-9" 278 526 basechar 0
AnchorPoint: "Anchor-8" 396 6 basechar 0
LayerCount: 2
Fore
SplineSet
153 636 m 1
 117 678 l 1
 251 789 l 1
 306 789 l 1
 440 678 l 1
 404 636 l 1
 279 720 l 1
 153 636 l 1
489 280 m 0
 489 262 488 245 487 234 c 1
 148 234 l 1
 157 107 215 57 295 57 c 0
 348 57 387 72 433 104 c 1
 470 54 l 1
 419 13 361 -12 289 -12 c 0
 144 -12 59 91 59 258 c 0
 59 423 141 538 275 538 c 0
 416 538 489 439 489 280 c 0
406 296 m 1
 406 304 l 2
 406 410 364 471 277 471 c 0
 204 471 155 419 148 296 c 1
 406 296 l 1
EndSplineSet
Substitution2: "'smcp' Lowercase to Small Capitals lookup 24 subtable" ecircumflex.sc
Substitution2: "'aalt' Access All Alternates lookup 0 subtable" ecircumflex.sc
EndChar

StartChar: edieresis
Encoding: 235 235 162
Width: 547
GlyphClass: 2
Flags: MW
HStem: -12 69<255 321.5 255 325> 234 62<148 406 148 487 148 406> 471 67<240.5 320.5> 656 106<160.5 191 365 395.5>
VStem: 59 89<234 234 234 296 234 340.5> 122 107<694 724> 327 107<694 724> 406 83<296 304 304 357>
AnchorPoint: "Anchor-11" 292 0 basechar 0
AnchorPoint: "Anchor-10" 0 0 basechar 0
AnchorPoint: "Anchor-9" 278 671 basechar 0
AnchorPoint: "Anchor-8" 396 6 basechar 0
LayerCount: 2
Fore
SplineSet
176 656 m 0xf6
 145 656 122 679 122 709 c 0
 122 739 145 762 176 762 c 0
 206 762 229 739 229 709 c 0
 229 679 206 656 176 656 c 0xf6
380 656 m 0
 350 656 327 679 327 709 c 0
 327 739 350 762 380 762 c 0
 411 762 434 739 434 709 c 0
 434 679 411 656 380 656 c 0
489 280 m 0xe9
 489 262 488 245 487 234 c 1
 148 234 l 1
 157 107 215 57 295 57 c 0
 348 57 387 72 433 104 c 1
 470 54 l 1
 419 13 361 -12 289 -12 c 0
 144 -12 59 91 59 258 c 0
 59 423 141 538 275 538 c 0
 416 538 489 439 489 280 c 0xe9
406 296 m 1
 406 304 l 2
 406 410 364 471 277 471 c 0
 204 471 155 419 148 296 c 1
 406 296 l 1
EndSplineSet
Substitution2: "'smcp' Lowercase to Small Capitals lookup 24 subtable" edieresis.sc
Substitution2: "'aalt' Access All Alternates lookup 0 subtable" edieresis.sc
EndChar
StartChar: iacute
Encoding: 237 237 480
Width: 279
GlyphClass: 2
Flags: MW
HStem: 0 21G<98 182 98 98> 506 20G<98 182 182 182>
VStem: 98 84<0 526 0 526>
AnchorPoint: "Anchor-14" 0 0 basechar 0
AnchorPoint: "Anchor-13" 0 0 basechar 0
AnchorPoint: "Anchor-12" 141 797 basechar 0
AnchorPoint: "Anchor-11" 192 0 basechar 0
AnchorPoint: "Anchor-10" 140 0 basechar 0
LayerCount: 2
Back
Fore
SplineSet
217 797 m 1
 255 725 l 1
 47 640 l 1
 21 685 l 1
 217 797 l 1
182 526 m 1
 182 0 l 1
 98 0 l 1
 98 526 l 1
 182 526 l 1
EndSplineSet
Substitution2: "'smcp' Lowercase to Small Capitals lookup 27 subtable" iacute.sc
Substitution2: "'aalt' Access All Alternates lookup 0 subtable" iacute.sc
EndChar
StartChar: icircumflex
Encoding: 238 238 483
Width: 279
GlyphClass: 2
Flags: MW
HStem: 0 21G<98 182 98 98> 506 20G<98 182 182 182>
VStem: 98 84<0 526 0 526>
AnchorPoint: "Anchor-14" 0 0 basechar 0
AnchorPoint: "Anchor-13" 0 0 basechar 0
AnchorPoint: "Anchor-12" 142 789 basechar 0
AnchorPoint: "Anchor-11" 192 0 basechar 0
AnchorPoint: "Anchor-10" 140 0 basechar 0
LayerCount: 2
Back
Fore
SplineSet
14 636 m 1
 -22 678 l 1
 112 789 l 1
 167 789 l 1
 301 678 l 1
 265 636 l 1
 140 720 l 1
 14 636 l 1
182 526 m 1
 182 0 l 1
 98 0 l 1
 98 526 l 1
 182 526 l 1
EndSplineSet
Substitution2: "'smcp' Lowercase to Small Capitals lookup 27 subtable" icircumflex.sc
Substitution2: "'aalt' Access All Alternates lookup 0 subtable" icircumflex.sc
EndChar
StartChar: idieresis
Encoding: 239 239 485
Width: 279
GlyphClass: 2
Flags: MW
HStem: 0 21G<98 182 98 98> 506 20G<98 182 182 182> 656 106<21.5 52 226 256.5>
VStem: -17 107<694 724> 98 84<0 526 0 526> 188 107<694 724>
AnchorPoint: "Anchor-14" 0 0 basechar 0
AnchorPoint: "Anchor-13" 0 0 basechar 0
AnchorPoint: "Anchor-12" 141 762 basechar 0
AnchorPoint: "Anchor-11" 192 0 basechar 0
AnchorPoint: "Anchor-10" 140 0 basechar 0
LayerCount: 2
Back
Fore
SplineSet
37 762 m 0
 67 762 90 739 90 709 c 0
 90 679 67 656 37 656 c 0
 6 656 -17 679 -17 709 c 0
 -17 739 6 762 37 762 c 0
241 762 m 0
 272 762 295 739 295 709 c 0
 295 679 272 656 241 656 c 0
 211 656 188 679 188 709 c 0
 188 739 211 762 241 762 c 0
182 526 m 1xe8
 182 0 l 1
 98 0 l 1
 98 526 l 1
 182 526 l 1xe8
EndSplineSet
Substitution2: "'smcp' Lowercase to Small Capitals lookup 27 subtable" idieresis.sc
Substitution2: "'aalt' Access All Alternates lookup 0 subtable" idieresis.sc
EndChar

StartChar: eth
Encoding: 240 240 154
Width: 568
GlyphClass: 2
Flags: MW
HStem: -12 67<236.5 318 236.5 344> 407 66<223.5 291 190.5 302.5> 551 20G<155 155> 679 20G<282 282> 729 20G<134 134>
VStem: 59 86<178.5 283.5 178.5 293.5> 418 85<199.5 280.5>
LayerCount: 2
Fore
SplineSet
338 664 m 1
 459 572 503 450 503 268 c 0
 503 95 411 -12 277 -12 c 0
 153 -12 59 78 59 234 c 0
 59 353 123 473 258 473 c 0
 324 473 372 447 409 403 c 1
 393 490 356 557 286 612 c 1
 213 542 l 1
 155 571 l 1
 231 646 l 1
 193 665 158 676 116 684 c 1
 134 749 l 1
 189 738 235 723 282 699 c 1
 352 773 l 1
 402 730 l 1
 338 664 l 1
276 55 m 0
 360 55 418 129 418 270 c 0
 418 291 417 309 416 326 c 1
 380 379 334 407 271 407 c 0
 176 407 145 329 145 238 c 0
 145 119 197 55 276 55 c 0
EndSplineSet
Substitution2: "'smcp' Lowercase to Small Capitals lookup 24 subtable" eth.sc
Substitution2: "'aalt' Access All Alternates lookup 0 subtable" eth.sc
EndChar

StartChar: ntilde
Encoding: 241 241 207
Width: 585
GlyphClass: 2
Flags: MW
HStem: 0 21G<98 182 98 98 409 493 409 409> 472 66<306.5 349> 506 20G<98 170 170 170> 658 65<337.5 366 337.5 379> 667 20G<135 135> 706 64<228 258> 721 20G<461 461>
VStem: 98 84<0 375 0 526> 409 84<0 365 365 377 0 405.5>
AnchorPoint: "Anchor-11" 292 0 basechar 0
AnchorPoint: "Anchor-10" 88 526 basechar 0
AnchorPoint: "Anchor-9" 298 526 basechar 0
AnchorPoint: "Anchor-8" 0 0 basechar 0
LayerCount: 2
Fore
SplineSet
240 706 m 0xcd80
 216 706 203 691 186 661 c 1
 135 687 l 1
 158 734 192 770 241 770 c 0xcd80
 293 770 319 723 356 723 c 0
 376 723 391 737 410 767 c 1xd180
 461 741 l 1
 436 686 399 658 359 658 c 0xcb80
 301 658 276 706 240 706 c 0xcd80
342 538 m 0xcb80
 438 538 493 477 493 377 c 2
 493 0 l 1
 409 0 l 1
 409 365 l 2
 409 446 376 472 322 472 c 0
 260 472 218 433 182 375 c 1xcb80
 182 0 l 1
 98 0 l 1
 98 526 l 1
 170 526 l 1xab80
 177 447 l 1
 216 501 271 538 342 538 c 0xcb80
EndSplineSet
Substitution2: "'smcp' Lowercase to Small Capitals lookup 24 subtable" ntilde.sc
Substitution2: "'aalt' Access All Alternates lookup 0 subtable" ntilde.sc
EndChar

StartChar: ograve
Encoding: 242 242 213
Width: 581
GlyphClass: 2
Flags: MW
HStem: -12 68<244.5 335.5 244.5 363.5> 470 68<246 336.5>
VStem: 59 90<192.5 332.5 192.5 344.5> 432 90<193.5 333.5>
AnchorPoint: "Anchor-11" 0 0 basechar 0
AnchorPoint: "Anchor-10" 0 0 basechar 0
AnchorPoint: "Anchor-9" 291 526 basechar 0
AnchorPoint: "Anchor-8" 0 0 basechar 0
LayerCount: 2
Fore
SplineSet
417 685 m 1
 391 640 l 1
 183 725 l 1
 221 797 l 1
 417 685 l 1
291 538 m 0
 439 538 522 432 522 264 c 0
 522 99 437 -12 290 -12 c 0
 143 -12 59 95 59 262 c 0
 59 427 144 538 291 538 c 0
291 470 m 0
 201 470 149 403 149 262 c 0
 149 123 199 56 290 56 c 0
 381 56 432 123 432 264 c 0
 432 403 382 470 291 470 c 0
EndSplineSet
Substitution2: "'smcp' Lowercase to Small Capitals lookup 24 subtable" ograve.sc
Substitution2: "'aalt' Access All Alternates lookup 0 subtable" ograve.sc
EndChar

StartChar: otilde
Encoding: 245 245 218
Width: 581
GlyphClass: 2
Flags: MW
HStem: -12 68<244.5 335.5 244.5 363.5> 470 68<246 336.5> 658 65<329.5 358 329.5 371> 667 20G<127 127> 706 64<220 250> 721 20G<453 453>
VStem: 59 90<192.5 332.5 192.5 344.5> 432 90<193.5 333.5>
AnchorPoint: "Anchor-11" 0 0 basechar 0
AnchorPoint: "Anchor-10" 0 0 basechar 0
AnchorPoint: "Anchor-9" 291 526 basechar 0
AnchorPoint: "Anchor-8" 0 0 basechar 0
LayerCount: 2
Fore
SplineSet
351 658 m 0xe3
 293 658 268 706 232 706 c 0
 208 706 195 691 178 661 c 1
 127 687 l 1
 150 734 184 770 233 770 c 0xdb
 285 770 311 723 348 723 c 0
 368 723 383 737 402 767 c 1xe3
 453 741 l 1xd7
 428 686 391 658 351 658 c 0xe3
291 538 m 0xd7
 439 538 522 432 522 264 c 0
 522 99 437 -12 290 -12 c 0
 143 -12 59 95 59 262 c 0
 59 427 144 538 291 538 c 0xd7
291 470 m 0
 201 470 149 403 149 262 c 0
 149 123 199 56 290 56 c 0
 381 56 432 123 432 264 c 0
 432 403 382 470 291 470 c 0
EndSplineSet
Substitution2: "'smcp' Lowercase to Small Capitals lookup 24 subtable" otilde.sc
Substitution2: "'aalt' Access All Alternates lookup 0 subtable" otilde.sc
EndChar

StartChar: odieresis
Encoding: 246 246 212
Width: 581
GlyphClass: 2
Flags: MW
HStem: -12 68<244.5 335.5 244.5 363.5> 470 68<246 336.5> 656 106<172.5 203 377 407.5>
VStem: 59 90<192.5 332.5 192.5 344.5> 134 107<694 724> 339 107<694 724> 432 90<193.5 333.5>
AnchorPoint: "Anchor-11" 0 0 basechar 0
AnchorPoint: "Anchor-10" 0 0 basechar 0
AnchorPoint: "Anchor-9" 290 671 basechar 0
AnchorPoint: "Anchor-8" 0 0 basechar 0
LayerCount: 2
Fore
SplineSet
188 762 m 0xec
 218 762 241 739 241 709 c 0
 241 679 218 656 188 656 c 0
 157 656 134 679 134 709 c 0
 134 739 157 762 188 762 c 0xec
392 762 m 0
 423 762 446 739 446 709 c 0
 446 679 423 656 392 656 c 0
 362 656 339 679 339 709 c 0
 339 739 362 762 392 762 c 0
291 538 m 0xd2
 439 538 522 432 522 264 c 0
 522 99 437 -12 290 -12 c 0
 143 -12 59 95 59 262 c 0
 59 427 144 538 291 538 c 0xd2
291 470 m 0
 201 470 149 403 149 262 c 0
 149 123 199 56 290 56 c 0
 381 56 432 123 432 264 c 0
 432 403 382 470 291 470 c 0
EndSplineSet
Substitution2: "'smcp' Lowercase to Small Capitals lookup 24 subtable" odieresis.sc
Substitution2: "'aalt' Access All Alternates lookup 0 subtable" odieresis.sc
EndChar

StartChar: divide
Encoding: 247 247 1089
Width: 498
Flags: MW
HStem: 42 129<231 268> 297 71<64 435 64 435> 495 128<231 268>
VStem: 185 129<89 124.5 541 577>
LayerCount: 2
Fore
SplineSet
249 623 m 0
 287 623 314 595 314 559 c 0
 314 523 287 495 249 495 c 0
 213 495 185 523 185 559 c 0
 185 595 213 623 249 623 c 0
64 368 m 1
 435 368 l 1
 435 297 l 1
 64 297 l 1
 64 368 l 1
249 171 m 0
 287 171 314 142 314 107 c 0
 314 71 287 42 249 42 c 0
 213 42 185 71 185 107 c 0
 185 142 213 171 249 171 c 0
EndSplineSet
Substitution2: "'onum' Oldstyle Figures lookup 22 subtable" divide.osf
Substitution2: "'tnum' Tabular Numbers lookup 21 subtable" divide.tf
AlternateSubs2: "'aalt' Access All Alternates lookup 1 subtable" divide.tf divide.osf
EndChar

StartChar: oslash
Encoding: 248 248 216
Width: 581
GlyphClass: 2
Flags: MW
HStem: -12 68<283 335.5 283 363.5> -7 21G<236 236> 470 68<246 298> 513 20G<345 345>
VStem: 59 90<214 332.5 214 344.5> 432 90<193.5 311.5>
AnchorPoint: "Anchor-11" 0 0 basechar 0
AnchorPoint: "Anchor-10" 0 0 basechar 0
AnchorPoint: "Anchor-9" 291 526 basechar 0
AnchorPoint: "Anchor-8" 0 0 basechar 0
LayerCount: 2
Fore
SplineSet
411 508 m 1xac
 483 465 522 379 522 264 c 0
 522 99 437 -12 290 -12 c 0xac
 271 -12 253 -10 236 -7 c 1
 197 -129 l 1
 129 -109 l 1
 171 18 l 1
 99 61 59 147 59 262 c 0
 59 427 144 538 291 538 c 0x6c
 310 538 328 536 345 533 c 1x9c
 384 654 l 1
 453 634 l 1
 411 508 l 1xac
291 470 m 0
 201 470 149 403 149 262 c 0
 149 166 168 110 203 82 c 1
 331 466 l 1
 319 469 305 470 291 470 c 0
290 56 m 0
 381 56 432 123 432 264 c 0
 432 359 414 415 379 444 c 1
 252 60 l 1
 263 57 276 56 290 56 c 0
EndSplineSet
Substitution2: "'smcp' Lowercase to Small Capitals lookup 24 subtable" oslash.sc
Substitution2: "'aalt' Access All Alternates lookup 0 subtable" oslash.sc
EndChar

StartChar: ucircumflex
Encoding: 251 251 242
Width: 581
GlyphClass: 2
Flags: MW
HStem: -12 67<233 278> 0 21G<412 484 412 412> 506 20G<93 177 177 177 400 484 484 484>
VStem: 93 84<149 158 158 526> 400 84<149 526>
AnchorPoint: "Anchor-11" 0 0 basechar 0
AnchorPoint: "Anchor-10" 0 0 basechar 0
AnchorPoint: "Anchor-9" 289 526 basechar 0
AnchorPoint: "Anchor-8" 494 0 basechar 0
LayerCount: 2
Fore
SplineSet
127 678 m 1xb8
 261 789 l 1
 316 789 l 1
 450 678 l 1
 414 636 l 1
 289 720 l 1
 163 636 l 1
 127 678 l 1xb8
484 0 m 1x78
 412 0 l 1x78
 405 85 l 1
 366 21 316 -12 240 -12 c 0
 147 -12 93 46 93 149 c 2
 93 526 l 1
 177 526 l 1
 177 158 l 2
 177 83 203 55 263 55 c 0
 323 55 367 94 400 149 c 1xb8
 400 526 l 1
 484 526 l 1
 484 0 l 1x78
EndSplineSet
Substitution2: "'smcp' Lowercase to Small Capitals lookup 24 subtable" ucircumflex.sc
Substitution2: "'aalt' Access All Alternates lookup 0 subtable" ucircumflex.sc
EndChar
StartChar: udieresis
Encoding: 252 252 668
Width: 581
GlyphClass: 2
Flags: MW
HStem: -12 67<233 278> 0 21G<412 484 412 412> 506 20G<93 177 177 177 400 484 484 484> 656 106<170.5 201 375 405.5>
VStem: 93 84<149 158 158 526> 132 107<694 724> 337 107<694 724> 400 84<149 526 0 526>
AnchorPoint: "Anchor-14" 0 0 basechar 0
AnchorPoint: "Anchor-13" 494 526 basechar 0
AnchorPoint: "Anchor-12" 290 762 basechar 0
AnchorPoint: "Anchor-11" 494 0 basechar 0
AnchorPoint: "Anchor-10" 289 0 basechar 0
LayerCount: 2
Back
Fore
SplineSet
186 762 m 0xb6
 216 762 239 739 239 709 c 0
 239 679 216 656 186 656 c 0
 155 656 132 679 132 709 c 0
 132 739 155 762 186 762 c 0xb6
390 762 m 0
 421 762 444 739 444 709 c 0
 444 679 421 656 390 656 c 0
 360 656 337 679 337 709 c 0
 337 739 360 762 390 762 c 0
484 526 m 1xb9
 484 0 l 1
 412 0 l 1x79
 405 85 l 1
 366 21 316 -12 240 -12 c 0
 147 -12 93 46 93 149 c 2
 93 526 l 1
 177 526 l 1
 177 158 l 2
 177 83 203 55 263 55 c 0
 323 55 367 94 400 149 c 1
 400 526 l 1
 484 526 l 1xb9
EndSplineSet
Substitution2: "'smcp' Lowercase to Small Capitals lookup 27 subtable" udieresis.sc
Substitution2: "'aalt' Access All Alternates lookup 0 subtable" udieresis.sc
EndChar

StartChar: thorn
Encoding: 254 254 221
Width: 591
GlyphClass: 2
Flags: MW
HStem: -211 21G<98 98> -12 69<292.5 346.5 277.5 389.5> 471 67<303 354> 718 20G<98 98> 728 20G<182 182>
VStem: 98 84<-197 50 -197 124 124 387 461 738 738 738> 437 90<193.5 334>
LayerCount: 2
Fore
SplineSet
333 538 m 0xee
 471 538 527 431 527 264 c 0
 527 103 457 -12 322 -12 c 0
 263 -12 215 9 182 50 c 1
 182 -197 l 1
 98 -211 l 1
 98 738 l 1xf6
 182 748 l 1
 182 461 l 1
 220 511 273 538 333 538 c 0xee
303 57 m 0
 390 57 437 123 437 264 c 0
 437 404 395 471 313 471 c 0
 255 471 211 431 182 387 c 1
 182 124 l 1
 210 82 252 57 303 57 c 0
EndSplineSet
Substitution2: "'smcp' Lowercase to Small Capitals lookup 24 subtable" thorn.sc
Substitution2: "'aalt' Access All Alternates lookup 0 subtable" thorn.sc
EndChar

StartChar: ydieresis
Encoding: 255 255 260
Width: 486
GlyphClass: 2
Flags: MW
HStem: -211 21G<61 61> 0 21G<189 218 189 189> 506 20G<11 101 101 101 388 475 475 475> 656 106<124.5 155 329 359.5>
VStem: 86 107<694 724> 291 107<694 724>
AnchorPoint: "Anchor-11" 0 0 basechar 0
AnchorPoint: "Anchor-10" 0 0 basechar 0
AnchorPoint: "Anchor-9" 242 671 basechar 0
AnchorPoint: "Anchor-8" 0 0 basechar 0
LayerCount: 2
Fore
SplineSet
140 762 m 0
 170 762 193 739 193 709 c 0
 193 679 170 656 140 656 c 0
 109 656 86 679 86 709 c 0
 86 739 109 762 140 762 c 0
344 762 m 0
 375 762 398 739 398 709 c 0
 398 679 375 656 344 656 c 0
 314 656 291 679 291 709 c 0
 291 739 314 762 344 762 c 0
298 -3 m 2
 261 -115 202 -193 61 -211 c 1
 51 -145 l 1
 158 -125 187 -84 218 0 c 1
 189 0 l 1
 11 526 l 1
 101 526 l 1
 246 61 l 1
 388 526 l 1
 475 526 l 1
 298 -3 l 2
EndSplineSet
Substitution2: "'smcp' Lowercase to Small Capitals lookup 24 subtable" ydieresis.sc
Substitution2: "'aalt' Access All Alternates lookup 0 subtable" ydieresis.sc
EndChar

StartChar: Amacron
Encoding: 256 256 7
Width: 571
GlyphClass: 2
Flags: MW
HStem: 0 21G<8 96 8 8 471 471 471 563> 176 71<171 396 171 418 150 396> 616 72<284 284> 668 20G<231 341 341 341> 790 64<153 418 153 418>
VStem: 153 265<790 854>
AnchorPoint: "Anchor-11" 0 0 basechar 0
AnchorPoint: "Anchor-10" 144 688 basechar 0
AnchorPoint: "Anchor-9" 286 688 basechar 0
AnchorPoint: "Anchor-8" 538 0 basechar 0
LayerCount: 2
Fore
SplineSet
418 790 m 1xdc
 153 790 l 1
 153 854 l 1
 418 854 l 1
 418 790 l 1xdc
418 176 m 1
 150 176 l 1
 96 0 l 1
 8 0 l 1
 231 688 l 1
 341 688 l 1
 563 0 l 1
 471 0 l 1
 418 176 l 1
396 247 m 1
 284 616 l 1xec
 171 247 l 1
 396 247 l 1
EndSplineSet
Substitution2: "'c2sc' Capitals to Small Capitals lookup 23 subtable" amacron.sc
Substitution2: "'aalt' Access All Alternates lookup 0 subtable" amacron.sc
Position2: "'cpsp' Capital Spacing lookup 0 subtable" dx=5 dy=0 dh=10 dv=0
EndChar

StartChar: amacron
Encoding: 257 257 140
Width: 542
GlyphClass: 2
Flags: MW
HStem: -12 64<201.5 246.5> 263 57<276 287 287 362> 469 69<235 287> 669 64<127 392 127 392>
VStem: 48 89<119 188.5 119 203> 127 265<669 733 669 733> 362 84<138 263 263 263 320 361 361 365>
AnchorPoint: "Anchor-11" 0 0 basechar 0
AnchorPoint: "Anchor-10" 0 0 basechar 0
AnchorPoint: "Anchor-9" 260 526 basechar 0
AnchorPoint: "Anchor-8" 480 -12 basechar 0
LayerCount: 2
Fore
SplineSet
392 669 m 1xf4
 127 669 l 1
 127 733 l 1
 392 733 l 1
 392 669 l 1xf4
446 121 m 2xfa
 446 72 462 57 490 47 c 1
 470 -12 l 1
 419 -5 386 16 372 69 c 1
 335 13 279 -12 214 -12 c 0
 110 -12 48 53 48 147 c 0
 48 259 132 320 276 320 c 2
 362 320 l 1
 362 361 l 2
 362 439 325 469 249 469 c 0
 209 469 161 459 107 440 c 1
 86 502 l 1
 149 526 206 538 264 538 c 0
 389 538 446 474 446 365 c 2
 446 121 l 2xfa
233 52 m 0
 290 52 332 81 362 138 c 1
 362 263 l 1
 287 263 l 2
 189 263 137 226 137 151 c 0
 137 87 170 52 233 52 c 0
EndSplineSet
Substitution2: "'smcp' Lowercase to Small Capitals lookup 24 subtable" amacron.sc
Substitution2: "'aalt' Access All Alternates lookup 0 subtable" amacron.sc
EndChar

StartChar: Abreve
Encoding: 258 258 3
Width: 571
GlyphClass: 2
Flags: MW
HStem: 0 21G<8 96 8 8 471 471 471 563> 176 71<171 396 171 418 150 396> 616 72<284 284> 668 20G<231 341 341 341> 760 64<260.5 307.5 260.5 323.5>
VStem: 8 555<0 0>
AnchorPoint: "Anchor-11" 0 0 basechar 0
AnchorPoint: "Anchor-10" 144 688 basechar 0
AnchorPoint: "Anchor-9" 286 688 basechar 0
AnchorPoint: "Anchor-8" 538 0 basechar 0
LayerCount: 2
Fore
SplineSet
284 760 m 0xdc
 207 760 147 807 139 877 c 1
 195 889 l 1
 209 850 237 824 284 824 c 0
 331 824 362 850 376 889 c 1
 432 877 l 1
 424 807 363 760 284 760 c 0xdc
418 176 m 1
 150 176 l 1
 96 0 l 1
 8 0 l 1
 231 688 l 1
 341 688 l 1
 563 0 l 1
 471 0 l 1
 418 176 l 1
396 247 m 1
 284 616 l 1xec
 171 247 l 1
 396 247 l 1
EndSplineSet
Substitution2: "'c2sc' Capitals to Small Capitals lookup 23 subtable" abreve.sc
Substitution2: "'aalt' Access All Alternates lookup 0 subtable" abreve.sc
Position2: "'cpsp' Capital Spacing lookup 0 subtable" dx=5 dy=0 dh=10 dv=0
EndChar

StartChar: Aogonek
Encoding: 260 260 8
Width: 571
GlyphClass: 2
Flags: MW
HStem: -229 65<442 465.5> 0 21G<8 96 8 8 528 563 528 528> 176 71<171 396 171 418 150 396> 616 72<284 284> 668 20G<231 341 341 341>
VStem: 331 74<-130 -99>
AnchorPoint: "Anchor-11" 0 0 basechar 0
AnchorPoint: "Anchor-10" 144 688 basechar 0
AnchorPoint: "Anchor-9" 286 688 basechar 0
AnchorPoint: "Anchor-8" 538 0 basechar 0
LayerCount: 2
Fore
SplineSet
528 0 m 1xec
 429 -43 405 -76 405 -115 c 0
 405 -145 421 -164 463 -164 c 0
 484 -164 500 -162 523 -157 c 1
 515 -222 l 1
 495 -226 478 -229 453 -229 c 0
 377 -229 331 -186 331 -130 c 0
 331 -68 375 -21 467 15 c 1
 418 176 l 1
 150 176 l 1
 96 0 l 1
 8 0 l 1
 231 688 l 1
 341 688 l 1
 563 0 l 1
 528 0 l 1xec
396 247 m 1
 284 616 l 1xf4
 171 247 l 1
 396 247 l 1
EndSplineSet
Substitution2: "'c2sc' Capitals to Small Capitals lookup 23 subtable" aogonek.sc
Substitution2: "'aalt' Access All Alternates lookup 0 subtable" aogonek.sc
Position2: "'cpsp' Capital Spacing lookup 0 subtable" dx=5 dy=0 dh=10 dv=0
EndChar

StartChar: aogonek
Encoding: 261 261 141
Width: 542
GlyphClass: 2
Flags: MW
HStem: -241 65<384 407.5> -12 64<201.5 246.5> 263 57<276 287 287 362> 469 69<235 287>
VStem: 48 89<119 188.5 119 203> 273 74<-142 -110> 362 84<138 263 263 263 320 361 361 365>
AnchorPoint: "Anchor-11" 0 0 basechar 0
AnchorPoint: "Anchor-10" 0 0 basechar 0
AnchorPoint: "Anchor-9" 260 526 basechar 0
AnchorPoint: "Anchor-8" 480 -12 basechar 0
LayerCount: 2
Fore
SplineSet
470 -12 m 1
 371 -55 347 -88 347 -127 c 0
 347 -157 363 -176 405 -176 c 0
 426 -176 442 -174 465 -169 c 1
 457 -234 l 1
 437 -238 420 -241 395 -241 c 0
 319 -241 273 -198 273 -142 c 0xfe
 273 -78 319 -31 416 5 c 1
 395 18 380 38 372 69 c 1
 335 13 279 -12 214 -12 c 0
 110 -12 48 53 48 147 c 0
 48 259 132 320 276 320 c 2
 362 320 l 1
 362 361 l 2
 362 439 325 469 249 469 c 0
 209 469 161 459 107 440 c 1
 86 502 l 1
 149 526 206 538 264 538 c 0
 389 538 446 474 446 365 c 2
 446 121 l 2
 446 72 462 57 490 47 c 1
 470 -12 l 1
233 52 m 0
 290 52 332 81 362 138 c 1
 362 263 l 1
 287 263 l 2
 189 263 137 226 137 151 c 0
 137 87 170 52 233 52 c 0
EndSplineSet
Substitution2: "'smcp' Lowercase to Small Capitals lookup 24 subtable" aogonek.sc
Substitution2: "'aalt' Access All Alternates lookup 0 subtable" aogonek.sc
EndChar
StartChar: Cacute
Encoding: 262 262 44
Width: 558
GlyphClass: 2
Flags: MW
HStem: -12 74<291 379 291 388.5> 628 72<293 372>
VStem: 58 92<243.5 449.5 243.5 461>
AnchorPoint: "Anchor-14" 339 346 basechar 0
AnchorPoint: "Anchor-13" 0 0 basechar 0
AnchorPoint: "Anchor-12" 348 906 basechar 0
AnchorPoint: "Anchor-11" 0 0 basechar 0
AnchorPoint: "Anchor-10" 345 0 basechar 0
LayerCount: 2
Back
Fore
SplineSet
426 906 m 1
 463 834 l 1
 251 756 l 1
 229 801 l 1
 426 906 l 1
342 700 m 0
 427 700 475 676 529 633 c 1
 482 577 l 1
 438 612 397 628 347 628 c 0
 239 628 150 555 150 344 c 0
 150 143 236 62 346 62 c 0
 412 62 454 90 493 120 c 1
 537 64 l 1
 499 25 434 -12 343 -12 c 0
 178 -12 58 113 58 344 c 0
 58 578 186 700 342 700 c 0
EndSplineSet
Substitution2: "'c2sc' Capitals to Small Capitals lookup 26 subtable" cacute.sc
Substitution2: "'locl' Localized Forms in Latin lookup 7 subtable" Cacute.loclPLK
AlternateSubs2: "'aalt' Access All Alternates lookup 1 subtable" Cacute.loclPLK cacute.sc
Position2: "'cpsp' Capital Spacing lookup 0 subtable" dx=5 dy=0 dh=10 dv=0
EndChar
StartChar: cacute
Encoding: 263 263 381
Width: 476
GlyphClass: 2
Flags: MW
HStem: -12 72<247 312.5 247 317> 468 70<247 312.5>
VStem: 59 90<190 330.5 190 343>
AnchorPoint: "Anchor-14" 0 0 basechar 0
AnchorPoint: "Anchor-13" 0 0 basechar 0
AnchorPoint: "Anchor-12" 290 797 basechar 0
AnchorPoint: "Anchor-11" 0 0 basechar 0
AnchorPoint: "Anchor-10" 284 0 basechar 0
LayerCount: 2
Back
Fore
SplineSet
366 797 m 1
 404 725 l 1
 196 640 l 1
 170 685 l 1
 366 797 l 1
287 538 m 0
 348 538 397 522 445 482 c 1
 404 429 l 1
 369 455 335 468 290 468 c 0
 204 468 149 401 149 260 c 0
 149 120 204 60 290 60 c 0
 335 60 367 74 406 101 c 1
 445 46 l 1
 400 8 347 -12 287 -12 c 0
 147 -12 59 89 59 259 c 0
 59 427 146 538 287 538 c 0
EndSplineSet
Substitution2: "'smcp' Lowercase to Small Capitals lookup 27 subtable" cacute.sc
Substitution2: "'locl' Localized Forms in Latin lookup 7 subtable" cacute.loclPLK
AlternateSubs2: "'aalt' Access All Alternates lookup 1 subtable" cacute.loclPLK cacute.sc
EndChar
StartChar: Ccircumflex
Encoding: 264 264 48
Width: 558
GlyphClass: 2
Flags: MW
HStem: -12 74<291 379 291 388.5> 628 72<293 372>
VStem: 58 92<243.5 449.5 243.5 461>
AnchorPoint: "Anchor-14" 339 346 basechar 0
AnchorPoint: "Anchor-13" 455 779 basechar 0
AnchorPoint: "Anchor-12" 346 909 basechar 0
AnchorPoint: "Anchor-11" 0 0 basechar 0
AnchorPoint: "Anchor-10" 345 0 basechar 0
LayerCount: 2
Back
Fore
SplineSet
471 760 m 1
 346 841 l 1
 221 760 l 1
 184 801 l 1
 319 909 l 1
 374 909 l 1
 507 801 l 1
 471 760 l 1
342 700 m 0
 427 700 475 676 529 633 c 1
 482 577 l 1
 438 612 397 628 347 628 c 0
 239 628 150 555 150 344 c 0
 150 143 236 62 346 62 c 0
 412 62 454 90 493 120 c 1
 537 64 l 1
 499 25 434 -12 343 -12 c 0
 178 -12 58 113 58 344 c 0
 58 578 186 700 342 700 c 0
EndSplineSet
Substitution2: "'c2sc' Capitals to Small Capitals lookup 26 subtable" ccircumflex.sc
Substitution2: "'aalt' Access All Alternates lookup 0 subtable" ccircumflex.sc
Position2: "'cpsp' Capital Spacing lookup 0 subtable" dx=5 dy=0 dh=10 dv=0
EndChar
StartChar: ccircumflex
Encoding: 265 265 385
Width: 476
GlyphClass: 2
Flags: MW
HStem: -12 72<247 312.5 247 317> 468 70<247 312.5>
VStem: 59 90<190 330.5 190 343>
AnchorPoint: "Anchor-14" 0 0 basechar 0
AnchorPoint: "Anchor-13" 0 0 basechar 0
AnchorPoint: "Anchor-12" 290 789 basechar 0
AnchorPoint: "Anchor-11" 0 0 basechar 0
AnchorPoint: "Anchor-10" 284 0 basechar 0
LayerCount: 2
Back
Fore
SplineSet
162 636 m 1
 126 678 l 1
 260 789 l 1
 315 789 l 1
 449 678 l 1
 413 636 l 1
 288 720 l 1
 162 636 l 1
287 538 m 0
 348 538 397 522 445 482 c 1
 404 429 l 1
 369 455 335 468 290 468 c 0
 204 468 149 401 149 260 c 0
 149 120 204 60 290 60 c 0
 335 60 367 74 406 101 c 1
 445 46 l 1
 400 8 347 -12 287 -12 c 0
 147 -12 59 89 59 259 c 0
 59 427 146 538 287 538 c 0
EndSplineSet
Substitution2: "'smcp' Lowercase to Small Capitals lookup 27 subtable" ccircumflex.sc
Substitution2: "'aalt' Access All Alternates lookup 0 subtable" ccircumflex.sc
EndChar

StartChar: Cdotaccent
Encoding: 266 266 19
Width: 558
GlyphClass: 2
Flags: MW
HStem: -12 74<291 379 291 388.5> 628 72<293 372> 784 116<327.5 363>
VStem: 58 92<243.5 449.5 243.5 461> 286 119<825.5 858.5>
AnchorPoint: "Anchor-11" 345 0 basechar 0
AnchorPoint: "Anchor-10" 0 0 basechar 0
AnchorPoint: "Anchor-9" 346 688 basechar 0
AnchorPoint: "Anchor-8" 0 0 basechar 0
LayerCount: 2
Fore
SplineSet
345 900 m 0
 381 900 405 875 405 842 c 0
 405 809 381 784 345 784 c 0
 310 784 286 809 286 842 c 0
 286 875 310 900 345 900 c 0
342 700 m 0
 427 700 475 676 529 633 c 1
 482 577 l 1
 438 612 397 628 347 628 c 0
 239 628 150 555 150 344 c 0
 150 143 236 62 346 62 c 0
 412 62 454 90 493 120 c 1
 537 64 l 1
 499 25 434 -12 343 -12 c 0
 178 -12 58 113 58 344 c 0
 58 578 186 700 342 700 c 0
EndSplineSet
Substitution2: "'c2sc' Capitals to Small Capitals lookup 23 subtable" cdotaccent.sc
Substitution2: "'aalt' Access All Alternates lookup 0 subtable" cdotaccent.sc
Position2: "'cpsp' Capital Spacing lookup 0 subtable" dx=5 dy=0 dh=10 dv=0
EndChar
StartChar: cdotaccent
Encoding: 267 267 387
Width: 476
GlyphClass: 2
Flags: MW
HStem: -12 72<247 312.5 247 317> 468 70<247 312.5> 658 116<269.5 305>
VStem: 59 90<190 330.5 190 343> 228 119<699.5 732.5>
AnchorPoint: "Anchor-14" 0 0 basechar 0
AnchorPoint: "Anchor-13" 0 0 basechar 0
AnchorPoint: "Anchor-12" 290 763 basechar 0
AnchorPoint: "Anchor-11" 0 0 basechar 0
AnchorPoint: "Anchor-10" 284 0 basechar 0
LayerCount: 2
Back
Fore
SplineSet
287 774 m 0
 323 774 347 749 347 716 c 0
 347 683 323 658 287 658 c 0
 252 658 228 683 228 716 c 0
 228 749 252 774 287 774 c 0
287 538 m 0
 348 538 397 522 445 482 c 1
 404 429 l 1
 369 455 335 468 290 468 c 0
 204 468 149 401 149 260 c 0
 149 120 204 60 290 60 c 0
 335 60 367 74 406 101 c 1
 445 46 l 1
 400 8 347 -12 287 -12 c 0
 147 -12 59 89 59 259 c 0
 59 427 146 538 287 538 c 0
EndSplineSet
Substitution2: "'smcp' Lowercase to Small Capitals lookup 27 subtable" cdotaccent.sc
Substitution2: "'aalt' Access All Alternates lookup 0 subtable" cdotaccent.sc
EndChar
StartChar: ccaron
Encoding: 269 269 383
Width: 476
GlyphClass: 2
Flags: MW
HStem: -12 72<247 312.5 247 317> 468 70<247 312.5> 628 69<288 288 288 316 261 288> 677 20G<288 288> 720 20G<126 126 449 449>
VStem: 59 90<190 330.5 190 343>
AnchorPoint: "Anchor-14" 0 0 basechar 0
AnchorPoint: "Anchor-13" 0 0 basechar 0
AnchorPoint: "Anchor-12" 290 781 basechar 0
AnchorPoint: "Anchor-11" 0 0 basechar 0
AnchorPoint: "Anchor-10" 284 0 basechar 0
LayerCount: 2
Back
Fore
SplineSet
413 781 m 1xdc
 449 740 l 1
 316 628 l 1
 261 628 l 1xec
 126 740 l 1
 163 781 l 1
 288 697 l 1
 413 781 l 1xdc
287 538 m 0
 348 538 397 522 445 482 c 1
 404 429 l 1
 369 455 335 468 290 468 c 0
 204 468 149 401 149 260 c 0
 149 120 204 60 290 60 c 0
 335 60 367 74 406 101 c 1
 445 46 l 1
 400 8 347 -12 287 -12 c 0
 147 -12 59 89 59 259 c 0
 59 427 146 538 287 538 c 0
EndSplineSet
Substitution2: "'smcp' Lowercase to Small Capitals lookup 27 subtable" ccaron.sc
Substitution2: "'aalt' Access All Alternates lookup 0 subtable" ccaron.sc
EndChar
StartChar: Dcaron
Encoding: 270 270 57
Width: 641
GlyphClass: 2
Flags: MW
HStem: 0 69<189 263> 618 70<189 245 245 263 189 189>
VStem: 103 86<69 618 69 688 69 688> 491 93<232.5 466.5>
AnchorPoint: "Anchor-14" 322 344 basechar 0
AnchorPoint: "Anchor-13" 0 0 basechar 0
AnchorPoint: "Anchor-12" 304 904 basechar 0
AnchorPoint: "Anchor-11" 0 0 basechar 0
AnchorPoint: "Anchor-10" 300 0 basechar 0
LayerCount: 2
Back
Fore
SplineSet
427 904 m 1
 463 862 l 1
 330 755 l 1
 275 755 l 1
 140 862 l 1
 177 904 l 1
 302 823 l 1
 427 904 l 1
245 688 m 2
 417 688 584 633 584 348 c 0
 584 66 410 0 263 0 c 2
 103 0 l 1
 103 688 l 1
 245 688 l 2
263 618 m 2
 189 618 l 1
 189 69 l 1
 270 69 l 2
 380 69 491 117 491 348 c 0
 491 585 375 618 263 618 c 2
EndSplineSet
Substitution2: "'c2sc' Capitals to Small Capitals lookup 26 subtable" dcaron.sc
Substitution2: "'aalt' Access All Alternates lookup 0 subtable" dcaron.sc
Position2: "'cpsp' Capital Spacing lookup 0 subtable" dx=5 dy=0 dh=10 dv=0
EndChar

StartChar: dcaron
Encoding: 271 271 155
Width: 595
GlyphClass: 2
Flags: MW
HStem: -12 67<239.5 295.5> 0 21G<424 497 424 424> 471 67<247 302 205.5 315.5> 546 20G<552 552> 718 20G<497 497 645 645> 727 20G<569 569> 728 20G<413 413>
VStem: 64 90<192 332 192 341.5> 413 84<138 400 400 400 472 738 0 748 0 748>
LayerCount: 2
Fore
SplineSet
413 748 m 1xa380
 497 738 l 1
 497 0 l 1
 424 0 l 1x6980
 415 74 l 1
 382 22 329 -12 262 -12 c 0
 135 -12 64 96 64 261 c 0
 64 422 141 538 270 538 c 0
 334 538 379 508 413 472 c 1
 413 748 l 1xa380
645 738 m 1
 601 559 l 1
 552 566 l 1
 569 747 l 1xb580
 645 738 l 1
279 55 m 0
 340 55 378 85 413 138 c 1
 413 400 l 1
 381 443 343 471 288 471 c 0xa380
 206 471 154 402 154 262 c 0
 154 122 200 55 279 55 c 0
EndSplineSet
Substitution2: "'smcp' Lowercase to Small Capitals lookup 24 subtable" dcaron.sc
Substitution2: "'aalt' Access All Alternates lookup 0 subtable" dcaron.sc
EndChar
StartChar: Dcroat
Encoding: 272 272 59
Width: 651
GlyphClass: 2
Flags: MW
HStem: 0 69<200 274> 320 65<21 113 21 113 200 361> 618 70<200 255 255 273 200 200>
VStem: 113 87<69 320 69 320 69 320 385 618> 502 92<232.5 466.5>
AnchorPoint: "Anchor-14" 333 344 basechar 0
AnchorPoint: "Anchor-13" 0 0 basechar 0
AnchorPoint: "Anchor-12" 313 688 basechar 0
AnchorPoint: "Anchor-11" 0 0 basechar 0
AnchorPoint: "Anchor-10" 310 0 basechar 0
LayerCount: 2
Back
Fore
SplineSet
255 688 m 2
 427 688 594 633 594 348 c 0
 594 66 421 0 274 0 c 2
 113 0 l 1
 113 320 l 1
 21 320 l 1
 21 385 l 1
 113 385 l 1
 113 688 l 1
 255 688 l 2
280 69 m 2
 390 69 502 117 502 348 c 0
 502 585 385 618 273 618 c 2
 200 618 l 1
 200 385 l 1
 361 385 l 1
 361 320 l 1
 200 320 l 1
 200 69 l 1
 280 69 l 2
EndSplineSet
Substitution2: "'c2sc' Capitals to Small Capitals lookup 26 subtable" dcroat.sc
Substitution2: "'aalt' Access All Alternates lookup 0 subtable" dcroat.sc
Position2: "'cpsp' Capital Spacing lookup 0 subtable" dx=5 dy=0 dh=10 dv=0
EndChar
StartChar: dcroat
Encoding: 273 273 396
Width: 604
GlyphClass: 2
Flags: MW
HStem: -12 67<239.5 295.5> 0 21G<424 497 424 424> 471 67<247 302 205.5 315.5> 608 65<254 413 254 413 497 576> 718 20G<497 497> 728 20G<413 413>
VStem: 64 90<192 332 192 341.5> 413 84<138 399 399 399 472 608 0 608 673 738>
AnchorPoint: "Anchor-14" 302 263 basechar 0
AnchorPoint: "Anchor-13" 510 738 basechar 0
AnchorPoint: "Anchor-12" 298 738 basechar 0
AnchorPoint: "Anchor-11" 0 0 basechar 0
AnchorPoint: "Anchor-10" 307 0 basechar 0
LayerCount: 2
Back
Fore
SplineSet
497 673 m 1xb7
 576 673 l 1
 576 608 l 1
 497 608 l 1
 497 0 l 1
 424 0 l 1x77
 415 74 l 1
 382 22 329 -12 262 -12 c 0
 135 -12 64 96 64 261 c 0
 64 422 141 538 270 538 c 0
 334 538 380 508 413 472 c 1
 413 608 l 1
 254 608 l 1
 254 673 l 1
 413 673 l 1
 413 748 l 1xb7
 497 738 l 1xbb
 497 673 l 1xb7
279 55 m 0xb7
 341 55 378 86 413 138 c 1
 413 399 l 1
 381 442 343 471 288 471 c 0
 206 471 154 402 154 262 c 0
 154 122 200 55 279 55 c 0xb7
EndSplineSet
Substitution2: "'smcp' Lowercase to Small Capitals lookup 27 subtable" dcroat.sc
Substitution2: "'aalt' Access All Alternates lookup 0 subtable" dcroat.sc
EndChar
StartChar: Ebreve
Encoding: 276 276 69
Width: 530
GlyphClass: 2
Flags: MW
HStem: 0 70<189 477 189 477> 316 70<189 424 189 424> 618 70<189 460 189 189> 760 64<264.5 311.5 264.5 327.5>
VStem: 103 86<70 316 386 618>
AnchorPoint: "Anchor-14" 0 0 basechar 0
AnchorPoint: "Anchor-13" 0 0 basechar 0
AnchorPoint: "Anchor-12" 292 889 basechar 0
AnchorPoint: "Anchor-11" 449 0 basechar 0
AnchorPoint: "Anchor-10" 290 0 basechar 0
LayerCount: 2
Back
Fore
SplineSet
288 760 m 0
 211 760 151 807 143 877 c 1
 199 889 l 1
 213 850 241 824 288 824 c 0
 335 824 366 850 380 889 c 1
 436 877 l 1
 428 807 367 760 288 760 c 0
470 688 m 1
 460 618 l 1
 189 618 l 1
 189 386 l 1
 424 386 l 1
 424 316 l 1
 189 316 l 1
 189 70 l 1
 477 70 l 1
 477 0 l 1
 103 0 l 1
 103 688 l 1
 470 688 l 1
EndSplineSet
Substitution2: "'c2sc' Capitals to Small Capitals lookup 26 subtable" ebreve.sc
Substitution2: "'aalt' Access All Alternates lookup 0 subtable" ebreve.sc
Position2: "'cpsp' Capital Spacing lookup 0 subtable" dx=5 dy=0 dh=10 dv=0
EndChar

StartChar: ebreve
Encoding: 277 277 159
Width: 547
GlyphClass: 2
Flags: MW
HStem: -12 69<255 321.5 255 325> 234 62<148 406 148 487 148 406> 471 67<240.5 320.5> 645 65<252.5 299.5 252.5 315.5>
VStem: 59 89<234 234 234 296 234 340.5> 406 83<296 304 304 357>
AnchorPoint: "Anchor-11" 292 0 basechar 0
AnchorPoint: "Anchor-10" 0 0 basechar 0
AnchorPoint: "Anchor-9" 278 526 basechar 0
AnchorPoint: "Anchor-8" 396 6 basechar 0
LayerCount: 2
Fore
SplineSet
276 645 m 0
 199 645 139 693 131 773 c 1
 187 785 l 1
 201 736 229 710 276 710 c 0
 323 710 354 736 368 785 c 1
 424 773 l 1
 416 693 355 645 276 645 c 0
489 280 m 0
 489 262 488 245 487 234 c 1
 148 234 l 1
 157 107 215 57 295 57 c 0
 348 57 387 72 433 104 c 1
 470 54 l 1
 419 13 361 -12 289 -12 c 0
 144 -12 59 91 59 258 c 0
 59 423 141 538 275 538 c 0
 416 538 489 439 489 280 c 0
406 296 m 1
 406 304 l 2
 406 410 364 471 277 471 c 0
 204 471 155 419 148 296 c 1
 406 296 l 1
EndSplineSet
Substitution2: "'smcp' Lowercase to Small Capitals lookup 24 subtable" ebreve.sc
Substitution2: "'aalt' Access All Alternates lookup 0 subtable" ebreve.sc
EndChar
StartChar: Edotaccent
Encoding: 278 278 80
Width: 530
GlyphClass: 2
Flags: MW
HStem: 0 70<189 477 189 477> 316 70<189 424 189 424> 618 70<189 460 189 189> 784 116<271.5 307>
VStem: 103 86<70 316 386 618> 230 119<825.5 858.5>
AnchorPoint: "Anchor-14" 0 0 basechar 0
AnchorPoint: "Anchor-13" 0 0 basechar 0
AnchorPoint: "Anchor-12" 292 900 basechar 0
AnchorPoint: "Anchor-11" 449 0 basechar 0
AnchorPoint: "Anchor-10" 290 0 basechar 0
LayerCount: 2
Back
Fore
SplineSet
289 900 m 0
 325 900 349 875 349 842 c 0
 349 809 325 784 289 784 c 0
 254 784 230 809 230 842 c 0
 230 875 254 900 289 900 c 0
470 688 m 1
 460 618 l 1
 189 618 l 1
 189 386 l 1
 424 386 l 1
 424 316 l 1
 189 316 l 1
 189 70 l 1
 477 70 l 1
 477 0 l 1
 103 0 l 1
 103 688 l 1
 470 688 l 1
EndSplineSet
Substitution2: "'c2sc' Capitals to Small Capitals lookup 26 subtable" edotaccent.sc
Substitution2: "'aalt' Access All Alternates lookup 0 subtable" edotaccent.sc
Position2: "'cpsp' Capital Spacing lookup 0 subtable" dx=5 dy=0 dh=10 dv=0
EndChar
StartChar: Eogonek
Encoding: 280 280 86
Width: 530
GlyphClass: 2
Flags: MW
HStem: -229 65<353 376.5> 0 70<189 344 439 477 439 439> 316 70<189 424 189 424> 618 70<189 460 189 189>
VStem: 103 86<70 70 70 316 386 618> 242 74<-130 -103>
AnchorPoint: "Anchor-14" 0 0 basechar 0
AnchorPoint: "Anchor-13" 0 0 basechar 0
AnchorPoint: "Anchor-12" 290 688 basechar 0
AnchorPoint: "Anchor-11" 449 0 basechar 0
AnchorPoint: "Anchor-10" 290 0 basechar 0
LayerCount: 2
Back
Fore
SplineSet
189 70 m 1
 477 70 l 1
 477 0 l 1
 439 0 l 1
 340 -43 316 -76 316 -115 c 0
 316 -145 332 -164 374 -164 c 0
 394 -164 411 -162 434 -157 c 1
 426 -222 l 1
 406 -226 389 -229 364 -229 c 0
 288 -229 242 -186 242 -130 c 0
 242 -76 275 -34 344 0 c 1
 103 0 l 1
 103 688 l 1
 470 688 l 1
 460 618 l 1
 189 618 l 1
 189 386 l 1
 424 386 l 1
 424 316 l 1
 189 316 l 1
 189 70 l 1
EndSplineSet
Substitution2: "'c2sc' Capitals to Small Capitals lookup 26 subtable" eogonek.sc
Substitution2: "'aalt' Access All Alternates lookup 0 subtable" eogonek.sc
Position2: "'cpsp' Capital Spacing lookup 0 subtable" dx=5 dy=0 dh=10 dv=0
EndChar
StartChar: eogonek
Encoding: 281 281 429
Width: 547
GlyphClass: 2
Flags: MW
HStem: -223 65<300 323.5> -11 68 234 62<148 406 148 487 148 406> 471 67<240.5 320.5>
VStem: 59 89<234 234 234 296 234 340.5> 189 74<-124 -101> 406 83<296 304 304 357>
AnchorPoint: "Anchor-14" 0 0 basechar 0
AnchorPoint: "Anchor-13" 0 0 basechar 0
AnchorPoint: "Anchor-12" 278 526 basechar 0
AnchorPoint: "Anchor-11" 396 6 basechar 0
AnchorPoint: "Anchor-10" 292 0 basechar 0
LayerCount: 2
Back
Fore
SplineSet
489 280 m 0
 489 262 488 245 487 234 c 1
 148 234 l 1
 156 107 216 57 295 57 c 0
 348 57 387 72 433 104 c 1
 470 54 l 1
 442 31 411 13 377 2 c 0
 286 -39 263 -71 263 -109 c 0
 263 -139 279 -158 321 -158 c 0
 342 -158 358 -156 381 -151 c 1
 373 -216 l 1
 353 -220 336 -223 311 -223 c 0
 235 -223 189 -180 189 -124 c 0
 189 -78 217 -39 272 -11 c 1
 137 -3 59 97 59 258 c 0
 59 423 141 538 275 538 c 0
 416 538 489 439 489 280 c 0
406 296 m 1
 406 304 l 2
 406 410 364 471 277 471 c 0
 204 471 155 419 148 296 c 1
 406 296 l 1
EndSplineSet
Substitution2: "'smcp' Lowercase to Small Capitals lookup 27 subtable" eogonek.sc
Substitution2: "'aalt' Access All Alternates lookup 0 subtable" eogonek.sc
EndChar
StartChar: ecaron
Encoding: 283 283 413
Width: 547
GlyphClass: 2
Flags: MW
HStem: -12 69<255.5 321.5 255.5 325> 234 62<148 406 148 487 148 406> 471 67<240.5 320.5> 628 69<279 279 279 307 252 279> 720 20G<117 117 440 440>
VStem: 59 89<234 234 234 296 234 340.5> 406 83<296 304 304 357>
AnchorPoint: "Anchor-14" 0 0 basechar 0
AnchorPoint: "Anchor-13" 0 0 basechar 0
AnchorPoint: "Anchor-12" 281 781 basechar 0
AnchorPoint: "Anchor-11" 396 6 basechar 0
AnchorPoint: "Anchor-10" 292 0 basechar 0
LayerCount: 2
Back
Fore
SplineSet
307 628 m 1
 252 628 l 1
 117 740 l 1
 154 781 l 1
 279 697 l 1
 404 781 l 1
 440 740 l 1
 307 628 l 1
489 280 m 0
 489 262 488 245 487 234 c 1
 148 234 l 1
 156 107 216 57 295 57 c 0
 348 57 387 72 433 104 c 1
 470 54 l 1
 419 13 361 -12 289 -12 c 0
 144 -12 59 91 59 258 c 0
 59 423 141 538 275 538 c 0
 416 538 489 439 489 280 c 0
406 296 m 1
 406 304 l 2
 406 410 364 471 277 471 c 0
 204 471 155 419 148 296 c 1
 406 296 l 1
EndSplineSet
Substitution2: "'smcp' Lowercase to Small Capitals lookup 27 subtable" ecaron.sc
Substitution2: "'aalt' Access All Alternates lookup 0 subtable" ecaron.sc
EndChar
StartChar: Gcircumflex
Encoding: 284 284 103
Width: 628
GlyphClass: 2
Flags: MW
HStem: -12 72<283 369.5 283 385.5> 308 71<354 479 354 354> 628 72<302.5 384>
VStem: 58 92<244.5 448 244.5 461.5> 479 86<93 308 308 308>
AnchorPoint: "Anchor-14" 0 0 basechar 0
AnchorPoint: "Anchor-13" 463 779 basechar 0
AnchorPoint: "Anchor-12" 354 909 basechar 0
AnchorPoint: "Anchor-11" 0 0 basechar 0
AnchorPoint: "Anchor-10" 342 0 basechar 0
LayerCount: 2
Back
Fore
SplineSet
479 760 m 1
 354 841 l 1
 229 760 l 1
 192 801 l 1
 327 909 l 1
 382 909 l 1
 515 801 l 1
 479 760 l 1
351 700 m 0
 442 700 498 674 556 626 c 1
 505 573 l 1
 457 611 415 628 353 628 c 0
 252 628 150 551 150 345 c 0
 150 144 221 60 345 60 c 0
 394 60 439 70 479 93 c 1
 479 308 l 1
 354 308 l 1
 344 379 l 1
 565 379 l 1
 565 48 l 1
 503 11 432 -12 339 -12 c 0
 169 -12 58 107 58 345 c 0
 58 578 199 700 351 700 c 0
EndSplineSet
Substitution2: "'c2sc' Capitals to Small Capitals lookup 26 subtable" gcircumflex.sc
Substitution2: "'aalt' Access All Alternates lookup 0 subtable" gcircumflex.sc
Position2: "'cpsp' Capital Spacing lookup 0 subtable" dx=5 dy=0 dh=10 dv=0
EndChar
StartChar: gcircumflex
Encoding: 285 285 456
Width: 516
GlyphClass: 2
Flags: MW
HStem: -211 66<192 309 192 331.5> 19 71<170 316 232 299> 177 56<244 290.5 216 318> 477 61<213.5 251 193 290> 489 49
VStem: 27 76<-85.5 -54 -85.5 -54> 51 86<321.5 391 319 409.5> 82 78<122.5 134.5> 368 86<317 386 302.5 395> 408 85<-86.5 -33>
AnchorPoint: "Anchor-14" 0 0 basechar 0
AnchorPoint: "Anchor-13" 0 0 basechar 0
AnchorPoint: "Anchor-12" 260 789 basechar 0
AnchorPoint: "Anchor-11" 0 0 basechar 0
AnchorPoint: "Anchor-10" 252 -201 basechar 0
LayerCount: 2
Back
Fore
SplineSet
132 636 m 1xf280
 96 678 l 1
 230 789 l 1
 285 789 l 1
 419 678 l 1
 383 636 l 1
 258 720 l 1
 132 636 l 1xf280
489 582 m 1
 514 505 l 1
 472 492 423 490 362 489 c 1
 423 462 454 418 454 354 c 0
 454 251 380 177 256 177 c 0
 232 177 210 180 189 187 c 1
 171 175 160 156 160 135 c 0
 160 110 176 90 232 90 c 2xe980
 316 90 l 2
 423 90 493 29 493 -53 c 0
 493 -154 412 -211 251 -211 c 0
 82 -211 27 -160 27 -54 c 1
 103 -54 l 1xf440
 103 -117 133 -145 251 -145 c 0
 367 -145 408 -114 408 -59 c 0
 408 -7 367 19 299 19 c 2
 216 19 l 2
 124 19 82 65 82 117 c 0xf140
 82 152 102 185 139 209 c 1
 79 241 51 287 51 356 c 0
 51 463 135 538 251 538 c 0
 384 535 430 555 489 582 c 1
251 477 m 0xf280
 176 477 137 426 137 356 c 0
 137 282 179 233 253 233 c 0
 328 233 368 278 368 356 c 0
 368 434 329 477 251 477 c 0xf280
EndSplineSet
Substitution2: "'smcp' Lowercase to Small Capitals lookup 27 subtable" gcircumflex.sc
Substitution2: "'aalt' Access All Alternates lookup 0 subtable" gcircumflex.sc
EndChar

StartChar: gbreve
Encoding: 287 287 169
Width: 516
GlyphClass: 2
Flags: MW
HStem: -211 66<192 309 192 331.5> 19 71<170 316 232 299> 177 56<244 290.5 216 318> 477 61<213.5 251 193 290> 489 49 645 65<230.5 277.5 230.5 293.5>
VStem: 27 76<-85.5 -54 -85.5 -54> 51 86<321.5 391 319 409.5> 82 78<122.5 134.5> 368 86<317 386 302.5 395> 408 85<-86.5 -33>
AnchorPoint: "Anchor-11" 0 0 basechar 0
AnchorPoint: "Anchor-10" 0 0 basechar 0
AnchorPoint: "Anchor-9" 256 526 basechar 0
AnchorPoint: "Anchor-8" 0 0 basechar 0
LayerCount: 2
Fore
SplineSet
254 645 m 0xf540
 177 645 117 693 109 773 c 1
 165 785 l 1
 179 736 207 710 254 710 c 0
 301 710 332 736 346 785 c 1
 402 773 l 1
 394 693 333 645 254 645 c 0xf540
514 505 m 1
 472 492 423 490 362 489 c 1
 423 462 454 418 454 354 c 0
 454 251 380 177 256 177 c 0
 232 177 210 180 189 187 c 1
 171 175 160 156 160 135 c 0
 160 110 176 90 232 90 c 2xecc0
 316 90 l 2
 423 90 493 29 493 -53 c 0
 493 -154 412 -211 251 -211 c 0
 82 -211 27 -160 27 -54 c 1
 103 -54 l 1xf620
 103 -117 133 -145 251 -145 c 0
 367 -145 408 -114 408 -59 c 0
 408 -7 367 19 299 19 c 2
 216 19 l 2
 124 19 82 65 82 117 c 0xf4a0
 82 152 102 185 139 209 c 1
 79 241 51 287 51 356 c 0
 51 463 135 538 251 538 c 1
 384 535 430 555 489 582 c 1
 514 505 l 1
251 477 m 0
 176 477 137 426 137 356 c 0
 137 282 179 233 253 233 c 0
 328 233 368 278 368 356 c 0
 368 434 329 477 251 477 c 0
EndSplineSet
Substitution2: "'smcp' Lowercase to Small Capitals lookup 24 subtable" gbreve.sc
Substitution2: "'aalt' Access All Alternates lookup 0 subtable" gbreve.sc
EndChar
StartChar: Gdotaccent
Encoding: 288 288 105
Width: 628
GlyphClass: 2
Flags: MW
HStem: -12 72<283 369.5 283 385.5> 308 71<354 479 354 354> 628 72<302.5 384> 784 116<335.5 371>
VStem: 58 92<244.5 448 244.5 461.5> 294 119<825.5 858.5> 479 86<93 308 308 308>
AnchorPoint: "Anchor-14" 0 0 basechar 0
AnchorPoint: "Anchor-13" 0 0 basechar 0
AnchorPoint: "Anchor-12" 356 900 basechar 0
AnchorPoint: "Anchor-11" 0 0 basechar 0
AnchorPoint: "Anchor-10" 342 0 basechar 0
LayerCount: 2
Back
Fore
SplineSet
353 900 m 0
 389 900 413 875 413 842 c 0
 413 809 389 784 353 784 c 0
 318 784 294 809 294 842 c 0
 294 875 318 900 353 900 c 0
351 700 m 0
 442 700 498 674 556 626 c 1
 505 573 l 1
 457 611 415 628 353 628 c 0
 252 628 150 551 150 345 c 0
 150 144 221 60 345 60 c 0
 394 60 439 70 479 93 c 1
 479 308 l 1
 354 308 l 1
 344 379 l 1
 565 379 l 1
 565 48 l 1
 503 11 432 -12 339 -12 c 0
 169 -12 58 107 58 345 c 0
 58 578 199 700 351 700 c 0
EndSplineSet
Substitution2: "'c2sc' Capitals to Small Capitals lookup 26 subtable" gdotaccent.sc
Substitution2: "'aalt' Access All Alternates lookup 0 subtable" gdotaccent.sc
Position2: "'cpsp' Capital Spacing lookup 0 subtable" dx=5 dy=0 dh=10 dv=0
EndChar

StartChar: gdotaccent
Encoding: 289 289 172
Width: 516
GlyphClass: 2
Flags: MW
HStem: -211 66<192 309 192 331.5> 19 71<170 316 232 299> 177 56<244 290.5 216 318> 477 61<213.5 251 193 290> 489 49 658 116<237.5 273>
VStem: 27 76<-85.5 -54 -85.5 -54> 51 86<321.5 391 319 409.5> 82 78<122.5 134.5> 196 119<699.5 732.5> 368 86<317 386 302.5 395> 408 85<-86.5 -33>
AnchorPoint: "Anchor-11" 0 0 basechar 0
AnchorPoint: "Anchor-10" 0 0 basechar 0
AnchorPoint: "Anchor-9" 256 526 basechar 0
AnchorPoint: "Anchor-8" 0 0 basechar 0
LayerCount: 2
Fore
SplineSet
255 774 m 0xf560
 291 774 315 749 315 716 c 0
 315 683 291 658 255 658 c 0
 220 658 196 683 196 716 c 0
 196 749 220 774 255 774 c 0xf560
514 505 m 1
 472 492 423 490 362 489 c 1
 423 462 454 418 454 354 c 0
 454 251 380 177 256 177 c 0
 232 177 210 180 189 187 c 1
 171 175 160 156 160 135 c 0
 160 110 176 90 232 90 c 2xece0
 316 90 l 2
 423 90 493 29 493 -53 c 0
 493 -154 412 -211 251 -211 c 0
 82 -211 27 -160 27 -54 c 1
 103 -54 l 1xf650
 103 -117 133 -145 251 -145 c 0
 367 -145 408 -114 408 -59 c 0
 408 -7 367 19 299 19 c 2
 216 19 l 2
 124 19 82 65 82 117 c 0xf4d0
 82 152 102 185 139 209 c 1
 79 241 51 287 51 356 c 0
 51 463 135 538 251 538 c 1
 384 535 430 555 489 582 c 1
 514 505 l 1
251 477 m 0
 176 477 137 426 137 356 c 0
 137 282 179 233 253 233 c 0
 328 233 368 278 368 356 c 0
 368 434 329 477 251 477 c 0
EndSplineSet
Substitution2: "'smcp' Lowercase to Small Capitals lookup 24 subtable" gdotaccent.sc
Substitution2: "'aalt' Access All Alternates lookup 0 subtable" gdotaccent.sc
EndChar
StartChar: Gcommaaccent
Encoding: 290 290 104
Width: 628
GlyphClass: 2
Flags: MW
HStem: -12 72<283 369.5 283 385.5> 308 71<354 479 354 354> 628 72<302.5 384>
VStem: 58 92<244.5 448 244.5 461.5> 290 109<-140 -117 -140 -117> 479 86<93 308 308 308>
AnchorPoint: "Anchor-14" 0 0 basechar 0
AnchorPoint: "Anchor-13" 0 0 basechar 0
AnchorPoint: "Anchor-12" 354 688 basechar 0
AnchorPoint: "Anchor-11" 0 0 basechar 0
AnchorPoint: "Anchor-10" 342 0 basechar 0
LayerCount: 2
Back
Fore
SplineSet
351 700 m 0
 442 700 498 674 556 626 c 1
 505 573 l 1
 457 611 415 628 353 628 c 0
 252 628 150 551 150 345 c 0
 150 144 221 60 345 60 c 0
 394 60 439 70 479 93 c 1
 479 308 l 1
 354 308 l 1
 344 379 l 1
 565 379 l 1
 565 48 l 1
 503 11 432 -12 339 -12 c 0
 169 -12 58 107 58 345 c 0
 58 578 199 700 351 700 c 0
345 -79 m 0
 376 -79 399 -102 399 -132 c 0
 399 -148 394 -164 374 -206 c 2
 333 -292 l 1
 284 -292 l 1
 314 -176 l 1
 300 -165 290 -150 290 -132 c 0
 290 -102 315 -79 345 -79 c 0
EndSplineSet
Substitution2: "'c2sc' Capitals to Small Capitals lookup 26 subtable" gcommaaccent.sc
Substitution2: "'aalt' Access All Alternates lookup 0 subtable" gcommaaccent.sc
Position2: "'cpsp' Capital Spacing lookup 0 subtable" dx=5 dy=0 dh=10 dv=0
EndChar

StartChar: gcommaaccent
Encoding: 291 291 171
Width: 516
GlyphClass: 2
Flags: MW
HStem: -211 66<192 309 192 331.5> 19 71<170 316 232 299> 177 56<244 290.5 216 318> 477 61<213.5 251 193 290> 489 49
VStem: 27 76<-85.5 -54 -85.5 -54> 51 86<321.5 391 319 409.5> 82 78<122.5 134.5> 199 109<643 666> 368 86<317 386 302.5 395> 408 85<-86.5 -33>
AnchorPoint: "Anchor-11" 0 0 basechar 0
AnchorPoint: "Anchor-10" 0 0 basechar 0
AnchorPoint: "Anchor-9" 256 526 basechar 0
AnchorPoint: "Anchor-8" 0 0 basechar 0
LayerCount: 2
Fore
SplineSet
253 605 m 0xf2c0
 222 605 199 628 199 658 c 0
 199 674 204 690 224 732 c 2
 265 818 l 1
 314 818 l 1
 284 702 l 1
 299 691 308 676 308 658 c 0
 308 628 284 605 253 605 c 0xf2c0
514 505 m 1
 472 492 423 490 362 489 c 1
 423 462 454 418 454 354 c 0
 454 251 380 177 256 177 c 0
 232 177 210 180 189 187 c 1
 171 175 160 156 160 135 c 0
 160 110 176 90 232 90 c 2xe9c0
 316 90 l 2
 423 90 493 29 493 -53 c 0
 493 -154 412 -211 251 -211 c 0
 82 -211 27 -160 27 -54 c 1
 103 -54 l 1xf4a0
 103 -117 133 -145 251 -145 c 0
 367 -145 408 -114 408 -59 c 0
 408 -7 367 19 299 19 c 2
 216 19 l 2
 124 19 82 65 82 117 c 0xf1a0
 82 152 102 185 139 209 c 1
 79 241 51 287 51 356 c 0
 51 463 135 538 251 538 c 1
 384 535 430 555 489 582 c 1
 514 505 l 1
251 477 m 0
 176 477 137 426 137 356 c 0
 137 282 179 233 253 233 c 0
 328 233 368 278 368 356 c 0
 368 434 329 477 251 477 c 0
EndSplineSet
Substitution2: "'smcp' Lowercase to Small Capitals lookup 24 subtable" gcommaaccent.sc
Substitution2: "'aalt' Access All Alternates lookup 0 subtable" gcommaaccent.sc
EndChar

StartChar: Hcircumflex
Encoding: 292 292 42
Width: 678
GlyphClass: 2
Flags: MW
HStem: 0 21G<103 189 103 103 488 488 488 575> 326 72<189 488 189 488> 668 20G<103 189 189 189 488 575 575 575> 841 68<339 339>
VStem: 103 86<0 326 0 398 398 688> 488 87<0 326 326 326 398 688 0 688>
AnchorPoint: "Anchor-11" 0 0 basechar 0
AnchorPoint: "Anchor-10" 90 688 basechar 0
AnchorPoint: "Anchor-9" 339 688 basechar 0
AnchorPoint: "Anchor-8" 0 0 basechar 0
LayerCount: 2
Fore
SplineSet
339 841 m 1
 214 760 l 1
 177 801 l 1
 312 909 l 1
 367 909 l 1
 500 801 l 1
 464 760 l 1
 339 841 l 1
488 326 m 1
 189 326 l 1
 189 0 l 1
 103 0 l 1
 103 688 l 1
 189 688 l 1
 189 398 l 1
 488 398 l 1
 488 688 l 1
 575 688 l 1
 575 0 l 1
 488 0 l 1
 488 326 l 1
EndSplineSet
Substitution2: "'c2sc' Capitals to Small Capitals lookup 23 subtable" hcircumflex.sc
Substitution2: "'aalt' Access All Alternates lookup 0 subtable" hcircumflex.sc
Position2: "'cpsp' Capital Spacing lookup 0 subtable" dx=5 dy=0 dh=10 dv=0
EndChar

StartChar: hcircumflex
Encoding: 293 293 175
Width: 585
GlyphClass: 2
Flags: MW
HStem: 0 21G<98 182 98 98 409 493 409 409> 472 66<308 348> 717 20G<98 98> 727 20G<182 182> 891 68<293 293>
VStem: 98 84<0 376 0 451 451 737 737 737> 409 84<0 365 365 377 0 405.5>
AnchorPoint: "Anchor-11" 0 0 basechar 0
AnchorPoint: "Anchor-10" 0 0 basechar 0
AnchorPoint: "Anchor-9" 293 738 basechar 0
AnchorPoint: "Anchor-8" 0 0 basechar 0
LayerCount: 2
Fore
SplineSet
168 810 m 1xde
 131 851 l 1
 266 959 l 1
 321 959 l 1
 454 851 l 1
 418 810 l 1
 293 891 l 1
 168 810 l 1xde
342 538 m 0
 437 538 493 476 493 377 c 2
 493 0 l 1
 409 0 l 1
 409 365 l 2
 409 446 375 472 321 472 c 0
 261 472 218 433 182 376 c 1
 182 0 l 1
 98 0 l 1
 98 737 l 1xee
 182 747 l 1
 182 451 l 1
 221 504 274 538 342 538 c 0
EndSplineSet
Substitution2: "'smcp' Lowercase to Small Capitals lookup 24 subtable" hcircumflex.sc
Substitution2: "'aalt' Access All Alternates lookup 0 subtable" hcircumflex.sc
EndChar
StartChar: Hbar
Encoding: 294 294 110
Width: 685
GlyphClass: 2
Flags: MW
HStem: 0 21G<106 193 106 106 492 579 492 492> 326 72<193 492 193 492> 509 63<38 106 38 106 193 492 579 647> 509 179<38 193 38 193 106 193 106 492>
VStem: 106 87<0 326 0 398 398 509 572 688> 492 87<0 326 326 326 398 509 0 509 572 688>
AnchorPoint: "Anchor-14" 342 344 basechar 0
AnchorPoint: "Anchor-13" 0 0 basechar 0
AnchorPoint: "Anchor-12" 342 688 basechar 0
AnchorPoint: "Anchor-11" 0 0 basechar 0
AnchorPoint: "Anchor-10" 342 0 basechar 0
LayerCount: 2
Back
Fore
SplineSet
647 572 m 1xec
 647 509 l 1
 579 509 l 1
 579 0 l 1
 492 0 l 1
 492 326 l 1
 193 326 l 1
 193 0 l 1
 106 0 l 1
 106 509 l 1
 38 509 l 1
 38 572 l 1
 106 572 l 1xec
 106 688 l 1
 193 688 l 1xdc
 193 572 l 1
 492 572 l 1xec
 492 688 l 1
 579 688 l 1xdc
 579 572 l 1
 647 572 l 1xec
492 398 m 1
 492 509 l 1
 193 509 l 1
 193 398 l 1
 492 398 l 1
EndSplineSet
Substitution2: "'c2sc' Capitals to Small Capitals lookup 26 subtable" hbar.sc
Substitution2: "'aalt' Access All Alternates lookup 0 subtable" hbar.sc
Position2: "'cpsp' Capital Spacing lookup 0 subtable" dx=5 dy=0 dh=10 dv=0
EndChar
StartChar: hbar
Encoding: 295 295 470
Width: 591
GlyphClass: 2
Flags: MW
HStem: 0 21G<103 187 103 103 415 499 415 415> 472 66<313 353.5> 608 65<28 103 28 103 187 342> 727 20G<187 187>
VStem: 103 84<0 376 0 450 450 608 673 737 737 737> 415 84<0 365 365 377 0 405.5>
AnchorPoint: "Anchor-14" 298 263 basechar 0
AnchorPoint: "Anchor-13" 0 0 basechar 0
AnchorPoint: "Anchor-12" 298 738 basechar 0
AnchorPoint: "Anchor-11" 0 0 basechar 0
AnchorPoint: "Anchor-10" 302 0 basechar 0
LayerCount: 2
Back
Fore
SplineSet
347 538 m 0
 443 538 499 476 499 377 c 2
 499 0 l 1
 415 0 l 1
 415 365 l 2
 415 446 380 472 327 472 c 0
 267 472 224 433 187 376 c 1
 187 0 l 1
 103 0 l 1
 103 608 l 1
 28 608 l 1
 28 673 l 1
 103 673 l 1
 103 737 l 1
 187 747 l 1
 187 673 l 1
 342 673 l 1
 342 608 l 1
 187 608 l 1
 187 450 l 1
 226 503 279 538 347 538 c 0
EndSplineSet
Substitution2: "'smcp' Lowercase to Small Capitals lookup 27 subtable" hbar.sc
Substitution2: "'aalt' Access All Alternates lookup 0 subtable" hbar.sc
EndChar

StartChar: Itilde
Encoding: 296 296 53
Width: 293
GlyphClass: 2
Flags: MW
HStem: 0 21G<103 190 103 103> 668 20G<103 190 190 190> 784 65<185.5 214 185.5 227> 832 64<76 106>
VStem: 103 87<0 688>
AnchorPoint: "Anchor-11" 0 0 basechar 0
AnchorPoint: "Anchor-10" 90 688 basechar 0
AnchorPoint: "Anchor-9" 146 688 basechar 0
AnchorPoint: "Anchor-8" 200 0 basechar 0
LayerCount: 2
Fore
SplineSet
207 784 m 0xe8
 149 784 124 832 88 832 c 0
 64 832 51 817 34 787 c 1
 -17 813 l 1
 6 860 40 896 89 896 c 0xd8
 141 896 167 849 204 849 c 0
 224 849 239 863 258 893 c 1
 309 867 l 1
 284 812 247 784 207 784 c 0xe8
190 0 m 1xd8
 103 0 l 1
 103 688 l 1
 190 688 l 1
 190 0 l 1xd8
EndSplineSet
Substitution2: "'c2sc' Capitals to Small Capitals lookup 23 subtable" itilde.sc
Substitution2: "'aalt' Access All Alternates lookup 0 subtable" itilde.sc
Position2: "'cpsp' Capital Spacing lookup 0 subtable" dx=5 dy=0 dh=10 dv=0
EndChar

StartChar: itilde
Encoding: 297 297 187
Width: 279
GlyphClass: 2
Flags: MW
HStem: 0 21G<98 182 98 98> 506 20G<98 182 182 182> 658 65<178.5 207 178.5 220> 667 20G<-24 -24> 706 64<69 99> 721 20G<302 302>
VStem: 98 84<0 526>
AnchorPoint: "Anchor-11" 0 0 basechar 0
AnchorPoint: "Anchor-10" 0 0 basechar 0
AnchorPoint: "Anchor-9" 140 526 basechar 0
AnchorPoint: "Anchor-8" 192 0 basechar 0
LayerCount: 2
Fore
SplineSet
200 658 m 0xe2
 142 658 117 706 81 706 c 0
 57 706 44 691 27 661 c 1
 -24 687 l 1
 -1 734 33 770 82 770 c 0xda
 134 770 160 723 197 723 c 0
 217 723 232 737 251 767 c 1xe2
 302 741 l 1xd6
 277 686 240 658 200 658 c 0xe2
182 0 m 1xd6
 98 0 l 1
 98 526 l 1
 182 526 l 1
 182 0 l 1xd6
EndSplineSet
Substitution2: "'smcp' Lowercase to Small Capitals lookup 24 subtable" itilde.sc
Substitution2: "'aalt' Access All Alternates lookup 0 subtable" itilde.sc
EndChar
StartChar: Imacron
Encoding: 298 298 132
Width: 292
GlyphClass: 2
Flags: MW
HStem: 0 21G<103 189 103 103> 668 20G<103 189 189 189> 795 64<12 277 12 277>
VStem: 103 86<0 688 0 688>
AnchorPoint: "Anchor-14" 0 0 basechar 0
AnchorPoint: "Anchor-13" 0 0 basechar 0
AnchorPoint: "Anchor-12" 147 859 basechar 0
AnchorPoint: "Anchor-11" 199 0 basechar 0
AnchorPoint: "Anchor-10" 146 0 basechar 0
LayerCount: 2
Back
Fore
SplineSet
277 795 m 1
 12 795 l 1
 12 859 l 1
 277 859 l 1
 277 795 l 1
189 688 m 1
 189 0 l 1
 103 0 l 1
 103 688 l 1
 189 688 l 1
EndSplineSet
Substitution2: "'c2sc' Capitals to Small Capitals lookup 26 subtable" imacron.sc
Substitution2: "'aalt' Access All Alternates lookup 0 subtable" imacron.sc
Position2: "'cpsp' Capital Spacing lookup 0 subtable" dx=5 dy=0 dh=10 dv=0
EndChar

StartChar: imacron
Encoding: 299 299 185
Width: 279
GlyphClass: 2
Flags: MW
HStem: 0 21G<98 182 98 98> 506 20G<98 182 182 182> 669 64<6 271 6 271>
VStem: 98 84<0 526>
AnchorPoint: "Anchor-11" 0 0 basechar 0
AnchorPoint: "Anchor-10" 0 0 basechar 0
AnchorPoint: "Anchor-9" 140 526 basechar 0
AnchorPoint: "Anchor-8" 192 0 basechar 0
LayerCount: 2
Fore
SplineSet
6 669 m 1
 6 733 l 1
 271 733 l 1
 271 669 l 1
 6 669 l 1
182 0 m 1
 98 0 l 1
 98 526 l 1
 182 526 l 1
 182 0 l 1
EndSplineSet
Substitution2: "'smcp' Lowercase to Small Capitals lookup 24 subtable" imacron.sc
Substitution2: "'aalt' Access All Alternates lookup 0 subtable" imacron.sc
EndChar
StartChar: Ibreve
Encoding: 300 300 121
Width: 292
GlyphClass: 2
Flags: MW
HStem: 0 21G<103 189 103 103> 668 20G<103 189 189 189> 760 64<119.5 166.5 119.5 182.5>
VStem: 103 86<0 688 0 688>
AnchorPoint: "Anchor-14" 0 0 basechar 0
AnchorPoint: "Anchor-13" 0 0 basechar 0
AnchorPoint: "Anchor-12" 147 889 basechar 0
AnchorPoint: "Anchor-11" 199 0 basechar 0
AnchorPoint: "Anchor-10" 146 0 basechar 0
LayerCount: 2
Back
Fore
SplineSet
143 760 m 0
 66 760 6 807 -2 877 c 1
 54 889 l 1
 68 850 96 824 143 824 c 0
 190 824 221 850 235 889 c 1
 291 877 l 1
 283 807 222 760 143 760 c 0
189 688 m 1
 189 0 l 1
 103 0 l 1
 103 688 l 1
 189 688 l 1
EndSplineSet
Substitution2: "'c2sc' Capitals to Small Capitals lookup 26 subtable" ibreve.sc
Substitution2: "'aalt' Access All Alternates lookup 0 subtable" ibreve.sc
Position2: "'cpsp' Capital Spacing lookup 0 subtable" dx=5 dy=0 dh=10 dv=0
EndChar
StartChar: ibreve
Encoding: 301 301 481
Width: 279
GlyphClass: 2
Flags: MW
HStem: 0 21G<98 182 98 98> 506 20G<98 182 182 182> 645 65<114.5 161.5 114.5 177.5>
VStem: 98 84<0 526 0 526>
AnchorPoint: "Anchor-14" 0 0 basechar 0
AnchorPoint: "Anchor-13" 0 0 basechar 0
AnchorPoint: "Anchor-12" 142 785 basechar 0
AnchorPoint: "Anchor-11" 192 0 basechar 0
AnchorPoint: "Anchor-10" 140 0 basechar 0
LayerCount: 2
Back
Fore
SplineSet
138 645 m 0
 61 645 1 693 -7 773 c 1
 49 785 l 1
 63 736 91 710 138 710 c 0
 185 710 216 736 230 785 c 1
 286 773 l 1
 278 693 217 645 138 645 c 0
182 526 m 1
 182 0 l 1
 98 0 l 1
 98 526 l 1
 182 526 l 1
EndSplineSet
Substitution2: "'smcp' Lowercase to Small Capitals lookup 27 subtable" ibreve.sc
Substitution2: "'aalt' Access All Alternates lookup 0 subtable" ibreve.sc
EndChar
StartChar: Iogonek
Encoding: 302 302 133
Width: 292
GlyphClass: 2
Flags: MW
HStem: -229 65<103 126.5> 0 21G<189 189> 668 20G<103 189 189 189>
VStem: -8 74<-130 -102> 103 86<4 688 0 688>
AnchorPoint: "Anchor-14" 0 0 basechar 0
AnchorPoint: "Anchor-13" 0 0 basechar 0
AnchorPoint: "Anchor-12" 145 688 basechar 0
AnchorPoint: "Anchor-11" 199 0 basechar 0
AnchorPoint: "Anchor-10" 146 0 basechar 0
LayerCount: 2
Back
Fore
SplineSet
103 688 m 1
 189 688 l 1
 189 0 l 1
 90 -43 66 -76 66 -115 c 0
 66 -145 82 -164 124 -164 c 0
 144 -164 161 -162 184 -157 c 1
 176 -222 l 1
 156 -226 139 -229 114 -229 c 0
 38 -229 -8 -186 -8 -130 c 0
 -8 -74 28 -30 103 4 c 1
 103 688 l 1
EndSplineSet
Substitution2: "'c2sc' Capitals to Small Capitals lookup 26 subtable" iogonek.sc
Substitution2: "'aalt' Access All Alternates lookup 0 subtable" iogonek.sc
Position2: "'cpsp' Capital Spacing lookup 0 subtable" dx=5 dy=0 dh=10 dv=0
EndChar

StartChar: iogonek
Encoding: 303 303 186
Width: 279
GlyphClass: 2
Flags: MW
HStem: -229 65<96 119.5> 0 21G<182 182> 506 20G<98 182 182 182> 658 116<121.5 157>
VStem: -15 74<-130 -101.5> 80 119<699.5 732.5> 98 84<5 526 0 526>
AnchorPoint: "Anchor-11" 0 0 basechar 0
AnchorPoint: "Anchor-10" 0 0 basechar 0
AnchorPoint: "Anchor-9" 140 526 basechar 0
AnchorPoint: "Anchor-8" 192 0 basechar 0
LayerCount: 2
Fore
SplineSet
139 774 m 0xf4
 175 774 199 749 199 716 c 0
 199 683 175 658 139 658 c 0
 104 658 80 683 80 716 c 0
 80 749 104 774 139 774 c 0xf4
98 526 m 1xfa
 182 526 l 1
 182 0 l 1
 83 -43 59 -76 59 -115 c 0
 59 -145 75 -164 117 -164 c 0
 138 -164 154 -162 177 -157 c 1
 169 -222 l 1
 149 -226 132 -229 107 -229 c 0
 31 -229 -15 -186 -15 -130 c 0
 -15 -73 22 -30 98 5 c 1
 98 526 l 1xfa
EndSplineSet
Substitution2: "'smcp' Lowercase to Small Capitals lookup 24 subtable" iogonek.sc
Substitution2: "'aalt' Access All Alternates lookup 0 subtable" iogonek.sc
EndChar

StartChar: Idotaccent
Encoding: 304 304 49
Width: 293
GlyphClass: 2
Flags: MW
HStem: 0 21G<103 190 103 103> 668 20G<103 190 190 190> 784 116<127.5 163>
VStem: 86 119<825.5 858.5> 103 87<0 688>
AnchorPoint: "Anchor-11" 0 0 basechar 0
AnchorPoint: "Anchor-10" 90 688 basechar 0
AnchorPoint: "Anchor-9" 146 688 basechar 0
AnchorPoint: "Anchor-8" 200 0 basechar 0
LayerCount: 2
Fore
SplineSet
145 900 m 0xf0
 181 900 205 875 205 842 c 0
 205 809 181 784 145 784 c 0
 110 784 86 809 86 842 c 0
 86 875 110 900 145 900 c 0xf0
190 0 m 1xe8
 103 0 l 1
 103 688 l 1
 190 688 l 1
 190 0 l 1xe8
EndSplineSet
Substitution2: "'c2sc' Capitals to Small Capitals lookup 23 subtable" i.sc.loclTRK
Substitution2: "'aalt' Access All Alternates lookup 0 subtable" i.sc.loclTRK
Position2: "'cpsp' Capital Spacing lookup 0 subtable" dx=5 dy=0 dh=10 dv=0
EndChar
StartChar: dotlessi
Encoding: 305 305 479
Width: 279
GlyphClass: 2
Flags: MW
HStem: 0 21G<98 182 98 98> 506 20G<98 182 182 182>
VStem: 98 84<0 526 0 526>
AnchorPoint: "Anchor-14" 0 0 basechar 0
AnchorPoint: "Anchor-13" 0 0 basechar 0
AnchorPoint: "Anchor-12" 140 526 basechar 0
AnchorPoint: "Anchor-11" 192 0 basechar 0
AnchorPoint: "Anchor-10" 140 0 basechar 0
LayerCount: 2
Back
Fore
SplineSet
182 526 m 1
 182 0 l 1
 98 0 l 1
 98 526 l 1
 182 526 l 1
EndSplineSet
Substitution2: "'smcp' Lowercase to Small Capitals lookup 27 subtable" dotlessi.sc
Substitution2: "'aalt' Access All Alternates lookup 0 subtable" dotlessi.sc
EndChar

StartChar: IJ
Encoding: 306 306 44
Width: 594
GlyphClass: 2
Flags: MW
HStem: 0 21G<103 190 103 103> 668 20G<103 190 190 190 410 497 497 497>
VStem: 103 87<0 688> 410 87<99 688>
AnchorPoint: "Anchor-11" 0 0 basechar 0
AnchorPoint: "Anchor-10" 90 688 basechar 0
AnchorPoint: "Anchor-9" 454 688 basechar 0
AnchorPoint: "Anchor-8" 200 0 basechar 0
LayerCount: 2
Fore
SplineSet
190 0 m 1
 103 0 l 1
 103 688 l 1
 190 688 l 1
 190 0 l 1
497 95 m 2
 497 -44 434 -96 323 -133 c 1
 300 -70 l 1
 391 -33 410 7 410 99 c 2
 410 688 l 1
 497 688 l 1
 497 95 l 2
EndSplineSet
Substitution2: "'c2sc' Capitals to Small Capitals lookup 23 subtable" ij.sc
Substitution2: "'aalt' Access All Alternates lookup 0 subtable" ij.sc
Position2: "'cpsp' Capital Spacing lookup 0 subtable" dx=5 dy=0 dh=10 dv=0
EndChar
StartChar: ij
Encoding: 307 307 492
Width: 557
GlyphClass: 2
Flags: MW
HStem: -210 21G<298 298> 0 21G<98 182 98 98> 506 20G<98 182 182 182 375 459 459 459> 658 116<121.5 157 399.5 435>
VStem: 80 119<699.5 732.5> 98 84<0 526 0 526> 358 119<699.5 732.5> 375 84<24 29 29 526>
AnchorPoint: "Anchor-14" 0 0 basechar 0
AnchorPoint: "Anchor-13" 0 0 basechar 0
AnchorPoint: "Anchor-12" 419 763 basechar 0
AnchorPoint: "Anchor-11" 192 0 basechar 0
AnchorPoint: "Anchor-10" 417 -201 basechar 0
LayerCount: 2
Back
Fore
SplineSet
139 774 m 0xfa
 175 774 199 749 199 716 c 0
 199 683 175 658 139 658 c 0
 104 658 80 683 80 716 c 0
 80 749 104 774 139 774 c 0xfa
417 774 m 0
 453 774 477 749 477 716 c 0
 477 683 453 658 417 658 c 0
 382 658 358 683 358 716 c 0
 358 749 382 774 417 774 c 0
182 526 m 1xf5
 182 0 l 1
 98 0 l 1
 98 526 l 1
 182 526 l 1xf5
459 526 m 1
 459 29 l 2
 459 -118 406 -161 298 -210 c 1
 274 -149 l 1
 343 -116 375 -90 375 24 c 2
 375 526 l 1
 459 526 l 1
EndSplineSet
Substitution2: "'smcp' Lowercase to Small Capitals lookup 27 subtable" ij.sc
Substitution2: "'aalt' Access All Alternates lookup 0 subtable" ij.sc
EndChar

StartChar: Jcircumflex
Encoding: 308 308 55
Width: 302
GlyphClass: 2
Flags: MW
HStem: 668 20G<117 204 204 204> 841 68<161 161>
VStem: 117 87<99 688>
AnchorPoint: "Anchor-11" 0 0 basechar 0
AnchorPoint: "Anchor-10" 0 0 basechar 0
AnchorPoint: "Anchor-9" 161 688 basechar 0
AnchorPoint: "Anchor-8" 0 0 basechar 0
LayerCount: 2
Fore
SplineSet
161 841 m 1
 36 760 l 1
 -1 801 l 1
 134 909 l 1
 189 909 l 1
 322 801 l 1
 286 760 l 1
 161 841 l 1
204 95 m 2
 204 -44 141 -96 30 -133 c 1
 7 -70 l 1
 98 -33 117 7 117 99 c 2
 117 688 l 1
 204 688 l 1
 204 95 l 2
EndSplineSet
Substitution2: "'c2sc' Capitals to Small Capitals lookup 23 subtable" jcircumflex.sc
Substitution2: "'aalt' Access All Alternates lookup 0 subtable" jcircumflex.sc
Position2: "'cpsp' Capital Spacing lookup 0 subtable" dx=5 dy=0 dh=10 dv=0
EndChar
StartChar: jcircumflex
Encoding: 309 309 501
Width: 278
GlyphClass: 2
Flags: MW
HStem: -210 21G<19 19> 506 20G<96 180 180 180>
VStem: 96 84<24 29 29 526>
AnchorPoint: "Anchor-14" 0 0 basechar 0
AnchorPoint: "Anchor-13" 0 0 basechar 0
AnchorPoint: "Anchor-12" 141 789 basechar 0
AnchorPoint: "Anchor-11" 0 0 basechar 0
AnchorPoint: "Anchor-10" 138 -201 basechar 0
LayerCount: 2
Back
Fore
SplineSet
13 636 m 1
 -23 678 l 1
 111 789 l 1
 166 789 l 1
 300 678 l 1
 264 636 l 1
 139 720 l 1
 13 636 l 1
180 526 m 1
 180 29 l 2
 180 -118 127 -161 19 -210 c 1
 -5 -149 l 1
 64 -116 96 -90 96 24 c 2
 96 526 l 1
 180 526 l 1
EndSplineSet
Substitution2: "'smcp' Lowercase to Small Capitals lookup 27 subtable" jcircumflex.sc
Substitution2: "'aalt' Access All Alternates lookup 0 subtable" jcircumflex.sc
EndChar

StartChar: Kcommaaccent
Encoding: 310 310 57
Width: 579
GlyphClass: 2
Flags: MW
HStem: 0 21G<103 189 103 103 472 472 472 579> 668 20G<103 189 189 189 462 561 561 561>
VStem: 103 86<0 688> 260 109<-140 -117 -140 -117>
AnchorPoint: "Anchor-11" 313 0 basechar 0
AnchorPoint: "Anchor-10" 0 0 basechar 0
AnchorPoint: "Anchor-9" 323 688 basechar 0
AnchorPoint: "Anchor-8" 0 0 basechar 0
LayerCount: 2
Fore
SplineSet
189 0 m 1
 103 0 l 1
 103 688 l 1
 189 688 l 1
 189 0 l 1
294 373 m 1
 579 0 l 1
 472 0 l 1
 194 368 l 1
 462 688 l 1
 561 688 l 1
 294 373 l 1
315 -79 m 0
 346 -79 369 -102 369 -132 c 0
 369 -148 364 -164 344 -206 c 2
 303 -292 l 1
 254 -292 l 1
 284 -176 l 1
 269 -165 260 -150 260 -132 c 0
 260 -102 284 -79 315 -79 c 0
EndSplineSet
Substitution2: "'c2sc' Capitals to Small Capitals lookup 23 subtable" kcommaaccent.sc
Substitution2: "'aalt' Access All Alternates lookup 0 subtable" kcommaaccent.sc
Position2: "'cpsp' Capital Spacing lookup 0 subtable" dx=5 dy=0 dh=10 dv=0
EndChar

StartChar: kcommaaccent
Encoding: 311 311 192
Width: 506
GlyphClass: 2
Flags: MW
HStem: 0 21G<98 182 98 98 404 404 404 505> 506 20G<388 482 482 482> 718 20G<98 98> 728 20G<182 182>
VStem: 98 84<0 738 738 738> 204 109<-140 -117 -140 -117>
AnchorPoint: "Anchor-11" 257 0 basechar 0
AnchorPoint: "Anchor-10" 0 0 basechar 0
AnchorPoint: "Anchor-9" 0 0 basechar 0
AnchorPoint: "Anchor-8" 0 0 basechar 0
LayerCount: 2
Fore
SplineSet
182 0 m 1xd8
 98 0 l 1
 98 738 l 1xe8
 182 748 l 1
 182 0 l 1xd8
282 293 m 1
 505 0 l 1
 404 0 l 1
 188 287 l 1
 388 526 l 1
 482 526 l 1
 282 293 l 1
259 -79 m 0xdc
 290 -79 313 -102 313 -132 c 0
 313 -148 308 -164 288 -206 c 2
 247 -292 l 1
 198 -292 l 1
 228 -176 l 1
 213 -165 204 -150 204 -132 c 0
 204 -102 228 -79 259 -79 c 0xdc
EndSplineSet
Substitution2: "'smcp' Lowercase to Small Capitals lookup 24 subtable" kcommaaccent.sc
Substitution2: "'aalt' Access All Alternates lookup 0 subtable" kcommaaccent.sc
EndChar

StartChar: kgreenlandic
Encoding: 312 312 193
Width: 504
GlyphClass: 2
Flags: MW
HStem: 0 21G<98 182 98 98 401 401 401 502> 506 20G<98 182 182 182 385 480 480 480>
VStem: 98 84<0 526>
LayerCount: 2
Fore
SplineSet
182 0 m 1
 98 0 l 1
 98 526 l 1
 182 526 l 1
 182 0 l 1
280 283 m 1
 502 0 l 1
 401 0 l 1
 185 277 l 1
 385 526 l 1
 480 526 l 1
 280 283 l 1
EndSplineSet
Substitution2: "'smcp' Lowercase to Small Capitals lookup 24 subtable" kgreenlandic.sc
Substitution2: "'aalt' Access All Alternates lookup 0 subtable" kgreenlandic.sc
EndChar
StartChar: Lacute
Encoding: 313 313 146
Width: 493
GlyphClass: 2
Flags: MW
HStem: 0 76<189 463> 668 20G<103 189 189 189>
VStem: 103 86<76 688 76 688 76 688>
AnchorPoint: "Anchor-14" 385 385 basechar 0
AnchorPoint: "Anchor-13" 211 688 basechar 0
AnchorPoint: "Anchor-12" 148 906 basechar 0
AnchorPoint: "Anchor-11" 0 0 basechar 0
AnchorPoint: "Anchor-10" 284 0 basechar 0
LayerCount: 2
Back
Fore
SplineSet
226 906 m 1
 263 834 l 1
 51 756 l 1
 29 801 l 1
 226 906 l 1
189 688 m 1
 189 76 l 1
 473 76 l 1
 463 0 l 1
 103 0 l 1
 103 688 l 1
 189 688 l 1
EndSplineSet
Substitution2: "'c2sc' Capitals to Small Capitals lookup 26 subtable" lacute.sc
Substitution2: "'aalt' Access All Alternates lookup 0 subtable" lacute.sc
Position2: "'cpsp' Capital Spacing lookup 0 subtable" dx=5 dy=0 dh=10 dv=0
EndChar
StartChar: lacute
Encoding: 314 314 513
Width: 291
GlyphClass: 2
Flags: MW
HStem: -12 70<199.5 211> 718 20G<93 93> 728 20G<177 177>
VStem: 93 84<100 102 102 738 738 738>
AnchorPoint: "Anchor-14" 292 379 basechar 0
AnchorPoint: "Anchor-13" 190 738 basechar 0
AnchorPoint: "Anchor-12" 137 956 basechar 0
AnchorPoint: "Anchor-11" 0 0 basechar 0
AnchorPoint: "Anchor-10" 178 0 basechar 0
LayerCount: 2
Back
Fore
SplineSet
215 956 m 1xb0
 252 884 l 1
 40 806 l 1
 18 851 l 1
 215 956 l 1xb0
198 -12 m 0
 134 -12 93 27 93 100 c 2
 93 738 l 1xd0
 177 748 l 1
 177 102 l 2
 177 73 187 58 212 58 c 0
 225 58 236 60 246 64 c 1
 268 5 l 1
 249 -5 224 -12 198 -12 c 0
EndSplineSet
Substitution2: "'smcp' Lowercase to Small Capitals lookup 27 subtable" lacute.sc
Substitution2: "'aalt' Access All Alternates lookup 0 subtable" lacute.sc
EndChar
StartChar: Lcommaaccent
Encoding: 315 315 150
Width: 493
GlyphClass: 2
Flags: MW
HStem: 0 76<189 463> 668 20G<103 189 189 189>
VStem: 103 86<76 688 76 688 76 688> 231 109<-140 -117 -140 -117>
AnchorPoint: "Anchor-14" 385 385 basechar 0
AnchorPoint: "Anchor-13" 211 688 basechar 0
AnchorPoint: "Anchor-12" 146 688 basechar 0
AnchorPoint: "Anchor-11" 0 0 basechar 0
AnchorPoint: "Anchor-10" 284 0 basechar 0
LayerCount: 2
Back
Fore
SplineSet
189 688 m 1
 189 76 l 1
 473 76 l 1
 463 0 l 1
 103 0 l 1
 103 688 l 1
 189 688 l 1
286 -79 m 0
 317 -79 340 -102 340 -132 c 0
 340 -148 335 -164 315 -206 c 2
 274 -292 l 1
 225 -292 l 1
 255 -176 l 1
 241 -165 231 -150 231 -132 c 0
 231 -102 256 -79 286 -79 c 0
EndSplineSet
Substitution2: "'c2sc' Capitals to Small Capitals lookup 26 subtable" lcommaaccent.sc
Substitution2: "'aalt' Access All Alternates lookup 0 subtable" lcommaaccent.sc
Position2: "'cpsp' Capital Spacing lookup 0 subtable" dx=5 dy=0 dh=10 dv=0
EndChar

StartChar: lcommaaccent
Encoding: 316 316 197
Width: 291
GlyphClass: 2
Flags: MW
HStem: -12 70<199 207> 718 20G<93 93> 728 20G<177 177>
VStem: 92 109<-140 -117 -140 -117> 93 84<101 102 102 738 738 738>
AnchorPoint: "Anchor-11" 145 0 basechar 0
AnchorPoint: "Anchor-10" 0 0 basechar 0
AnchorPoint: "Anchor-9" 0 0 basechar 0
AnchorPoint: "Anchor-8" 0 0 basechar 0
LayerCount: 2
Fore
SplineSet
177 102 m 2xa8
 177 73 186 58 212 58 c 0
 225 58 236 60 246 64 c 1
 268 5 l 1
 245 -6 220 -12 194 -12 c 0
 130 -12 93 26 93 101 c 2
 93 738 l 1xc8
 177 748 l 1
 177 102 l 2xa8
147 -79 m 0xb0
 178 -79 201 -102 201 -132 c 0
 201 -148 196 -164 176 -206 c 2
 135 -292 l 1
 86 -292 l 1
 116 -176 l 1
 101 -165 92 -150 92 -132 c 0
 92 -102 116 -79 147 -79 c 0xb0
EndSplineSet
Substitution2: "'smcp' Lowercase to Small Capitals lookup 24 subtable" lcommaaccent.sc
Substitution2: "'aalt' Access All Alternates lookup 0 subtable" lcommaaccent.sc
EndChar
StartChar: Lcaron
Encoding: 317 317 148
Width: 493
GlyphClass: 2
Flags: MW
HStem: 0 76<189 463> 668 20G<103 189 189 189 343 343> 677 20G<267 267>
VStem: 103 86<76 688 76 688 76 688>
AnchorPoint: "Anchor-14" 385 385 basechar 0
AnchorPoint: "Anchor-13" 211 688 basechar 0
AnchorPoint: "Anchor-12" 146 688 basechar 0
AnchorPoint: "Anchor-11" 0 0 basechar 0
AnchorPoint: "Anchor-10" 284 0 basechar 0
LayerCount: 2
Back
Fore
SplineSet
267 697 m 1xb0
 343 688 l 1xd0
 296 509 l 1
 247 516 l 1
 267 697 l 1xb0
189 688 m 1
 189 76 l 1
 473 76 l 1
 463 0 l 1
 103 0 l 1
 103 688 l 1
 189 688 l 1
EndSplineSet
Substitution2: "'c2sc' Capitals to Small Capitals lookup 26 subtable" lcaron.sc
Substitution2: "'aalt' Access All Alternates lookup 0 subtable" lcaron.sc
Position2: "'cpsp' Capital Spacing lookup 0 subtable" dx=5 dy=0 dh=10 dv=0
EndChar
StartChar: lcaron
Encoding: 318 318 517
Width: 291
GlyphClass: 2
Flags: MW
HStem: -12 70<199.5 211> 546 20G<226 226> 718 20G<93 93 322 322> 727 20G<246 246> 728 20G<177 177>
VStem: 93 84<100 102 102 738 738 738>
AnchorPoint: "Anchor-14" 292 379 basechar 0
AnchorPoint: "Anchor-13" 190 738 basechar 0
AnchorPoint: "Anchor-12" 135 738 basechar 0
AnchorPoint: "Anchor-11" 0 0 basechar 0
AnchorPoint: "Anchor-10" 178 0 basechar 0
LayerCount: 2
Back
Fore
SplineSet
198 -12 m 0xcc
 134 -12 93 27 93 100 c 2
 93 738 l 1xe4
 177 748 l 1
 177 102 l 2
 177 73 187 58 212 58 c 0
 225 58 236 60 246 64 c 1
 268 5 l 1
 249 -5 224 -12 198 -12 c 0xcc
246 747 m 1xd4
 322 738 l 1xe4
 275 559 l 1
 226 566 l 1
 246 747 l 1xd4
EndSplineSet
Substitution2: "'smcp' Lowercase to Small Capitals lookup 27 subtable" lcaron.sc
Substitution2: "'aalt' Access All Alternates lookup 0 subtable" lcaron.sc
EndChar
StartChar: Ldot
Encoding: 319 319 151
Width: 493
GlyphClass: 2
Flags: MW
HStem: 0 76<189 463> 325 116<367.5 403> 668 20G<103 189 189 189>
VStem: 103 86<76 688 76 688 76 688> 326 119<366.5 399.5>
AnchorPoint: "Anchor-14" 385 385 basechar 0
AnchorPoint: "Anchor-13" 211 688 basechar 0
AnchorPoint: "Anchor-12" 388 430 basechar 0
AnchorPoint: "Anchor-11" 0 0 basechar 0
AnchorPoint: "Anchor-10" 284 0 basechar 0
LayerCount: 2
Back
Fore
SplineSet
189 688 m 1
 189 76 l 1
 473 76 l 1
 463 0 l 1
 103 0 l 1
 103 688 l 1
 189 688 l 1
385 441 m 0
 421 441 445 416 445 383 c 0
 445 350 421 325 385 325 c 0
 350 325 326 350 326 383 c 0
 326 416 350 441 385 441 c 0
EndSplineSet
Ligature2: "Ligature Substitution lookup 40 subtable" L periodcentered
Substitution2: "'c2sc' Capitals to Small Capitals lookup 26 subtable" ldot.sc
Substitution2: "'aalt' Access All Alternates lookup 0 subtable" ldot.sc
Position2: "'cpsp' Capital Spacing lookup 0 subtable" dx=5 dy=0 dh=10 dv=0
EndChar
StartChar: ldot
Encoding: 320 320 521
Width: 325
GlyphClass: 2
Flags: MW
HStem: -12 70<199.5 211> 319 116<274.5 310> 718 20G<93 93> 728 20G<177 177>
VStem: 93 84<100 102 102 738 738 738> 233 119<360.5 393.5>
AnchorPoint: "Anchor-14" 292 379 basechar 0
AnchorPoint: "Anchor-13" 190 738 basechar 0
AnchorPoint: "Anchor-12" 295 424 basechar 0
AnchorPoint: "Anchor-11" 0 0 basechar 0
AnchorPoint: "Anchor-10" 178 0 basechar 0
LayerCount: 2
Back
Fore
SplineSet
198 -12 m 0xd8
 134 -12 93 27 93 100 c 2
 93 738 l 1xe8
 177 748 l 1
 177 102 l 2
 177 73 187 58 212 58 c 0
 225 58 236 60 246 64 c 1
 268 5 l 1
 249 -5 224 -12 198 -12 c 0xd8
292 435 m 0xdc
 328 435 352 410 352 377 c 0
 352 344 328 319 292 319 c 0
 257 319 233 344 233 377 c 0
 233 410 257 435 292 435 c 0xdc
EndSplineSet
Ligature2: "Ligature Substitution lookup 40 subtable" l periodcentered
Substitution2: "'smcp' Lowercase to Small Capitals lookup 27 subtable" ldot.sc
Substitution2: "'aalt' Access All Alternates lookup 0 subtable" ldot.sc
EndChar
StartChar: Lslash
Encoding: 321 321 154
Width: 508
GlyphClass: 2
Flags: MW
HStem: 0 76<204 477> 668 20G<117 204 204 204>
VStem: 117 87<76 76 76 262 262 262 393 688>
AnchorPoint: "Anchor-14" 400 385 basechar 0
AnchorPoint: "Anchor-13" 225 688 basechar 0
AnchorPoint: "Anchor-12" 161 688 basechar 0
AnchorPoint: "Anchor-11" 0 0 basechar 0
AnchorPoint: "Anchor-10" 298 0 basechar 0
LayerCount: 2
Back
Fore
SplineSet
204 76 m 1
 488 76 l 1
 477 0 l 1
 117 0 l 1
 117 262 l 1
 59 227 l 1
 25 282 l 1
 117 339 l 1
 117 688 l 1
 204 688 l 1
 204 393 l 1
 369 495 l 1
 404 440 l 1
 204 316 l 1
 204 76 l 1
EndSplineSet
Substitution2: "'c2sc' Capitals to Small Capitals lookup 26 subtable" lslash.sc
Substitution2: "'aalt' Access All Alternates lookup 0 subtable" lslash.sc
Position2: "'cpsp' Capital Spacing lookup 0 subtable" dx=5 dy=0 dh=10 dv=0
EndChar
StartChar: lslash
Encoding: 322 322 528
Width: 309
GlyphClass: 2
Flags: MW
HStem: -12 70<205.5 217.5> 718 20G<99 99> 728 20G<183 183>
VStem: 99 84<100 102 102 305 305 305 431 738 738 738>
AnchorPoint: "Anchor-14" 299 379 basechar 0
AnchorPoint: "Anchor-13" 196 738 basechar 0
AnchorPoint: "Anchor-12" 141 738 basechar 0
AnchorPoint: "Anchor-11" 0 0 basechar 0
AnchorPoint: "Anchor-10" 184 0 basechar 0
LayerCount: 2
Back
Fore
SplineSet
218 58 m 0xb0
 231 58 242 60 252 64 c 1
 274 5 l 1
 255 -5 230 -12 205 -12 c 0
 140 -12 99 27 99 100 c 2
 99 305 l 1
 46 273 l 1
 14 327 l 1
 99 380 l 1
 99 738 l 1xd0
 183 748 l 1
 183 431 l 1
 275 487 l 1
 306 432 l 1
 183 357 l 1
 183 102 l 2
 183 73 193 58 218 58 c 0xb0
EndSplineSet
Substitution2: "'smcp' Lowercase to Small Capitals lookup 27 subtable" lslash.sc
Substitution2: "'aalt' Access All Alternates lookup 0 subtable" lslash.sc
EndChar
StartChar: Nacute
Encoding: 323 323 161
Width: 681
GlyphClass: 2
Flags: MW
HStem: 0 21G<103 184 103 103 462 578 462 462> 0 94<508 508 508 578 462 508> 593 95<172 172> 668 20G<103 216 216 216 497 578 578 578>
VStem: 103 81<0 332 0 688> 497 81<303 688 0 688>
AnchorPoint: "Anchor-14" 0 0 basechar 0
AnchorPoint: "Anchor-13" 0 0 basechar 0
AnchorPoint: "Anchor-12" 353 906 basechar 0
AnchorPoint: "Anchor-11" 0 0 basechar 0
AnchorPoint: "Anchor-10" 342 0 basechar 0
LayerCount: 2
Back
Fore
SplineSet
431 906 m 1x9c
 468 834 l 1
 256 756 l 1
 234 801 l 1
 431 906 l 1x9c
578 688 m 1
 578 0 l 1
 462 0 l 1
 172 593 l 1xac
 177 538 184 459 184 332 c 2
 184 0 l 1
 103 0 l 1
 103 688 l 1
 216 688 l 1
 508 94 l 1x5c
 506 113 497 218 497 303 c 2
 497 688 l 1
 578 688 l 1
EndSplineSet
Substitution2: "'c2sc' Capitals to Small Capitals lookup 26 subtable" nacute.sc
Substitution2: "'locl' Localized Forms in Latin lookup 7 subtable" Nacute.loclPLK
AlternateSubs2: "'aalt' Access All Alternates lookup 1 subtable" Nacute.loclPLK nacute.sc
Position2: "'cpsp' Capital Spacing lookup 0 subtable" dx=5 dy=0 dh=10 dv=0
EndChar
StartChar: nacute
Encoding: 324 324 537
Width: 585
GlyphClass: 2
Flags: MW
HStem: 0 21G<98 182 98 98 409 493 409 409> 472 66<306.5 349> 506 20G<98 170 170 170>
VStem: 98 84<0 375 0 526> 409 84<0 365 365 377 0 405.5>
AnchorPoint: "Anchor-14" 0 0 basechar 0
AnchorPoint: "Anchor-13" 0 0 basechar 0
AnchorPoint: "Anchor-12" 300 797 basechar 0
AnchorPoint: "Anchor-11" 0 0 basechar 0
AnchorPoint: "Anchor-10" 292 0 basechar 0
LayerCount: 2
Back
Fore
SplineSet
414 725 m 1xd8
 206 640 l 1
 180 685 l 1
 376 797 l 1
 414 725 l 1xd8
342 538 m 0
 438 538 493 477 493 377 c 2
 493 0 l 1
 409 0 l 1
 409 365 l 2
 409 446 376 472 322 472 c 0
 260 472 218 433 182 375 c 1xd8
 182 0 l 1
 98 0 l 1
 98 526 l 1
 170 526 l 1xb8
 177 446 l 1
 215 501 271 538 342 538 c 0
EndSplineSet
Substitution2: "'smcp' Lowercase to Small Capitals lookup 27 subtable" nacute.sc
Substitution2: "'locl' Localized Forms in Latin lookup 7 subtable" nacute.loclPLK
AlternateSubs2: "'aalt' Access All Alternates lookup 1 subtable" nacute.loclPLK nacute.sc
EndChar
StartChar: Ncommaaccent
Encoding: 325 325 165
Width: 681
GlyphClass: 2
Flags: MW
HStem: 0 21G<103 184 103 103 462 578 462 462> 0 94<508 508 508 578 462 508> 593 95<172 172> 668 20G<103 216 216 216 497 578 578 578>
VStem: 103 81<0 332 0 688> 289 109<-140 -117 -140 -117> 497 81<303 688 0 688>
AnchorPoint: "Anchor-14" 0 0 basechar 0
AnchorPoint: "Anchor-13" 0 0 basechar 0
AnchorPoint: "Anchor-12" 351 688 basechar 0
AnchorPoint: "Anchor-11" 0 0 basechar 0
AnchorPoint: "Anchor-10" 342 0 basechar 0
LayerCount: 2
Back
Fore
SplineSet
578 688 m 1x9a
 578 0 l 1
 462 0 l 1
 172 593 l 1xae
 177 538 184 459 184 332 c 2
 184 0 l 1
 103 0 l 1
 103 688 l 1
 216 688 l 1
 508 94 l 1x5a
 506 113 497 218 497 303 c 2
 497 688 l 1
 578 688 l 1x9a
344 -79 m 0
 375 -79 398 -102 398 -132 c 0
 398 -148 393 -164 373 -206 c 2
 332 -292 l 1
 283 -292 l 1
 313 -176 l 1
 299 -165 289 -150 289 -132 c 0
 289 -102 314 -79 344 -79 c 0
EndSplineSet
Substitution2: "'c2sc' Capitals to Small Capitals lookup 26 subtable" ncommaaccent.sc
Substitution2: "'aalt' Access All Alternates lookup 0 subtable" ncommaaccent.sc
Position2: "'cpsp' Capital Spacing lookup 0 subtable" dx=5 dy=0 dh=10 dv=0
EndChar
StartChar: ncommaaccent
Encoding: 326 326 542
Width: 585
GlyphClass: 2
Flags: MW
HStem: 0 21G<98 182 98 98 409 493 409 409> 472 66<306.5 349> 506 20G<98 170 170 170>
VStem: 98 84<0 375 0 526> 240 109<-140 -117 -140 -117> 409 84<0 365 365 377 0 405.5>
AnchorPoint: "Anchor-14" 0 0 basechar 0
AnchorPoint: "Anchor-13" 0 0 basechar 0
AnchorPoint: "Anchor-12" 298 526 basechar 0
AnchorPoint: "Anchor-11" 0 0 basechar 0
AnchorPoint: "Anchor-10" 292 0 basechar 0
LayerCount: 2
Back
Fore
SplineSet
342 538 m 0xd4
 438 538 493 477 493 377 c 2
 493 0 l 1
 409 0 l 1
 409 365 l 2
 409 446 376 472 322 472 c 0
 260 472 218 433 182 375 c 1xd4
 182 0 l 1
 98 0 l 1
 98 526 l 1
 170 526 l 1xb4
 177 446 l 1
 215 501 271 538 342 538 c 0xd4
295 -79 m 0xdc
 326 -79 349 -102 349 -132 c 0
 349 -148 344 -164 324 -206 c 2
 283 -292 l 1
 234 -292 l 1
 264 -176 l 1
 250 -165 240 -150 240 -132 c 0
 240 -102 265 -79 295 -79 c 0xdc
EndSplineSet
Substitution2: "'smcp' Lowercase to Small Capitals lookup 27 subtable" ncommaaccent.sc
Substitution2: "'aalt' Access All Alternates lookup 0 subtable" ncommaaccent.sc
EndChar

StartChar: Ncaron
Encoding: 327 327 67
Width: 681
GlyphClass: 2
Flags: MW
HStem: 0 21G<103 184 103 103 462 578 462 462> 0 94<508 508 508 578 462 508> 593 95<172 172> 668 20G<103 216 216 216 497 578 578 578> 755 68<352 352 352 380 325 352>
VStem: 103 81<0 332 0 688> 497 81<303 688>
AnchorPoint: "Anchor-11" 342 0 basechar 0
AnchorPoint: "Anchor-10" 0 0 basechar 0
AnchorPoint: "Anchor-9" 351 688 basechar 0
AnchorPoint: "Anchor-8" 0 0 basechar 0
LayerCount: 2
Fore
SplineSet
513 862 m 1x9e
 380 755 l 1
 325 755 l 1
 190 862 l 1
 227 904 l 1
 352 823 l 1
 477 904 l 1
 513 862 l 1x9e
578 0 m 1
 462 0 l 1
 172 593 l 1xae
 177 538 184 459 184 332 c 2
 184 0 l 1
 103 0 l 1
 103 688 l 1
 216 688 l 1
 508 94 l 1x5e
 506 113 497 218 497 303 c 2
 497 688 l 1
 578 688 l 1
 578 0 l 1
EndSplineSet
Substitution2: "'c2sc' Capitals to Small Capitals lookup 23 subtable" ncaron.sc
Substitution2: "'aalt' Access All Alternates lookup 0 subtable" ncaron.sc
Position2: "'cpsp' Capital Spacing lookup 0 subtable" dx=5 dy=0 dh=10 dv=0
EndChar
StartChar: ncaron
Encoding: 328 328 540
Width: 585
GlyphClass: 2
Flags: MW
HStem: 0 21G<98 182 98 98 409 493 409 409> 472 66<306.5 349> 506 20G<98 170 170 170> 628 69<298 298 298 326 271 298> 677 20G<298 298> 720 20G<136 136 459 459>
VStem: 98 84<0 375 0 526> 409 84<0 365 365 377 0 405.5>
AnchorPoint: "Anchor-14" 0 0 basechar 0
AnchorPoint: "Anchor-13" 0 0 basechar 0
AnchorPoint: "Anchor-12" 300 781 basechar 0
AnchorPoint: "Anchor-11" 0 0 basechar 0
AnchorPoint: "Anchor-10" 292 0 basechar 0
LayerCount: 2
Back
Fore
SplineSet
326 628 m 1xd7
 271 628 l 1
 136 740 l 1
 173 781 l 1
 298 697 l 1
 423 781 l 1
 459 740 l 1
 326 628 l 1xd7
342 538 m 0
 438 538 493 477 493 377 c 2
 493 0 l 1
 409 0 l 1
 409 365 l 2
 409 446 376 472 322 472 c 0
 260 472 218 433 182 375 c 1xcf
 182 0 l 1
 98 0 l 1
 98 526 l 1
 170 526 l 1xaf
 177 446 l 1
 215 501 271 538 342 538 c 0
EndSplineSet
Substitution2: "'smcp' Lowercase to Small Capitals lookup 27 subtable" ncaron.sc
Substitution2: "'aalt' Access All Alternates lookup 0 subtable" ncaron.sc
EndChar
StartChar: napostrophe
Encoding: 329 329 539
Width: 688
GlyphClass: 2
Flags: MW
HStem: 0 21G<201 285 201 201 512 596 512 512> 472 66<409.5 452> 506 20G<201 273 273 273> 731 20G<86.5 117.5>
VStem: 47 109<689.5 713 689.5 713> 201 84<0 375 0 526> 512 84<0 365 365 377 0 405.5>
AnchorPoint: "Anchor-14" 0 0 basechar 0
AnchorPoint: "Anchor-13" 0 0 basechar 0
AnchorPoint: "Anchor-12" 401 526 basechar 0
AnchorPoint: "Anchor-11" 0 0 basechar 0
AnchorPoint: "Anchor-10" 395 0 basechar 0
LayerCount: 2
Back
Fore
SplineSet
102 751 m 0xde
 133 751 156 728 156 698 c 0
 156 681 150 666 131 624 c 2
 91 537 l 1
 42 537 l 1
 71 653 l 1
 56 665 47 680 47 698 c 0
 47 728 71 751 102 751 c 0xde
445 538 m 0
 541 538 596 477 596 377 c 2
 596 0 l 1
 512 0 l 1
 512 365 l 2
 512 446 479 472 425 472 c 0
 363 472 321 433 285 375 c 1xde
 285 0 l 1
 201 0 l 1
 201 526 l 1
 273 526 l 1xbe
 280 447 l 1
 319 501 374 538 445 538 c 0
EndSplineSet
Substitution2: "'smcp' Lowercase to Small Capitals lookup 27 subtable" napostrophe.sc
Ligature2: "'locl' Localized Forms in Latin lookup 11 subtable" quoteright n
Ligature2: "'locl' Localized Forms in Latin lookup 11 subtable" quotesingle n
Substitution2: "'aalt' Access All Alternates lookup 0 subtable" napostrophe.sc
EndChar

StartChar: Eng
Encoding: 330 330 69
Width: 681
GlyphClass: 2
Flags: MW
HStem: -210 21G<417 417> 0 21G<103 184 103 103 460 504 460 460> 591 97<172 176 172 172>
VStem: 103 81<0 332 0 688> 497 81<303 688>
LayerCount: 2
Fore
SplineSet
578 688 m 1
 578 29 l 2
 578 -118 525 -161 417 -210 c 1
 394 -153 l 1
 463 -121 499 -96 504 0 c 1
 460 0 l 1
 176 591 l 1
 172 591 l 1
 177 537 184 459 184 332 c 2
 184 0 l 1
 103 0 l 1
 103 688 l 1
 218 688 l 1
 505 94 l 1
 508 94 l 1
 506 113 497 218 497 303 c 2
 497 688 l 1
 578 688 l 1
EndSplineSet
Substitution2: "'c2sc' Capitals to Small Capitals lookup 23 subtable" eng.sc
Substitution2: "'aalt' Access All Alternates lookup 0 subtable" eng.sc
Position2: "'cpsp' Capital Spacing lookup 0 subtable" dx=5 dy=0 dh=10 dv=0
EndChar
StartChar: eng
Encoding: 331 331 547
Width: 585
GlyphClass: 2
Flags: MW
HStem: -211 68<327 363.5 327 391.5> 0 21G<98 182 98 98> 472 66<306.5 349> 506 20G<98 170 170 170>
VStem: 98 84<0 375 0 526> 409 84<-67 -60 -60 365 365 377>
AnchorPoint: "Anchor-14" 0 0 basechar 0
AnchorPoint: "Anchor-13" 0 0 basechar 0
AnchorPoint: "Anchor-12" 298 526 basechar 0
AnchorPoint: "Anchor-11" 0 0 basechar 0
AnchorPoint: "Anchor-10" 283 -201 basechar 0
LayerCount: 2
Back
Fore
SplineSet
493 -60 m 2xec
 493 -160 435 -211 348 -211 c 0
 297 -211 261 -193 236 -174 c 1
 269 -121 l 1
 292 -134 310 -143 344 -143 c 0
 383 -143 409 -122 409 -67 c 2
 409 365 l 2
 409 446 376 472 322 472 c 0
 260 472 218 433 182 375 c 1xec
 182 0 l 1
 98 0 l 1
 98 526 l 1
 170 526 l 1xdc
 177 446 l 1
 215 501 271 538 342 538 c 0
 438 538 493 477 493 377 c 2
 493 -60 l 2xec
EndSplineSet
Substitution2: "'smcp' Lowercase to Small Capitals lookup 27 subtable" eng.sc
Substitution2: "'aalt' Access All Alternates lookup 0 subtable" eng.sc
EndChar

StartChar: omacron
Encoding: 333 333 215
Width: 581
GlyphClass: 2
Flags: MW
HStem: -12 68<244.5 335.5 244.5 363.5> 470 68<246 336.5> 669 64<157 422 157 422>
VStem: 59 90<192.5 332.5 192.5 344.5> 157 265<669 733 669 733> 432 90<193.5 333.5>
AnchorPoint: "Anchor-11" 0 0 basechar 0
AnchorPoint: "Anchor-10" 0 0 basechar 0
AnchorPoint: "Anchor-9" 291 526 basechar 0
AnchorPoint: "Anchor-8" 0 0 basechar 0
LayerCount: 2
Fore
SplineSet
157 669 m 1
 157 733 l 1
 422 733 l 1
 422 669 l 1
 157 669 l 1
291 538 m 0xf4
 439 538 522 432 522 264 c 0
 522 99 437 -12 290 -12 c 0
 143 -12 59 95 59 262 c 0
 59 427 144 538 291 538 c 0xf4
291 470 m 0
 201 470 149 403 149 262 c 0
 149 123 199 56 290 56 c 0
 381 56 432 123 432 264 c 0
 432 403 382 470 291 470 c 0
EndSplineSet
Substitution2: "'smcp' Lowercase to Small Capitals lookup 24 subtable" omacron.sc
Substitution2: "'aalt' Access All Alternates lookup 0 subtable" omacron.sc
EndChar

StartChar: Obreve
Encoding: 334 334 73
Width: 692
GlyphClass: 2
Flags: MW
HStem: -12 72<288 406 288 432> 628 72<287 406.5> 760 64<321.5 368.5 321.5 384.5>
VStem: 58 92<242 443 242 455.5> 542 92<242.5 443.5>
AnchorPoint: "Anchor-11" 0 0 basechar 0
AnchorPoint: "Anchor-10" 112 688 basechar 0
AnchorPoint: "Anchor-9" 347 688 basechar 0
AnchorPoint: "Anchor-8" 0 0 basechar 0
LayerCount: 2
Fore
SplineSet
345 760 m 0
 268 760 208 807 200 877 c 1
 256 889 l 1
 270 850 298 824 345 824 c 0
 392 824 423 850 437 889 c 1
 493 877 l 1
 485 807 424 760 345 760 c 0
346 700 m 0
 517 700 634 575 634 343 c 0
 634 116 518 -12 346 -12 c 0
 175 -12 58 112 58 342 c 0
 58 569 176 700 346 700 c 0
346 628 m 0
 228 628 150 544 150 342 c 0
 150 142 230 60 346 60 c 0
 466 60 542 142 542 343 c 0
 542 544 467 628 346 628 c 0
EndSplineSet
Substitution2: "'c2sc' Capitals to Small Capitals lookup 23 subtable" obreve.sc
Substitution2: "'aalt' Access All Alternates lookup 0 subtable" obreve.sc
Position2: "'cpsp' Capital Spacing lookup 0 subtable" dx=5 dy=0 dh=10 dv=0
EndChar

StartChar: obreve
Encoding: 335 335 210
Width: 581
GlyphClass: 2
Flags: MW
HStem: -12 68<244.5 335.5 244.5 363.5> 470 68<246 336.5> 645 65<265.5 312.5 265.5 328.5>
VStem: 59 90<192.5 332.5 192.5 344.5> 432 90<193.5 333.5>
AnchorPoint: "Anchor-11" 0 0 basechar 0
AnchorPoint: "Anchor-10" 0 0 basechar 0
AnchorPoint: "Anchor-9" 291 526 basechar 0
AnchorPoint: "Anchor-8" 0 0 basechar 0
LayerCount: 2
Fore
SplineSet
289 645 m 0
 212 645 152 693 144 773 c 1
 200 785 l 1
 214 736 242 710 289 710 c 0
 336 710 367 736 381 785 c 1
 437 773 l 1
 429 693 368 645 289 645 c 0
291 538 m 0
 439 538 522 432 522 264 c 0
 522 99 437 -12 290 -12 c 0
 143 -12 59 95 59 262 c 0
 59 427 144 538 291 538 c 0
291 470 m 0
 201 470 149 403 149 262 c 0
 149 123 199 56 290 56 c 0
 381 56 432 123 432 264 c 0
 432 403 382 470 291 470 c 0
EndSplineSet
Substitution2: "'smcp' Lowercase to Small Capitals lookup 24 subtable" obreve.sc
Substitution2: "'aalt' Access All Alternates lookup 0 subtable" obreve.sc
EndChar
StartChar: ohungarumlaut
Encoding: 337 337 579
Width: 581
GlyphClass: 2
Flags: MW
HStem: -12 68<244.5 335.5 244.5 363.5> 470 68<246 336.5>
VStem: 59 90<192.5 332.5 192.5 344.5> 432 90<193.5 333.5>
AnchorPoint: "Anchor-14" 0 0 basechar 0
AnchorPoint: "Anchor-13" 473 526 basechar 0
AnchorPoint: "Anchor-12" 291 526 basechar 0
AnchorPoint: "Anchor-11" 377 0 basechar 0
AnchorPoint: "Anchor-10" 291 0 basechar 0
LayerCount: 2
Back
Fore
SplineSet
265 827 m 1
 337 789 l 1
 243 641 l 1
 190 664 l 1
 265 827 l 1
411 827 m 1
 483 789 l 1
 380 636 l 1
 327 659 l 1
 411 827 l 1
291 538 m 0
 439 538 522 432 522 264 c 0
 522 99 437 -12 290 -12 c 0
 143 -12 59 95 59 262 c 0
 59 427 144 538 291 538 c 0
291 470 m 0
 201 470 149 403 149 262 c 0
 149 123 199 56 290 56 c 0
 381 56 432 123 432 264 c 0
 432 403 382 470 291 470 c 0
EndSplineSet
Substitution2: "'smcp' Lowercase to Small Capitals lookup 27 subtable" ohungarumlaut.sc
Substitution2: "'aalt' Access All Alternates lookup 0 subtable" ohungarumlaut.sc
EndChar

StartChar: OE
Encoding: 338 338 82
Width: 900
GlyphClass: 2
Flags: MW
HStem: -12 72<283 345.5> 0 60<283 838 283 406> 0 70<513 838 513 838> 316 70<613 785 613 785> 618 70<518 821 518 518> 628 60<282 831> 628 72<282 346 254.5 391.5>
VStem: 58 92<242 443 242 455.5> 522 91<316 316 316 386 316 444.5>
LayerCount: 2
Fore
SplineSet
838 0 m 1x3980
 406 0 l 1x3980
 383 -8 358 -12 333 -12 c 0
 175 -12 58 112 58 342 c 0
 58 569 176 700 333 700 c 0x9380
 359 700 385 696 409 688 c 1
 831 688 l 1
 821 618 l 1
 518 618 l 1
 573 567 606 486 613 386 c 1
 785 386 l 1
 785 316 l 1
 613 316 l 1
 608 211 573 125 513 70 c 1
 838 70 l 1
 838 0 l 1x3980
150 342 m 0x5580
 150 142 230 60 336 60 c 0
 446 60 522 142 522 345 c 0
 522 544 447 628 336 628 c 0
 228 628 150 544 150 342 c 0x5580
EndSplineSet
Substitution2: "'c2sc' Capitals to Small Capitals lookup 23 subtable" oe.sc
Substitution2: "'aalt' Access All Alternates lookup 0 subtable" oe.sc
Position2: "'cpsp' Capital Spacing lookup 0 subtable" dx=5 dy=0 dh=10 dv=0
EndChar

StartChar: oe
Encoding: 339 339 219
Width: 921
GlyphClass: 2
Flags: MW
HStem: -12 68<244.5 334> 234 62<522 780 522 861 522 780> 470 68<246 336 217.5 336.5>
VStem: 59 90<192.5 332.5 192.5 344.5> 432 90<234 234 234 296 234 333.5> 780 83<296 304 304 357>
AnchorPoint: "Anchor-11" 0 0 basechar 0
AnchorPoint: "Anchor-10" 0 0 basechar 0
AnchorPoint: "Anchor-9" 473 526 basechar 0
AnchorPoint: "Anchor-8" 0 0 basechar 0
LayerCount: 2
Fore
SplineSet
863 280 m 0
 863 262 862 245 861 234 c 1
 522 234 l 1
 530 107 589 57 669 57 c 0
 722 57 761 72 806 104 c 1
 843 54 l 1
 792 13 735 -12 662 -12 c 0
 573 -12 513 30 475 101 c 1
 438 31 378 -12 290 -12 c 0
 143 -12 59 95 59 262 c 0
 59 427 144 538 291 538 c 0
 381 538 441 497 478 427 c 1
 514 496 569 538 649 538 c 0
 789 538 863 439 863 280 c 0
780 296 m 1
 780 304 l 2
 780 410 737 471 651 471 c 0
 578 471 529 419 522 296 c 1
 780 296 l 1
290 56 m 0
 381 56 432 123 432 264 c 0
 432 403 382 470 291 470 c 0
 201 470 149 403 149 262 c 0
 149 123 199 56 290 56 c 0
EndSplineSet
Substitution2: "'smcp' Lowercase to Small Capitals lookup 24 subtable" oe.sc
Substitution2: "'aalt' Access All Alternates lookup 0 subtable" oe.sc
EndChar

StartChar: Racute
Encoding: 340 340 87
Width: 601
GlyphClass: 2
Flags: MW
HStem: 0 21G<103 189 103 103 471 471 471 574> 296 67<189 290 290 303 189 290> 620 68<189 279 189 189>
VStem: 103 86<0 296 0 363 363 620> 446 92<447.5 538.5>
AnchorPoint: "Anchor-11" 308 0 basechar 0
AnchorPoint: "Anchor-10" 0 0 basechar 0
AnchorPoint: "Anchor-9" 298 688 basechar 0
AnchorPoint: "Anchor-8" 0 0 basechar 0
LayerCount: 2
Fore
SplineSet
205 756 m 1
 183 801 l 1
 380 906 l 1
 417 834 l 1
 205 756 l 1
303 296 m 1
 189 296 l 1
 189 0 l 1
 103 0 l 1
 103 688 l 1
 280 688 l 2
 450 688 538 622 538 495 c 0
 538 397 486 340 388 311 c 1
 574 0 l 1
 471 0 l 1
 303 296 l 1
290 363 m 2
 389 363 446 400 446 495 c 0
 446 582 396 620 279 620 c 2
 189 620 l 1
 189 363 l 1
 290 363 l 2
EndSplineSet
Substitution2: "'c2sc' Capitals to Small Capitals lookup 23 subtable" racute.sc
Substitution2: "'aalt' Access All Alternates lookup 0 subtable" racute.sc
Position2: "'cpsp' Capital Spacing lookup 0 subtable" dx=5 dy=0 dh=10 dv=0
EndChar
StartChar: rcommaaccent
Encoding: 343 343 611
Width: 383
GlyphClass: 2
Flags: MW
HStem: 0 21G<98 182 98 98> 456 82<287.5 320.5> 506 20G<98 170 170 170> 512 20G<372 372>
VStem: 87 109<-140 -117 -140 -117> 98 84<0 305 0 526>
AnchorPoint: "Anchor-14" 0 0 basechar 0
AnchorPoint: "Anchor-13" 0 0 basechar 0
AnchorPoint: "Anchor-12" 237 526 basechar 0
AnchorPoint: "Anchor-11" 0 0 basechar 0
AnchorPoint: "Anchor-10" 139 0 basechar 0
LayerCount: 2
Back
Fore
SplineSet
320 538 m 0xc4
 338 538 357 536 372 532 c 1x94
 357 450 l 1
 341 454 330 456 311 456 c 0xc4
 243 456 205 408 182 305 c 1
 182 0 l 1
 98 0 l 1
 98 526 l 1
 170 526 l 1xa4
 178 416 l 1
 206 497 255 538 320 538 c 0xc4
142 -79 m 0xc8
 173 -79 196 -102 196 -132 c 0
 196 -148 191 -164 171 -206 c 2
 130 -292 l 1
 81 -292 l 1
 111 -176 l 1
 97 -165 87 -150 87 -132 c 0
 87 -102 112 -79 142 -79 c 0xc8
EndSplineSet
Substitution2: "'smcp' Lowercase to Small Capitals lookup 27 subtable" rcommaaccent.sc
Substitution2: "'aalt' Access All Alternates lookup 0 subtable" rcommaaccent.sc
EndChar

StartChar: Rcaron
Encoding: 344 344 88
Width: 601
GlyphClass: 2
Flags: MW
HStem: 0 21G<103 189 103 103 471 471 471 574> 296 67<189 290 290 303 189 290> 620 68<189 279 189 189> 755 68<272 299 299 299 299 327>
VStem: 103 86<0 296 0 363 363 620> 446 92<447.5 538.5>
AnchorPoint: "Anchor-11" 308 0 basechar 0
AnchorPoint: "Anchor-10" 0 0 basechar 0
AnchorPoint: "Anchor-9" 298 688 basechar 0
AnchorPoint: "Anchor-8" 0 0 basechar 0
LayerCount: 2
Fore
SplineSet
272 755 m 1
 137 862 l 1
 174 904 l 1
 299 823 l 1
 424 904 l 1
 460 862 l 1
 327 755 l 1
 272 755 l 1
303 296 m 1
 189 296 l 1
 189 0 l 1
 103 0 l 1
 103 688 l 1
 280 688 l 2
 450 688 538 622 538 495 c 0
 538 397 486 340 388 311 c 1
 574 0 l 1
 471 0 l 1
 303 296 l 1
290 363 m 2
 389 363 446 400 446 495 c 0
 446 582 396 620 279 620 c 2
 189 620 l 1
 189 363 l 1
 290 363 l 2
EndSplineSet
Substitution2: "'c2sc' Capitals to Small Capitals lookup 23 subtable" rcaron.sc
Substitution2: "'aalt' Access All Alternates lookup 0 subtable" rcaron.sc
Position2: "'cpsp' Capital Spacing lookup 0 subtable" dx=5 dy=0 dh=10 dv=0
EndChar

StartChar: rcaron
Encoding: 345 345 225
Width: 383
GlyphClass: 2
Flags: MW
HStem: 0 21G<98 182 98 98> 456 82<287.5 320.5> 506 20G<98 170 170 170> 512 20G<372 372> 628 69<211 238 238 238 238 266> 677 20G<238 238> 720 20G<76 76 399 399>
VStem: 98 84<0 308 0 526>
AnchorPoint: "Anchor-11" 139 0 basechar 0
AnchorPoint: "Anchor-10" 0 0 basechar 0
AnchorPoint: "Anchor-9" 237 526 basechar 0
AnchorPoint: "Anchor-8" 0 0 basechar 0
LayerCount: 2
Fore
SplineSet
211 628 m 1xcb
 76 740 l 1
 113 781 l 1
 238 697 l 1
 363 781 l 1
 399 740 l 1
 266 628 l 1
 211 628 l 1xcb
178 416 m 1
 206 497 255 538 320 538 c 0xc7
 338 538 357 536 372 532 c 1x97
 357 450 l 1
 341 454 330 456 311 456 c 0xc7
 244 456 206 409 182 308 c 1
 182 0 l 1
 98 0 l 1
 98 526 l 1
 170 526 l 1xa7
 178 416 l 1
EndSplineSet
Substitution2: "'smcp' Lowercase to Small Capitals lookup 24 subtable" rcaron.sc
Substitution2: "'aalt' Access All Alternates lookup 0 subtable" rcaron.sc
EndChar
StartChar: Sacute
Encoding: 346 346 236
Width: 544
GlyphClass: 2
Flags: MW
HStem: -12 72<220 300 220 334.5> 628 72<236.5 302>
VStem: 56 89<495.5 559.5 495.5 574.5> 410 90<145.5 223.5>
AnchorPoint: "Anchor-14" 0 0 basechar 0
AnchorPoint: "Anchor-13" 0 0 basechar 0
AnchorPoint: "Anchor-12" 277 906 basechar 0
AnchorPoint: "Anchor-11" 0 0 basechar 0
AnchorPoint: "Anchor-10" 266 0 basechar 0
LayerCount: 2
Back
Fore
SplineSet
355 906 m 1
 392 834 l 1
 180 756 l 1
 158 801 l 1
 355 906 l 1
269 700 m 0
 363 700 422 672 478 621 c 1
 431 568 l 1
 379 610 331 628 273 628 c 0
 200 628 145 593 145 526 c 0
 145 465 174 436 298 398 c 0
 411 364 500 320 500 191 c 0
 500 71 410 -12 259 -12 c 0
 161 -12 85 21 28 76 c 1
 77 131 l 1
 128 87 182 60 258 60 c 0
 342 60 410 103 410 188 c 0
 410 259 376 290 258 326 c 0
 123 367 56 418 56 523 c 0
 56 626 144 700 269 700 c 0
EndSplineSet
Substitution2: "'c2sc' Capitals to Small Capitals lookup 26 subtable" sacute.sc
Substitution2: "'locl' Localized Forms in Latin lookup 7 subtable" Sacute.loclPLK
AlternateSubs2: "'aalt' Access All Alternates lookup 1 subtable" Sacute.loclPLK sacute.sc
Position2: "'cpsp' Capital Spacing lookup 0 subtable" dx=5 dy=0 dh=10 dv=0
EndChar
StartChar: sacute
Encoding: 347 347 624
Width: 466
GlyphClass: 2
Flags: MW
HStem: -12 68<193.5 258 193.5 278> 471 67<209 265>
VStem: 51 87<374.5 419.5 374.5 436.5> 340 88<114.5 168.5>
AnchorPoint: "Anchor-14" 0 0 basechar 0
AnchorPoint: "Anchor-13" 0 0 basechar 0
AnchorPoint: "Anchor-12" 245 797 basechar 0
AnchorPoint: "Anchor-11" 0 0 basechar 0
AnchorPoint: "Anchor-10" 234 0 basechar 0
LayerCount: 2
Back
Fore
SplineSet
321 797 m 1
 359 725 l 1
 151 640 l 1
 125 685 l 1
 321 797 l 1
237 538 m 0
 309 538 363 516 413 478 c 1
 377 425 l 1
 330 456 290 471 240 471 c 0
 178 471 138 442 138 397 c 0
 138 352 168 332 255 309 c 0
 366 280 428 238 428 146 c 0
 428 39 331 -12 225 -12 c 0
 136 -12 74 17 28 57 c 1
 73 108 l 1
 116 76 164 56 223 56 c 0
 293 56 340 88 340 141 c 0
 340 196 313 216 209 244 c 0
 96 274 51 321 51 395 c 0
 51 478 130 538 237 538 c 0
EndSplineSet
Substitution2: "'smcp' Lowercase to Small Capitals lookup 27 subtable" sacute.sc
Substitution2: "'locl' Localized Forms in Latin lookup 7 subtable" sacute.loclPLK
AlternateSubs2: "'aalt' Access All Alternates lookup 1 subtable" sacute.loclPLK sacute.sc
EndChar
StartChar: scircumflex
Encoding: 349 349 630
Width: 466
GlyphClass: 2
Flags: MW
HStem: -12 68<193.5 258 193.5 278> 471 67<209 265>
VStem: 51 87<374.5 419.5 374.5 436.5> 340 88<114.5 168.5>
AnchorPoint: "Anchor-14" 0 0 basechar 0
AnchorPoint: "Anchor-13" 0 0 basechar 0
AnchorPoint: "Anchor-12" 246 789 basechar 0
AnchorPoint: "Anchor-11" 0 0 basechar 0
AnchorPoint: "Anchor-10" 234 0 basechar 0
LayerCount: 2
Back
Fore
SplineSet
118 636 m 1
 82 678 l 1
 216 789 l 1
 271 789 l 1
 405 678 l 1
 369 636 l 1
 244 720 l 1
 118 636 l 1
237 538 m 0
 309 538 363 516 413 478 c 1
 377 425 l 1
 330 456 290 471 240 471 c 0
 178 471 138 442 138 397 c 0
 138 352 168 332 255 309 c 0
 366 280 428 238 428 146 c 0
 428 39 331 -12 225 -12 c 0
 136 -12 74 17 28 57 c 1
 73 108 l 1
 116 76 164 56 223 56 c 0
 293 56 340 88 340 141 c 0
 340 196 313 216 209 244 c 0
 96 274 51 321 51 395 c 0
 51 478 130 538 237 538 c 0
EndSplineSet
Substitution2: "'smcp' Lowercase to Small Capitals lookup 27 subtable" scircumflex.sc
Substitution2: "'aalt' Access All Alternates lookup 0 subtable" scircumflex.sc
EndChar

StartChar: Scedilla
Encoding: 350 350 93
Width: 544
GlyphClass: 2
Flags: MW
HStem: -238 56<251 278 251 299> -214 21G<178 178> -98 40<226 293> -11 71<236 236 293 293> 628 72<236.5 302>
VStem: 56 89<495.5 559.5 495.5 574.5> 231 62 315 71<-155.5 -127> 410 90<145.5 223.5>
AnchorPoint: "Anchor-11" 266 0 basechar 0
AnchorPoint: "Anchor-10" 0 0 basechar 0
AnchorPoint: "Anchor-9" 275 688 basechar 0
AnchorPoint: "Anchor-8" 0 0 basechar 0
LayerCount: 2
Fore
SplineSet
500 191 m 0x7e80
 500 80 423 1 293 -11 c 1
 293 -58 l 1x7e80
 361 -64 386 -100 386 -141 c 0
 386 -205 332 -238 266 -238 c 0xbf80
 229 -238 198 -229 178 -214 c 1x7e80
 201 -166 l 1
 220 -176 238 -182 264 -182 c 0
 292 -182 315 -170 315 -141 c 0xbf80
 315 -113 290 -98 226 -98 c 1
 236 -11 l 1
 149 -7 80 25 28 76 c 1
 79 132 l 1
 126 87 182 60 258 60 c 0
 342 60 410 103 410 188 c 0
 410 259 376 290 258 326 c 0
 123 367 56 418 56 523 c 0
 56 626 144 700 269 700 c 0
 363 700 422 672 478 621 c 1
 429 566 l 1
 379 610 331 628 273 628 c 0
 200 628 145 593 145 526 c 0
 145 465 174 436 298 398 c 0
 411 364 500 320 500 191 c 0x7e80
EndSplineSet
Substitution2: "'c2sc' Capitals to Small Capitals lookup 23 subtable" scedilla.sc
Substitution2: "'locl' Localized Forms in Latin lookup 5 subtable" Scommaaccent
Substitution2: "'locl' Localized Forms in Latin lookup 4 subtable" Scommaaccent
AlternateSubs2: "'aalt' Access All Alternates lookup 1 subtable" Scommaaccent scedilla.sc
Position2: "'cpsp' Capital Spacing lookup 0 subtable" dx=5 dy=0 dh=10 dv=0
EndChar
StartChar: scedilla
Encoding: 351 351 628
Width: 466
GlyphClass: 2
Flags: MW
HStem: -238 56<214 241 214 262> -214 21G<141 141> -98 40<189 256> -11 67<199 199> -10 66<256 256> 471 67<209 265>
VStem: 51 87<374.5 419.5 374.5 436.5> 194 62 278 71<-155.5 -127> 340 88<114.5 168.5>
AnchorPoint: "Anchor-14" 0 0 basechar 0
AnchorPoint: "Anchor-13" 0 0 basechar 0
AnchorPoint: "Anchor-12" 244 526 basechar 0
AnchorPoint: "Anchor-11" 0 0 basechar 0
AnchorPoint: "Anchor-10" 248 -238 basechar 0
LayerCount: 2
Back
Fore
SplineSet
428 146 m 0x6f40
 428 50 349 -1 256 -10 c 1
 256 -58 l 1x6f40
 324 -64 349 -100 349 -141 c 0
 349 -205 295 -238 229 -238 c 0xb780
 192 -238 161 -229 141 -214 c 1x7740
 164 -166 l 1
 183 -176 201 -182 227 -182 c 0
 255 -182 278 -170 278 -141 c 0xb780
 278 -113 253 -98 189 -98 c 1
 199 -11 l 1
 124 -6 70 21 28 57 c 1
 73 108 l 1
 116 76 164 56 223 56 c 0
 293 56 340 88 340 141 c 0x7740
 340 196 313 216 209 244 c 0
 96 274 51 321 51 395 c 0
 51 478 130 538 237 538 c 0
 309 538 363 516 413 478 c 1
 377 425 l 1
 330 456 290 471 240 471 c 0
 178 471 138 442 138 397 c 0
 138 352 168 332 255 309 c 0
 366 280 428 238 428 146 c 0x6f40
EndSplineSet
Substitution2: "'smcp' Lowercase to Small Capitals lookup 27 subtable" scedilla.sc
Substitution2: "'locl' Localized Forms in Latin lookup 5 subtable" scommaaccent
Substitution2: "'locl' Localized Forms in Latin lookup 4 subtable" scommaaccent
AlternateSubs2: "'aalt' Access All Alternates lookup 1 subtable" scommaaccent scedilla.sc
EndChar
StartChar: uni0162
Encoding: 354 354 250
Width: 512
GlyphClass: 2
Flags: MW
HStem: -238 56<257 284.5 257 305.5> -214 21G<187 187> -98 40<235 300> 0 21G<213 246 213 213> 614 74<15 213 15 502 299 492 299 299>
VStem: 213 86<16 614 16 614 16 614> 324 71<-155.5 -127>
AnchorPoint: "Anchor-14" 256 345 basechar 0
AnchorPoint: "Anchor-13" 0 0 basechar 0
AnchorPoint: "Anchor-12" 256 688 basechar 0
AnchorPoint: "Anchor-11" 0 0 basechar 0
AnchorPoint: "Anchor-10" 256 0 basechar 0
LayerCount: 2
Back
Fore
SplineSet
492 614 m 1x7c
 299 614 l 1
 299 16 l 1
 300 16 l 1
 300 -58 l 1x7c
 367 -64 395 -100 395 -141 c 0
 395 -205 339 -238 272 -238 c 0xbe
 236 -238 207 -229 187 -214 c 1x7c
 210 -166 l 1
 229 -176 245 -182 269 -182 c 0
 300 -182 324 -170 324 -141 c 0xbe
 324 -113 299 -98 235 -98 c 1
 246 0 l 1
 213 0 l 1
 213 614 l 1
 15 614 l 1
 15 688 l 1
 502 688 l 1
 492 614 l 1x7c
EndSplineSet
Substitution2: "'c2sc' Capitals to Small Capitals lookup 26 subtable" uni0163.sc
Substitution2: "'locl' Localized Forms in Latin lookup 5 subtable" uni021A
Substitution2: "'locl' Localized Forms in Latin lookup 4 subtable" uni021A
AlternateSubs2: "'aalt' Access All Alternates lookup 1 subtable" uni021A uni0163.sc
Position2: "'cpsp' Capital Spacing lookup 0 subtable" dx=5 dy=0 dh=10 dv=0
EndChar
StartChar: uni0163
Encoding: 355 355 642
Width: 356
GlyphClass: 2
Flags: MW
HStem: -238 56<212 239 212 260> -214 21G<139 139> -98 40<187 254> -11 69<254 254> -7 21G<197 197> 461 65<11 102 11 102 186 304>
VStem: 102 84<135 139 139 461 526 647 647 647> 192 62 276 71<-155.5 -127>
AnchorPoint: "Anchor-14" 177 263 basechar 0
AnchorPoint: "Anchor-13" 185 746 basechar 0
AnchorPoint: "Anchor-12" 144 647 basechar 0
AnchorPoint: "Anchor-11" 0 0 basechar 0
AnchorPoint: "Anchor-10" 246 -238 basechar 0
LayerCount: 2
Back
Fore
SplineSet
254 -58 m 1x75
 322 -64 347 -100 347 -141 c 0
 347 -205 293 -238 227 -238 c 0xae80
 190 -238 159 -229 139 -214 c 1x6e
 162 -166 l 1
 181 -176 199 -182 225 -182 c 0
 253 -182 276 -170 276 -141 c 0xae80
 276 -113 251 -98 187 -98 c 1x6d
 197 -7 l 1x6e
 137 8 102 56 102 135 c 2
 102 461 l 1
 11 461 l 1
 11 526 l 1
 102 526 l 1
 102 647 l 1
 186 656 l 1
 186 526 l 1
 313 526 l 1
 304 461 l 1
 186 461 l 1
 186 139 l 2
 186 84 205 58 252 58 c 0x76
 277 58 299 65 325 81 c 1
 357 23 l 1
 326 3 293 -9 254 -11 c 1
 254 -58 l 1x75
EndSplineSet
Substitution2: "'smcp' Lowercase to Small Capitals lookup 27 subtable" uni0163.sc
Substitution2: "'locl' Localized Forms in Latin lookup 5 subtable" uni021B
Substitution2: "'locl' Localized Forms in Latin lookup 4 subtable" uni021B
AlternateSubs2: "'aalt' Access All Alternates lookup 1 subtable" uni021B uni0163.sc
EndChar

StartChar: Tcaron
Encoding: 356 356 98
Width: 512
GlyphClass: 2
Flags: MW
HStem: 0 21G<213 299 213 213> 614 74<15 213 15 502 299 492 299 299> 755 68<256 256 256 284 229 256>
VStem: 213 86<0 614 0 614>
AnchorPoint: "Anchor-11" 256 0 basechar 0
AnchorPoint: "Anchor-10" 0 0 basechar 0
AnchorPoint: "Anchor-9" 255 688 basechar 0
AnchorPoint: "Anchor-8" 0 0 basechar 0
LayerCount: 2
Fore
SplineSet
417 862 m 1
 284 755 l 1
 229 755 l 1
 94 862 l 1
 131 904 l 1
 256 823 l 1
 381 904 l 1
 417 862 l 1
492 614 m 1
 299 614 l 1
 299 0 l 1
 213 0 l 1
 213 614 l 1
 15 614 l 1
 15 688 l 1
 502 688 l 1
 492 614 l 1
EndSplineSet
Substitution2: "'c2sc' Capitals to Small Capitals lookup 23 subtable" tcaron.sc
Substitution2: "'aalt' Access All Alternates lookup 0 subtable" tcaron.sc
Position2: "'cpsp' Capital Spacing lookup 0 subtable" dx=5 dy=0 dh=10 dv=0
EndChar
StartChar: tcaron
Encoding: 357 357 640
Width: 356
GlyphClass: 2
Flags: MW
HStem: -12 70<228.5 263> 461 65<11 102 11 102 186 304> 554 20G<221 221> 726 20G<317 317>
VStem: 102 84<135 139 139 461 526 647 647 647>
AnchorPoint: "Anchor-14" 177 263 basechar 0
AnchorPoint: "Anchor-13" 185 746 basechar 0
AnchorPoint: "Anchor-12" 144 647 basechar 0
AnchorPoint: "Anchor-11" 0 0 basechar 0
AnchorPoint: "Anchor-10" 232 0 basechar 0
LayerCount: 2
Back
Fore
SplineSet
317 746 m 1
 270 567 l 1
 221 574 l 1
 241 755 l 1
 317 746 l 1
325 81 m 1
 357 23 l 1
 323 0 285 -12 241 -12 c 0
 154 -12 102 39 102 135 c 2
 102 461 l 1
 11 461 l 1
 11 526 l 1
 102 526 l 1
 102 647 l 1
 186 656 l 1
 186 526 l 1
 313 526 l 1
 304 461 l 1
 186 461 l 1
 186 139 l 2
 186 84 205 58 252 58 c 0
 277 58 299 65 325 81 c 1
EndSplineSet
Substitution2: "'smcp' Lowercase to Small Capitals lookup 27 subtable" tcaron.sc
Substitution2: "'aalt' Access All Alternates lookup 0 subtable" tcaron.sc
EndChar

StartChar: Tbar
Encoding: 358 358 97
Width: 515
GlyphClass: 2
Flags: MW
HStem: -2 21G<213 299 213 213> 322 64<90 213 90 213 299 424> 612 74<15 213 15 502 299 492 299 299>
VStem: 213 86<-2 322 -2 322 386 612>
AnchorPoint: "Anchor-11" 256 -2 basechar 0
AnchorPoint: "Anchor-10" 0 0 basechar 0
AnchorPoint: "Anchor-9" 255 686 basechar 0
AnchorPoint: "Anchor-8" 0 0 basechar 0
LayerCount: 2
Fore
SplineSet
299 612 m 1
 299 386 l 1
 424 386 l 1
 424 322 l 1
 299 322 l 1
 299 -2 l 1
 213 -2 l 1
 213 322 l 1
 90 322 l 1
 90 386 l 1
 213 386 l 1
 213 612 l 1
 15 612 l 1
 15 686 l 1
 502 686 l 1
 492 612 l 1
 299 612 l 1
EndSplineSet
Substitution2: "'c2sc' Capitals to Small Capitals lookup 23 subtable" tbar.sc
Substitution2: "'aalt' Access All Alternates lookup 0 subtable" tbar.sc
Position2: "'cpsp' Capital Spacing lookup 0 subtable" dx=5 dy=0 dh=10 dv=0
EndChar
StartChar: tbar
Encoding: 359 359 639
Width: 356
GlyphClass: 2
Flags: MW
HStem: -12 70<228.5 263> 290 65<21 102 21 102 186 299> 461 65<11 102 11 102 186 304>
VStem: 102 84<135 139 139 290 355 461 526 647 647 647>
AnchorPoint: "Anchor-14" 177 263 basechar 0
AnchorPoint: "Anchor-13" 185 746 basechar 0
AnchorPoint: "Anchor-12" 144 647 basechar 0
AnchorPoint: "Anchor-11" 0 0 basechar 0
AnchorPoint: "Anchor-10" 232 0 basechar 0
LayerCount: 2
Back
Fore
SplineSet
325 81 m 1
 357 23 l 1
 323 0 285 -12 241 -12 c 0
 154 -12 102 39 102 135 c 2
 102 290 l 1
 21 290 l 1
 21 355 l 1
 102 355 l 1
 102 461 l 1
 11 461 l 1
 11 526 l 1
 102 526 l 1
 102 647 l 1
 186 656 l 1
 186 526 l 1
 313 526 l 1
 304 461 l 1
 186 461 l 1
 186 355 l 1
 299 355 l 1
 299 290 l 1
 186 290 l 1
 186 139 l 2
 186 84 205 58 252 58 c 0
 277 58 299 65 325 81 c 1
EndSplineSet
Substitution2: "'smcp' Lowercase to Small Capitals lookup 27 subtable" tbar.sc
Substitution2: "'aalt' Access All Alternates lookup 0 subtable" tbar.sc
EndChar
StartChar: Utilde
Encoding: 360 360 289
Width: 660
GlyphClass: 2
Flags: MW
HStem: -12 74<278 380.5 278 406> 668 20G<93 179 179 179 479 567 567 567> 784 65<369.5 398 369.5 409.5> 832 64<260.5 290>
VStem: 93 86<219 226 226 688> 479 88<226 688>
AnchorPoint: "Anchor-14" 0 0 basechar 0
AnchorPoint: "Anchor-13" 577 688 basechar 0
AnchorPoint: "Anchor-12" 332 896 basechar 0
AnchorPoint: "Anchor-11" 425 0 basechar 0
AnchorPoint: "Anchor-10" 330 0 basechar 0
LayerCount: 2
Back
Fore
SplineSet
388 784 m 0xec
 336 784 308 832 272 832 c 0
 249 832 235 817 218 787 c 1
 167 813 l 1
 190 860 224 896 272 896 c 0xdc
 326 896 351 849 388 849 c 0
 408 849 423 863 442 893 c 1
 493 867 l 1
 468 812 431 784 388 784 c 0xec
567 688 m 1xdc
 567 219 l 2
 567 84 483 -12 329 -12 c 0
 173 -12 93 84 93 219 c 2
 93 688 l 1
 179 688 l 1
 179 226 l 2
 179 118 227 62 329 62 c 0
 432 62 479 118 479 226 c 2
 479 688 l 1
 567 688 l 1xdc
EndSplineSet
Substitution2: "'c2sc' Capitals to Small Capitals lookup 26 subtable" utilde.sc
Substitution2: "'aalt' Access All Alternates lookup 0 subtable" utilde.sc
Position2: "'cpsp' Capital Spacing lookup 0 subtable" dx=5 dy=0 dh=10 dv=0
EndChar
